<?xml version="1.0" encoding="utf-8"?>
<!-- Generator: Adobe Illustrator 28.0.0, SVG Export Plug-In . SVG Version: 6.00 Build 0)  -->
<svg version="1.1" id="Layer_1" xmlns="http://www.w3.org/2000/svg" xmlns:xlink="http://www.w3.org/1999/xlink" x="0px" y="0px"
	 viewBox="0 0 453.5 283.5" style="enable-background:new 0 0 453.5 283.5;" xml:space="preserve">
<style type="text/css">
	.st0{fill:#FFFFFF;}
	.st1{clip-path:url(#SVGID_00000045603546539464398070000007188091696036069046_);}
	.st2{fill:none;}
	.st3{clip-path:url(#SVGID_00000091733994884738483630000007404790973451329466_);}
	.st4{fill:none;stroke:#000000;stroke-width:1.07;stroke-linecap:round;stroke-linejoin:round;stroke-miterlimit:10;}
	.st5{font-family:'Arial-ItalicMT';}
	.st6{font-size:8px;}
	.st7{enable-background:new    ;}
	.st8{font-family:'ArialMT';}
	.st9{fill:#FFFFFF;stroke:#B3B3B3;stroke-width:0.21;stroke-miterlimit:10;}
	.st10{fill:#F5FBED;stroke:#B3B3B3;stroke-width:0.21;stroke-miterlimit:10;}
	.st11{fill:#ABE27C;stroke:#B3B3B3;stroke-width:0.21;stroke-miterlimit:10;}
	.st12{fill:#73D027;stroke:#B3B3B3;stroke-width:0.21;stroke-miterlimit:10;}
	.st13{fill:#C2EA9E;stroke:#B3B3B3;stroke-width:0.21;stroke-miterlimit:10;}
	.st14{fill:#EDF9E2;stroke:#B3B3B3;stroke-width:0.21;stroke-miterlimit:10;}
	.st15{fill:#FEFFFD;stroke:#B3B3B3;stroke-width:0.21;stroke-miterlimit:10;}
	.st16{fill:#81D43F;stroke:#B3B3B3;stroke-width:0.21;stroke-miterlimit:10;}
	.st17{fill:#DDF3C7;stroke:#B3B3B3;stroke-width:0.21;stroke-miterlimit:10;}
	.st18{fill:#FDFEFC;stroke:#B3B3B3;stroke-width:0.21;stroke-miterlimit:10;}
	.st19{fill:#ECF8DF;stroke:#B3B3B3;stroke-width:0.21;stroke-miterlimit:10;}
	.st20{fill:#A4E072;stroke:#B3B3B3;stroke-width:0.21;stroke-miterlimit:10;}
	.st21{fill:#F9FDF5;stroke:#B3B3B3;stroke-width:0.21;stroke-miterlimit:10;}
	.st22{fill:#B9E790;stroke:#B3B3B3;stroke-width:0.21;stroke-miterlimit:10;}
	.st23{fill:#C0E99A;stroke:#B3B3B3;stroke-width:0.21;stroke-miterlimit:10;}
	.st24{fill:#F4FBEC;stroke:#B3B3B3;stroke-width:0.21;stroke-miterlimit:10;}
	.st25{fill:#FEFFFE;stroke:#B3B3B3;stroke-width:0.21;stroke-miterlimit:10;}
	.st26{fill:#F9FDF4;stroke:#B3B3B3;stroke-width:0.21;stroke-miterlimit:10;}
	.st27{fill:#FBFEF8;stroke:#B3B3B3;stroke-width:0.21;stroke-miterlimit:10;}
	.st28{fill:#FCFEF9;stroke:#B3B3B3;stroke-width:0.21;stroke-miterlimit:10;}
	.st29{fill:#BCE794;stroke:#B3B3B3;stroke-width:0.21;stroke-miterlimit:10;}
	.st30{fill:#DDF3C6;stroke:#B3B3B3;stroke-width:0.21;stroke-miterlimit:10;}
	.st31{fill:#EFF9E4;stroke:#B3B3B3;stroke-width:0.21;stroke-miterlimit:10;}
	.st32{fill:#A7E076;stroke:#B3B3B3;stroke-width:0.21;stroke-miterlimit:10;}
	.st33{fill:#E0F4CC;stroke:#B3B3B3;stroke-width:0.21;stroke-miterlimit:10;}
	.st34{fill:#A1DE6D;stroke:#B3B3B3;stroke-width:0.21;stroke-miterlimit:10;}
	.st35{fill:#CAECAA;stroke:#B3B3B3;stroke-width:0.21;stroke-miterlimit:10;}
	.st36{fill:#EAF7DB;stroke:#B3B3B3;stroke-width:0.21;stroke-miterlimit:10;}
	.st37{fill:#D9F2C1;stroke:#B3B3B3;stroke-width:0.21;stroke-miterlimit:10;}
	.st38{fill:#D9F1C0;stroke:#B3B3B3;stroke-width:0.21;stroke-miterlimit:10;}
	.st39{fill:#EDF9E1;stroke:#B3B3B3;stroke-width:0.21;stroke-miterlimit:10;}
	.st40{fill:#A0DE6C;stroke:#B3B3B3;stroke-width:0.21;stroke-miterlimit:10;}
	.st41{fill:#DFF4CB;stroke:#B3B3B3;stroke-width:0.21;stroke-miterlimit:10;}
	.st42{fill:#7DD339;stroke:#B3B3B3;stroke-width:0.21;stroke-miterlimit:10;}
	.st43{fill:#E5F6D3;stroke:#B3B3B3;stroke-width:0.21;stroke-miterlimit:10;}
	.st44{fill:#E9F7DA;stroke:#B3B3B3;stroke-width:0.21;stroke-miterlimit:10;}
	.st45{fill:#DCF3C5;stroke:#B3B3B3;stroke-width:0.21;stroke-miterlimit:10;}
	.st46{fill:#EAF8DD;stroke:#B3B3B3;stroke-width:0.21;stroke-miterlimit:10;}
	.st47{fill:#70D020;stroke:#B3B3B3;stroke-width:0.21;stroke-miterlimit:10;}
	.st48{fill:#FFFFFE;stroke:#B3B3B3;stroke-width:0.21;stroke-miterlimit:10;}
	.st49{fill:#D8F1BF;stroke:#B3B3B3;stroke-width:0.21;stroke-miterlimit:10;}
	.st50{fill:#FBFDF8;stroke:#B3B3B3;stroke-width:0.21;stroke-miterlimit:10;}
	.st51{fill:#F7FCF2;stroke:#B3B3B3;stroke-width:0.21;stroke-miterlimit:10;}
	.st52{fill:#F6FCEF;stroke:#B3B3B3;stroke-width:0.21;stroke-miterlimit:10;}
	.st53{fill:#F5FBEE;stroke:#B3B3B3;stroke-width:0.21;stroke-miterlimit:10;}
	.st54{fill:#F3FBEB;stroke:#B3B3B3;stroke-width:0.21;stroke-miterlimit:10;}
	.st55{fill:#DBF2C4;stroke:#B3B3B3;stroke-width:0.21;stroke-miterlimit:10;}
	.st56{fill:#F2FAE9;stroke:#B3B3B3;stroke-width:0.21;stroke-miterlimit:10;}
	.st57{fill:#66CD00;stroke:#B3B3B3;stroke-width:0.21;stroke-miterlimit:10;}
	.st58{fill:#EEF9E2;stroke:#B3B3B3;stroke-width:0.21;stroke-miterlimit:10;}
	.st59{fill:#ADE27E;stroke:#B3B3B3;stroke-width:0.21;stroke-miterlimit:10;}
	.st60{fill:#FAFDF7;stroke:#B3B3B3;stroke-width:0.21;stroke-miterlimit:10;}
	.st61{fill:#F5FCEF;stroke:#B3B3B3;stroke-width:0.21;stroke-miterlimit:10;}
	.st62{fill:#EEF9E3;stroke:#B3B3B3;stroke-width:0.21;stroke-miterlimit:10;}
	.st63{fill:#9EDD69;stroke:#B3B3B3;stroke-width:0.21;stroke-miterlimit:10;}
	.st64{clip-path:url(#SVGID_00000143582544592103947380000008471885061268986033_);}
	.st65{fill:none;stroke:#000000;stroke-width:1.07;stroke-linejoin:round;stroke-miterlimit:10;}
	.st66{fill:none;stroke:#333333;stroke-width:0.78;stroke-linejoin:round;stroke-miterlimit:10;}
	.st67{font-size:6.4px;}
	.st68{letter-spacing:1;}
	.st69{fill:none;stroke:#FFFFFF;stroke-width:0.38;stroke-linejoin:round;stroke-miterlimit:10;}
	.st70{font-size:9.5px;}
	.st71{clip-path:url(#SVGID_00000028299319886566511000000003389672255933649058_);}
	.st72{fill:#FFFFFF;stroke:#FFFFFF;stroke-width:1.07;stroke-linecap:round;stroke-linejoin:round;stroke-miterlimit:10;}
	.st73{clip-path:url(#SVGID_00000164508525810610949480000003160542326340613310_);}
	.st74{fill:#FFFFFF;stroke:#FFFFFF;stroke-width:0.78;stroke-linecap:round;stroke-linejoin:round;stroke-miterlimit:10;}
	.st75{clip-path:url(#SVGID_00000163752698193384744400000003847576314058438843_);}
	.st76{clip-path:url(#SVGID_00000123417069513670946120000008828756445640029854_);}
</style>
<rect y="0" class="st0" width="453.5" height="283.5"/>
<g>
	<defs>
		<rect id="SVGID_1_" y="0" width="453.5" height="283.5"/>
	</defs>
	<clipPath id="SVGID_00000044885514841256910330000009496446067324194947_">
		<use xlink:href="#SVGID_1_"  style="overflow:visible;"/>
	</clipPath>
	<g style="clip-path:url(#SVGID_00000044885514841256910330000009496446067324194947_);">
		<rect y="0" class="st2" width="453.5" height="283.5"/>
	</g>
</g>
<g>
	<defs>
		<rect id="SVGID_00000177484210946116766020000014370129908984583053_" x="2.8" y="44.5" width="449.9" height="209"/>
	</defs>
	<clipPath id="SVGID_00000052814383508774600810000018431731377953563315_">
		<use xlink:href="#SVGID_00000177484210946116766020000014370129908984583053_"  style="overflow:visible;"/>
	</clipPath>
	<g style="clip-path:url(#SVGID_00000052814383508774600810000018431731377953563315_);">
		<rect x="2.8" y="44.5" class="st0" width="449.9" height="209"/>
		<line class="st4" x1="23.3" y1="241.9" x2="34.5" y2="241.9"/>
		<line class="st4" x1="51.7" y1="218.7" x2="59.4" y2="218.7"/>
		<line class="st4" x1="51.7" y1="211" x2="56.9" y2="211"/>
		<line class="st4" x1="96.9" y1="203.2" x2="96.9" y2="203.2"/>
		<line class="st4" x1="96.9" y1="195.5" x2="97.7" y2="195.5"/>
		<line class="st4" x1="65.5" y1="180" x2="95.6" y2="180"/>
		<line class="st4" x1="110.8" y1="172.3" x2="118.4" y2="172.3"/>
		<line class="st4" x1="110.8" y1="164.5" x2="120" y2="164.5"/>
		<line class="st4" x1="95.4" y1="156.8" x2="118.5" y2="156.8"/>
		<line class="st4" x1="95.4" y1="149.1" x2="102.2" y2="149.1"/>
		<line class="st4" x1="39.3" y1="187.8" x2="66.6" y2="187.8"/>
		<line class="st4" x1="69.8" y1="234.2" x2="70.5" y2="234.2"/>
		<line class="st4" x1="69.8" y1="226.5" x2="69.8" y2="226.5"/>
		<line class="st4" x1="57.1" y1="110.3" x2="63.8" y2="110.3"/>
		<line class="st4" x1="57.1" y1="102.6" x2="63.9" y2="102.6"/>
		<line class="st4" x1="42.3" y1="94.9" x2="54.1" y2="94.9"/>
		<line class="st4" x1="63.3" y1="79.4" x2="72.1" y2="79.4"/>
		<line class="st4" x1="77.5" y1="71.6" x2="80.1" y2="71.6"/>
		<line class="st4" x1="84.1" y1="63.9" x2="84.1" y2="63.9"/>
		<line class="st4" x1="84.1" y1="56.2" x2="84.8" y2="56.2"/>
		<line class="st4" x1="54.5" y1="87.1" x2="66" y2="87.1"/>
		<line class="st4" x1="35.8" y1="141.3" x2="58.1" y2="141.3"/>
		<line class="st4" x1="44" y1="133.6" x2="44" y2="133.6"/>
		<line class="st4" x1="44.8" y1="125.8" x2="47.6" y2="125.8"/>
		<line class="st4" x1="44.8" y1="118.1" x2="44.8" y2="118.1"/>
		<line class="st4" x1="23.3" y1="191.3" x2="23.3" y2="191.3"/>
		<line class="st4" x1="23.3" y1="216.2" x2="27.9" y2="216.2"/>
		<line class="st4" x1="27.9" y1="202" x2="29.9" y2="202"/>
		<line class="st4" x1="29.9" y1="214.9" x2="51.7" y2="214.9"/>
		<line class="st4" x1="29.9" y1="189.2" x2="36.7" y2="189.2"/>
		<line class="st4" x1="36.7" y1="199.4" x2="96.9" y2="199.4"/>
		<line class="st4" x1="36.7" y1="179.1" x2="39.3" y2="179.1"/>
		<line class="st4" x1="39.3" y1="170.3" x2="65.5" y2="170.3"/>
		<line class="st4" x1="65.5" y1="160.7" x2="87.3" y2="160.7"/>
		<line class="st4" x1="87.3" y1="168.4" x2="110.8" y2="168.4"/>
		<line class="st4" x1="87.3" y1="152.9" x2="95.4" y2="152.9"/>
		<line class="st4" x1="27.9" y1="230.3" x2="69.8" y2="230.3"/>
		<line class="st4" x1="23.3" y1="115.7" x2="27.4" y2="115.7"/>
		<line class="st4" x1="27.4" y1="96.9" x2="40.4" y2="96.9"/>
		<line class="st4" x1="40.4" y1="106.5" x2="57.1" y2="106.5"/>
		<line class="st4" x1="40.4" y1="87.4" x2="42.3" y2="87.4"/>
		<line class="st4" x1="42.3" y1="79.9" x2="54.5" y2="79.9"/>
		<line class="st4" x1="54.5" y1="72.6" x2="63.3" y2="72.6"/>
		<line class="st4" x1="63.3" y1="65.8" x2="77.5" y2="65.8"/>
		<line class="st4" x1="77.5" y1="60" x2="84.1" y2="60"/>
		<line class="st4" x1="27.4" y1="134.5" x2="35.8" y2="134.5"/>
		<line class="st4" x1="35.8" y1="127.8" x2="44" y2="127.8"/>
		<line class="st4" x1="44" y1="122" x2="44.8" y2="122"/>
		<line class="st4" x1="23.3" y1="191.3" x2="23.3" y2="241.9"/>
		<line class="st4" x1="51.7" y1="214.9" x2="51.7" y2="218.7"/>
		<line class="st4" x1="51.7" y1="214.9" x2="51.7" y2="211"/>
		<line class="st4" x1="96.9" y1="199.4" x2="96.9" y2="203.2"/>
		<line class="st4" x1="96.9" y1="199.4" x2="96.9" y2="195.5"/>
		<line class="st4" x1="65.5" y1="170.3" x2="65.5" y2="180"/>
		<line class="st4" x1="110.8" y1="168.4" x2="110.8" y2="172.3"/>
		<line class="st4" x1="110.8" y1="168.4" x2="110.8" y2="164.5"/>
		<line class="st4" x1="95.4" y1="152.9" x2="95.4" y2="156.8"/>
		<line class="st4" x1="95.4" y1="152.9" x2="95.4" y2="149.1"/>
		<line class="st4" x1="39.3" y1="179.1" x2="39.3" y2="187.8"/>
		<line class="st4" x1="69.8" y1="230.3" x2="69.8" y2="234.2"/>
		<line class="st4" x1="69.8" y1="230.3" x2="69.8" y2="226.5"/>
		<line class="st4" x1="57.1" y1="106.5" x2="57.1" y2="110.3"/>
		<line class="st4" x1="57.1" y1="106.5" x2="57.1" y2="102.6"/>
		<line class="st4" x1="42.3" y1="87.4" x2="42.3" y2="94.9"/>
		<line class="st4" x1="63.3" y1="72.6" x2="63.3" y2="79.4"/>
		<line class="st4" x1="77.5" y1="65.8" x2="77.5" y2="71.6"/>
		<line class="st4" x1="84.1" y1="60" x2="84.1" y2="63.9"/>
		<line class="st4" x1="84.1" y1="60" x2="84.1" y2="56.2"/>
		<line class="st4" x1="54.5" y1="79.9" x2="54.5" y2="87.1"/>
		<line class="st4" x1="35.8" y1="134.5" x2="35.8" y2="141.3"/>
		<line class="st4" x1="44" y1="127.8" x2="44" y2="133.6"/>
		<line class="st4" x1="44.8" y1="122" x2="44.8" y2="125.8"/>
		<line class="st4" x1="44.8" y1="122" x2="44.8" y2="118.1"/>
		<line class="st4" x1="23.3" y1="191.3" x2="23.3" y2="191.3"/>
		<line class="st4" x1="23.3" y1="191.3" x2="23.3" y2="216.2"/>
		<line class="st4" x1="27.9" y1="216.2" x2="27.9" y2="202"/>
		<line class="st4" x1="29.9" y1="202" x2="29.9" y2="214.9"/>
		<line class="st4" x1="29.9" y1="202" x2="29.9" y2="189.2"/>
		<line class="st4" x1="36.7" y1="189.2" x2="36.7" y2="199.4"/>
		<line class="st4" x1="36.7" y1="189.2" x2="36.7" y2="179.1"/>
		<line class="st4" x1="39.3" y1="179.1" x2="39.3" y2="170.3"/>
		<line class="st4" x1="65.5" y1="170.3" x2="65.5" y2="160.7"/>
		<line class="st4" x1="87.3" y1="160.7" x2="87.3" y2="168.4"/>
		<line class="st4" x1="87.3" y1="160.7" x2="87.3" y2="152.9"/>
		<line class="st4" x1="27.9" y1="216.2" x2="27.9" y2="230.3"/>
		<line class="st4" x1="23.3" y1="191.3" x2="23.3" y2="115.7"/>
		<line class="st4" x1="27.4" y1="115.7" x2="27.4" y2="96.9"/>
		<line class="st4" x1="40.4" y1="96.9" x2="40.4" y2="106.5"/>
		<line class="st4" x1="40.4" y1="96.9" x2="40.4" y2="87.4"/>
		<line class="st4" x1="42.3" y1="87.4" x2="42.3" y2="79.9"/>
		<line class="st4" x1="54.5" y1="79.9" x2="54.5" y2="72.6"/>
		<line class="st4" x1="63.3" y1="72.6" x2="63.3" y2="65.8"/>
		<line class="st4" x1="77.5" y1="65.8" x2="77.5" y2="60"/>
		<line class="st4" x1="27.4" y1="115.7" x2="27.4" y2="134.5"/>
		<line class="st4" x1="35.8" y1="134.5" x2="35.8" y2="127.8"/>
		<line class="st4" x1="44" y1="127.8" x2="44" y2="122"/>
		<text transform="matrix(1 0 0 1 34.97 244.81)" class="st5 st6">Silanimonas</text>
		<text transform="matrix(1 0 0 1 59.93 221.58)" class="st5 st6">Polaromonas</text>
		<text transform="matrix(1 0 0 1 57.41 213.84)" class="st5 st6">Comamonadaceae bacterium</text>
		<text transform="matrix(1 0 0 1 97.41 206.1)" class="st7"><tspan x="0" y="0" class="st5 st6">Microcystis </tspan><tspan x="41.8" y="0" class="st8 st6">PCC-7914</tspan></text>
		<text transform="matrix(1 0 0 1 98.13 198.36)" class="st7"><tspan x="0" y="0" class="st5 st6">Microcystis </tspan><tspan x="41.8" y="0" class="st8 st6">PCC-7914</tspan></text>
		<text transform="matrix(1 0 0 1 96.04 182.88)" class="st5 st6">Algoriphagus</text>
		<text transform="matrix(1 0 0 1 118.87 175.14)" class="st5 st6">Flavobacterium</text>
		<text transform="matrix(1 0 0 1 120.45 167.39)" class="st5 st6">Flavobacterium</text>
		<text transform="matrix(1 0 0 1 118.95 159.65)" class="st8 st6">LiUU-11-161</text>
		<text transform="matrix(1 0 0 1 102.66 151.91)" class="st5 st6">Sediminibacterium</text>
		<text transform="matrix(1 0 0 1 67.11 190.62)" class="st5 st6">Fimbriimonadaceae</text>
		<text transform="matrix(1 0 0 1 71.02 237.07)" class="st5 st6">Paludibaculum</text>
		<text transform="matrix(1 0 0 1 70.31 229.33)" class="st5 st6">Paludibaculum</text>
		<text transform="matrix(1 0 0 1 64.26 113.2)" class="st5 st6">Roseomonas</text>
		<text transform="matrix(1 0 0 1 64.35 105.46)" class="st5 st6">Roseomonas</text>
		<rect x="54.6" y="90.9" class="st2" width="115.1" height="9.5"/>
		<text transform="matrix(1 0 0 1 56.5962 97.7219)" class="st7"><tspan x="0" y="0" class="st8 st6">uncultured</tspan><tspan x="37.4" y="0" class="st5 st6"> Alphaproteobacteria</tspan></text>
		<g>
			<text transform="matrix(1 0 0 1 72.61 82.24)" class="st7"><tspan x="0" y="0" class="st5 st6">Rhodobacteraceae </tspan><tspan x="69.8" y="0" class="st8 st6">bacterium</tspan></text>
		</g>
		<text transform="matrix(1 0 0 1 80.6 74.49)" class="st5 st6">Porphyrobacter</text>
		<text transform="matrix(1 0 0 1 84.59 66.75)" class="st5 st6">Novosphingobium</text>
		<text transform="matrix(1 0 0 1 85.3 59.01)" class="st5 st6">Novosphingobium</text>
		<text transform="matrix(1 0 0 1 66.44 89.98)" class="st5 st6">Bosea</text>
		<rect x="58.6" y="137.3" class="st2" width="117.7" height="9.5"/>
		<text transform="matrix(1 0 0 1 60.7246 144.1721)" class="st7"><tspan x="0" y="0" class="st8 st6">uncultured</tspan><tspan x="37.4" y="0" class="st5 st6"> Steroidobacteraceae</tspan></text>
		<text transform="matrix(1 0 0 1 44.52 136.43)" class="st5 st6">Pseudomonas</text>
		<text transform="matrix(1 0 0 1 48.11 128.69)" class="st5 st6">Pseudomonas</text>
		<text transform="matrix(1 0 0 1 45.23 120.94)" class="st5 st6">Pseudomonas</text>
		<rect x="190.6" y="238.1" class="st9" width="40.3" height="7.7"/>
		<rect x="190.6" y="230.3" class="st9" width="40.3" height="7.7"/>
		<rect x="190.6" y="222.6" class="st9" width="40.3" height="7.7"/>
		<rect x="190.6" y="214.9" class="st10" width="40.3" height="7.7"/>
		<rect x="190.6" y="207.1" class="st9" width="40.3" height="7.7"/>
		<rect x="190.6" y="199.4" class="st11" width="40.3" height="7.7"/>
		<rect x="190.6" y="191.6" class="st9" width="40.3" height="7.7"/>
		<rect x="190.6" y="183.9" class="st9" width="40.3" height="7.7"/>
		<rect x="190.6" y="176.1" class="st9" width="40.3" height="7.7"/>
		<rect x="190.6" y="168.4" class="st12" width="40.3" height="7.7"/>
		<rect x="190.6" y="160.7" class="st9" width="40.3" height="7.7"/>
		<rect x="190.6" y="152.9" class="st9" width="40.3" height="7.7"/>
		<rect x="190.6" y="145.2" class="st9" width="40.3" height="7.7"/>
		<rect x="190.6" y="137.4" class="st9" width="40.3" height="7.7"/>
		<rect x="190.6" y="129.7" class="st13" width="40.3" height="7.7"/>
		<rect x="190.6" y="122" class="st14" width="40.3" height="7.7"/>
		<rect x="190.6" y="114.2" class="st15" width="40.3" height="7.7"/>
		<rect x="190.6" y="106.5" class="st9" width="40.3" height="7.7"/>
		<rect x="190.6" y="98.7" class="st9" width="40.3" height="7.7"/>
		<rect x="190.6" y="91" class="st9" width="40.3" height="7.7"/>
		<rect x="190.6" y="83.2" class="st9" width="40.3" height="7.7"/>
		<rect x="190.6" y="75.5" class="st9" width="40.3" height="7.7"/>
		<rect x="190.6" y="67.8" class="st9" width="40.3" height="7.7"/>
		<rect x="190.6" y="60" class="st16" width="40.3" height="7.7"/>
		<rect x="190.6" y="52.3" class="st9" width="40.3" height="7.7"/>
		<rect x="230.8" y="238.1" class="st17" width="40.3" height="7.7"/>
		<rect x="230.8" y="230.3" class="st18" width="40.3" height="7.7"/>
		<rect x="230.8" y="222.6" class="st18" width="40.3" height="7.7"/>
		<rect x="230.8" y="214.9" class="st9" width="40.3" height="7.7"/>
		<rect x="230.8" y="207.1" class="st19" width="40.3" height="7.7"/>
		<rect x="230.8" y="199.4" class="st20" width="40.3" height="7.7"/>
		<rect x="230.8" y="191.6" class="st9" width="40.3" height="7.7"/>
		<rect x="230.8" y="183.9" class="st9" width="40.3" height="7.7"/>
		<rect x="230.8" y="176.1" class="st21" width="40.3" height="7.7"/>
		<rect x="230.8" y="168.4" class="st9" width="40.3" height="7.7"/>
		<rect x="230.8" y="160.7" class="st22" width="40.3" height="7.7"/>
		<rect x="230.8" y="152.9" class="st23" width="40.3" height="7.7"/>
		<rect x="230.8" y="145.2" class="st24" width="40.3" height="7.7"/>
		<rect x="230.8" y="137.4" class="st25" width="40.3" height="7.7"/>
		<rect x="230.8" y="129.7" class="st9" width="40.3" height="7.7"/>
		<rect x="230.8" y="122" class="st9" width="40.3" height="7.7"/>
		<rect x="230.8" y="114.2" class="st9" width="40.3" height="7.7"/>
		<rect x="230.8" y="106.5" class="st9" width="40.3" height="7.7"/>
		<rect x="230.8" y="98.7" class="st26" width="40.3" height="7.7"/>
		<rect x="230.8" y="91" class="st27" width="40.3" height="7.7"/>
		<rect x="230.8" y="83.2" class="st28" width="40.3" height="7.7"/>
		<rect x="230.8" y="75.5" class="st29" width="40.3" height="7.7"/>
		<rect x="230.8" y="67.8" class="st15" width="40.3" height="7.7"/>
		<rect x="230.8" y="60" class="st9" width="40.3" height="7.7"/>
		<rect x="230.8" y="52.3" class="st17" width="40.3" height="7.7"/>
		<rect x="271.1" y="238.1" class="st30" width="40.3" height="7.7"/>
		<rect x="271.1" y="230.3" class="st9" width="40.3" height="7.7"/>
		<rect x="271.1" y="222.6" class="st9" width="40.3" height="7.7"/>
		<rect x="271.1" y="214.9" class="st9" width="40.3" height="7.7"/>
		<rect x="271.1" y="207.1" class="st31" width="40.3" height="7.7"/>
		<rect x="271.1" y="199.4" class="st32" width="40.3" height="7.7"/>
		<rect x="271.1" y="191.6" class="st9" width="40.3" height="7.7"/>
		<rect x="271.1" y="183.9" class="st9" width="40.3" height="7.7"/>
		<rect x="271.1" y="176.1" class="st33" width="40.3" height="7.7"/>
		<rect x="271.1" y="168.4" class="st9" width="40.3" height="7.7"/>
		<rect x="271.1" y="160.7" class="st34" width="40.3" height="7.7"/>
		<rect x="271.1" y="152.9" class="st17" width="40.3" height="7.7"/>
		<rect x="271.1" y="145.2" class="st35" width="40.3" height="7.7"/>
		<rect x="271.1" y="137.4" class="st27" width="40.3" height="7.7"/>
		<rect x="271.1" y="129.7" class="st9" width="40.3" height="7.7"/>
		<rect x="271.1" y="122" class="st9" width="40.3" height="7.7"/>
		<rect x="271.1" y="114.2" class="st9" width="40.3" height="7.7"/>
		<rect x="271.1" y="106.5" class="st25" width="40.3" height="7.7"/>
		<rect x="271.1" y="98.7" class="st25" width="40.3" height="7.7"/>
		<rect x="271.1" y="91" class="st9" width="40.3" height="7.7"/>
		<rect x="271.1" y="83.2" class="st9" width="40.3" height="7.7"/>
		<rect x="271.1" y="75.5" class="st36" width="40.3" height="7.7"/>
		<rect x="271.1" y="67.8" class="st9" width="40.3" height="7.7"/>
		<rect x="271.1" y="60" class="st9" width="40.3" height="7.7"/>
		<rect x="271.1" y="52.3" class="st37" width="40.3" height="7.7"/>
		<rect x="311.4" y="238.1" class="st38" width="40.3" height="7.7"/>
		<rect x="311.4" y="230.3" class="st9" width="40.3" height="7.7"/>
		<rect x="311.4" y="222.6" class="st9" width="40.3" height="7.7"/>
		<rect x="311.4" y="214.9" class="st9" width="40.3" height="7.7"/>
		<rect x="311.4" y="207.1" class="st39" width="40.3" height="7.7"/>
		<rect x="311.4" y="199.4" class="st40" width="40.3" height="7.7"/>
		<rect x="311.4" y="191.6" class="st9" width="40.3" height="7.7"/>
		<rect x="311.4" y="183.9" class="st9" width="40.3" height="7.7"/>
		<rect x="311.4" y="176.1" class="st41" width="40.3" height="7.7"/>
		<rect x="311.4" y="168.4" class="st9" width="40.3" height="7.7"/>
		<rect x="311.4" y="160.7" class="st42" width="40.3" height="7.7"/>
		<rect x="311.4" y="152.9" class="st39" width="40.3" height="7.7"/>
		<rect x="311.4" y="145.2" class="st43" width="40.3" height="7.7"/>
		<rect x="311.4" y="137.4" class="st28" width="40.3" height="7.7"/>
		<rect x="311.4" y="129.7" class="st9" width="40.3" height="7.7"/>
		<rect x="311.4" y="122" class="st9" width="40.3" height="7.7"/>
		<rect x="311.4" y="114.2" class="st9" width="40.3" height="7.7"/>
		<rect x="311.4" y="106.5" class="st9" width="40.3" height="7.7"/>
		<rect x="311.4" y="98.7" class="st24" width="40.3" height="7.7"/>
		<rect x="311.4" y="91" class="st9" width="40.3" height="7.7"/>
		<rect x="311.4" y="83.2" class="st9" width="40.3" height="7.7"/>
		<rect x="311.4" y="75.5" class="st44" width="40.3" height="7.7"/>
		<rect x="311.4" y="67.8" class="st9" width="40.3" height="7.7"/>
		<rect x="311.4" y="60" class="st44" width="40.3" height="7.7"/>
		<rect x="311.4" y="52.3" class="st26" width="40.3" height="7.7"/>
		<rect x="351.7" y="238.1" class="st45" width="40.3" height="7.7"/>
		<rect x="351.7" y="230.3" class="st9" width="40.3" height="7.7"/>
		<rect x="351.7" y="222.6" class="st9" width="40.3" height="7.7"/>
		<rect x="351.7" y="214.9" class="st9" width="40.3" height="7.7"/>
		<rect x="351.7" y="207.1" class="st46" width="40.3" height="7.7"/>
		<rect x="351.7" y="199.4" class="st9" width="40.3" height="7.7"/>
		<rect x="351.7" y="191.6" class="st47" width="40.3" height="7.7"/>
		<rect x="351.7" y="183.9" class="st48" width="40.3" height="7.7"/>
		<rect x="351.7" y="176.1" class="st43" width="40.3" height="7.7"/>
		<rect x="351.7" y="168.4" class="st9" width="40.3" height="7.7"/>
		<rect x="351.7" y="160.7" class="st49" width="40.3" height="7.7"/>
		<rect x="351.7" y="152.9" class="st13" width="40.3" height="7.7"/>
		<rect x="351.7" y="145.2" class="st50" width="40.3" height="7.7"/>
		<rect x="351.7" y="137.4" class="st26" width="40.3" height="7.7"/>
		<rect x="351.7" y="129.7" class="st9" width="40.3" height="7.7"/>
		<rect x="351.7" y="122" class="st9" width="40.3" height="7.7"/>
		<rect x="351.7" y="114.2" class="st9" width="40.3" height="7.7"/>
		<rect x="351.7" y="106.5" class="st51" width="40.3" height="7.7"/>
		<rect x="351.7" y="98.7" class="st52" width="40.3" height="7.7"/>
		<rect x="351.7" y="91" class="st15" width="40.3" height="7.7"/>
		<rect x="351.7" y="83.2" class="st15" width="40.3" height="7.7"/>
		<rect x="351.7" y="75.5" class="st44" width="40.3" height="7.7"/>
		<rect x="351.7" y="67.8" class="st53" width="40.3" height="7.7"/>
		<rect x="351.7" y="60" class="st54" width="40.3" height="7.7"/>
		<rect x="351.7" y="52.3" class="st44" width="40.3" height="7.7"/>
		<rect x="392" y="238.1" class="st55" width="40.3" height="7.7"/>
		<rect x="392" y="230.3" class="st9" width="40.3" height="7.7"/>
		<rect x="392" y="222.6" class="st9" width="40.3" height="7.7"/>
		<rect x="392" y="214.9" class="st9" width="40.3" height="7.7"/>
		<rect x="392" y="207.1" class="st56" width="40.3" height="7.7"/>
		<rect x="392" y="199.4" class="st9" width="40.3" height="7.7"/>
		<rect x="392" y="191.6" class="st57" width="40.3" height="7.7"/>
		<rect x="392" y="183.9" class="st9" width="40.3" height="7.7"/>
		<rect x="392" y="176.1" class="st58" width="40.3" height="7.7"/>
		<rect x="392" y="168.4" class="st9" width="40.3" height="7.7"/>
		<rect x="392" y="160.7" class="st59" width="40.3" height="7.7"/>
		<rect x="392" y="152.9" class="st9" width="40.3" height="7.7"/>
		<rect x="392" y="145.2" class="st9" width="40.3" height="7.7"/>
		<rect x="392" y="137.4" class="st15" width="40.3" height="7.7"/>
		<rect x="392" y="129.7" class="st9" width="40.3" height="7.7"/>
		<rect x="392" y="122" class="st9" width="40.3" height="7.7"/>
		<rect x="392" y="114.2" class="st9" width="40.3" height="7.7"/>
		<rect x="392" y="106.5" class="st60" width="40.3" height="7.7"/>
		<rect x="392" y="98.7" class="st61" width="40.3" height="7.7"/>
		<rect x="392" y="91" class="st9" width="40.3" height="7.7"/>
		<rect x="392" y="83.2" class="st9" width="40.3" height="7.7"/>
		<rect x="392" y="75.5" class="st62" width="40.3" height="7.7"/>
		<rect x="392" y="67.8" class="st9" width="40.3" height="7.7"/>
		<rect x="392" y="60" class="st27" width="40.3" height="7.7"/>
		<rect x="392" y="52.3" class="st63" width="40.3" height="7.7"/>
	</g>
</g>
<g>
	<defs>
		<rect id="SVGID_00000091708483378762121850000010452181179387865531_" y="0" width="453.5" height="283.5"/>
	</defs>
	<clipPath id="SVGID_00000101098194808242180320000003151968495577028276_">
		<use xlink:href="#SVGID_00000091708483378762121850000010452181179387865531_"  style="overflow:visible;"/>
	</clipPath>
	<g style="clip-path:url(#SVGID_00000101098194808242180320000003151968495577028276_);">
		<line class="st65" x1="2.8" y1="253.6" x2="452.7" y2="253.6"/>
		<line class="st66" x1="23.3" y1="255.6" x2="23.3" y2="253.6"/>
		<line class="st66" x1="40.1" y1="255.6" x2="40.1" y2="253.6"/>
		<line class="st66" x1="56.9" y1="255.6" x2="56.9" y2="253.6"/>
		<line class="st66" x1="73.7" y1="255.6" x2="73.7" y2="253.6"/>
		<line class="st66" x1="90.5" y1="255.6" x2="90.5" y2="253.6"/>
		<line class="st66" x1="107.3" y1="255.6" x2="107.3" y2="253.6"/>
		<line class="st66" x1="124.2" y1="255.6" x2="124.2" y2="253.6"/>
		<line class="st66" x1="210.7" y1="255.6" x2="210.7" y2="253.6"/>
		<line class="st66" x1="251" y1="255.6" x2="251" y2="253.6"/>
		<line class="st66" x1="291.3" y1="255.6" x2="291.3" y2="253.6"/>
		<line class="st66" x1="331.5" y1="255.6" x2="331.5" y2="253.6"/>
		<line class="st66" x1="371.8" y1="255.6" x2="371.8" y2="253.6"/>
		<line class="st66" x1="412.1" y1="255.6" x2="412.1" y2="253.6"/>
		<rect x="21.1" y="256" class="st2" width="4.4" height="9.5"/>
		<text transform="matrix(1 0 0 1 21.0654 262.8801)" class="st8 st6">0</text>
		<text transform="matrix(1 0 0 1 34.5395 262.88)" class="st8 st6">0.1</text>
		<text transform="matrix(1 0 0 1 51.3595 262.88)" class="st8 st6">0.2</text>
		<text transform="matrix(1 0 0 1 68.1695 262.88)" class="st8 st6">0.3</text>
		<text transform="matrix(1 0 0 1 84.9795 262.88)" class="st8 st6">0.4</text>
		<text transform="matrix(1 0 0 1 101.7895 262.88)" class="st8 st6">0.5</text>
		<text transform="matrix(1 0 0 1 118.6095 262.88)" class="st8 st6">0.6</text>
		<rect x="192.1" y="256" class="st2" width="34.7" height="9.5"/>
		<text transform="matrix(1 0 0 1 192.0699 262.8801)" class="st8 st6">LE17-020</text>
		<rect x="199.4" y="264.7" class="st2" width="24.9" height="9.5"/>
		<text transform="matrix(1 0 0 1 199.3521 271.5202)" class="st7"><tspan x="0" y="0" class="st8 st6">(seed</tspan><tspan x="22.2" y="0" class="st8 st6">)</tspan></text>
		<rect x="230.3" y="256" class="st2" width="41.4" height="9.5"/>
		<text transform="matrix(1 0 0 1 230.2866 262.8801)" class="st8 st6">LE19-196.1</text>
		<rect x="239.6" y="264.7" class="st2" width="24.9" height="9.5"/>
		<text transform="matrix(1 0 0 1 239.6323 271.5202)" class="st7"><tspan x="0" y="0" class="st8 st6">(seed</tspan><tspan x="22.2" y="0" class="st8 st6">)</tspan></text>
		<rect x="271.7" y="256" class="st2" width="39.1" height="9.5"/>
		<text transform="matrix(1 0 0 1 272.8046 262.8801)" class="st8 st6">PCC 7806</text>
		<text transform="matrix(1 0 0 1 278.5881 271.52)" class="st7"><tspan x="0" y="0" class="st8 st6">Δ</tspan><tspan x="5.3" y="0" class="st5 st6">mcyB</tspan></text>
		<text transform="matrix(1 0 0 1 313.0849 262.88)" class="st8 st6">PCC 7806</text>
		<text transform="matrix(1 0 0 1 353.3649 262.88)" class="st8 st6">PCC 9701</text>
		<text transform="matrix(1 0 0 1 394.7582 262.88)" class="st8 st6">NIES-843</text>
		<rect x="53.6" y="265.3" class="st2" width="52" height="9.5"/>
		<text transform="matrix(1 0 0 1 53.6198 272.1765)" class="st7"><tspan x="0" y="0" class="st8 st6">Branch</tspan><tspan x="25.3" y="0" class="st8 st6"> </tspan><tspan x="27.6" y="0" class="st8 st6">Length</tspan></text>
		<rect x="141.9" y="1.4" class="st0" width="171.8" height="35.2"/>
		
			<image style="overflow:visible;enable-background:new    ;" width="300" height="1" xlink:href="8F47E0CA65239F96.png"  transform="matrix(0.288 0 0 17.28 223.26 5.4)">
		</image>
		<text transform="matrix(1 0 0 1 218.9615 31.25)" class="st8 st67">0.0</text>
		<text transform="matrix(1 0 0 1 245.4416 31.25)" class="st8 st67">0.1</text>
		<text transform="matrix(1 0 0 1 271.9316 31.25)" class="st8 st67">0.2</text>
		<text transform="matrix(1 0 0 1 298.4216 31.25)" class="st8 st67">0.3</text>
		<rect x="137" y="1.9" class="st2" width="73.4" height="9.5"/>
		<text transform="matrix(1 0 0 1 136.98 8.7868)" class="st7"><tspan x="0" y="0" class="st8 st6">Relative</tspan><tspan x="28.9" y="0" class="st8 st6 st68"> </tspan><tspan x="32.9" y="0" class="st8 st6">Abundance</tspan></text>
		<rect x="137" y="10.6" class="st2" width="53.8" height="9.5"/>
		<text transform="matrix(1 0 0 1 136.98 17.4265)" class="st8 st6">(within column)</text>
		<line class="st69" x1="223.4" y1="22.7" x2="223.4" y2="19.2"/>
		<line class="st69" x1="249.9" y1="22.7" x2="249.9" y2="19.2"/>
		<line class="st69" x1="276.4" y1="22.7" x2="276.4" y2="19.2"/>
		<line class="st69" x1="302.9" y1="22.7" x2="302.9" y2="19.2"/>
		<line class="st69" x1="223.4" y1="8.9" x2="223.4" y2="5.4"/>
		<line class="st69" x1="249.9" y1="8.9" x2="249.9" y2="5.4"/>
		<line class="st69" x1="276.4" y1="8.9" x2="276.4" y2="5.4"/>
		<line class="st69" x1="302.9" y1="8.9" x2="302.9" y2="5.4"/>
	</g>
</g>
<text transform="matrix(1 0 0 1 2.84 12.6833)" class="st8 st70">[A]</text>
<rect y="283.5" class="st0" width="453.5" height="283.5"/>
<g>
	<defs>
		<rect id="SVGID_00000062155460984753351460000014343401601042119821_" y="283.5" width="453.5" height="283.5"/>
	</defs>
	<clipPath id="SVGID_00000182527921171113052670000010602146631525843379_">
		<use xlink:href="#SVGID_00000062155460984753351460000014343401601042119821_"  style="overflow:visible;"/>
	</clipPath>
	<g style="clip-path:url(#SVGID_00000182527921171113052670000010602146631525843379_);">
		<rect y="283.5" class="st72" width="453.5" height="283.5"/>
	</g>
</g>
<g>
	<defs>
		<rect id="SVGID_00000057119030361690309040000015658744312511466904_" x="53.6" y="299.1" width="393.6" height="241"/>
	</defs>
	<clipPath id="SVGID_00000050639507965619033100000010525458546298411966_">
		<use xlink:href="#SVGID_00000057119030361690309040000015658744312511466904_"  style="overflow:visible;"/>
	</clipPath>
</g>
<g>
	<defs>
		<rect id="SVGID_00000021822739011518675810000016303609802517490098_" y="283.5" width="453.5" height="283.5"/>
	</defs>
	<clipPath id="SVGID_00000055689990006655250430000013716735767765210540_">
		<use xlink:href="#SVGID_00000021822739011518675810000016303609802517490098_"  style="overflow:visible;"/>
	</clipPath>
</g>
<g>
	<defs>
		<rect id="SVGID_00000018239522061211677910000007763308464275126436_" x="5.5" y="288.9" width="442.6" height="272.5"/>
	</defs>
	<clipPath id="SVGID_00000010287630116374501220000010938815431197845427_">
		<use xlink:href="#SVGID_00000018239522061211677910000007763308464275126436_"  style="overflow:visible;"/>
	</clipPath>
	<g style="clip-path:url(#SVGID_00000010287630116374501220000010938815431197845427_);">
		<rect x="5.5" y="288.9" class="st74" width="442.6" height="272.5"/>
	</g>
</g>
<g>
	<defs>
		<rect id="SVGID_00000066487918131633420290000005876069696652437144_" y="283.5" width="453.5" height="283.5"/>
	</defs>
	<clipPath id="SVGID_00000051352377407262345450000009093687342763579264_">
		<use xlink:href="#SVGID_00000066487918131633420290000005876069696652437144_"  style="overflow:visible;"/>
	</clipPath>
</g>
<g>
	<defs>
		<rect id="SVGID_00000080926076828107627950000015033297293261170855_" x="53.6" y="299.1" width="393.6" height="241"/>
	</defs>
	<clipPath id="SVGID_00000040576972296515839450000007876977038230070707_">
		<use xlink:href="#SVGID_00000080926076828107627950000015033297293261170855_"  style="overflow:visible;"/>
	</clipPath>
	<g style="clip-path:url(#SVGID_00000040576972296515839450000007876977038230070707_);">
		<rect x="53.6" y="299.1" class="st0" width="393.6" height="241"/>
		<text transform="matrix(1 0 0 1 194.9324 493.03)" class="st7"><tspan x="0" y="0" class="st8 st6" style="fill:#66CD00;">PCC 7806 Δ</tspan><tspan x="44.5" y="0" class="st5 st6" style="fill:#66CD00;">mcyB</tspan></text>
		<text transform="matrix(1 0 0 1 206.8682 453.96)" class="st8 st6" style="fill:#00CDCD;">NIES-843</text>
		<text transform="matrix(1 0 0 1 206.5049 316.1)" class="st8 st6" style="fill:#CD950C;">PCC 9701</text>
		<text transform="matrix(1 0 0 1 209.0049 508)" class="st8 st6" style="fill:#CD2626;">PCC 7806</text>
		<text transform="matrix(1 0 0 1 206.6864 336.7)" class="st8 st6" style="fill:#666666;">LE19-196.1</text>
		<rect x="216" y="341.4" class="st2" width="24.9" height="9.5"/>
		<text transform="matrix(1 0 0 1 216.0322 348.22)" class="st7"><tspan x="0" y="0" class="st8 st6" style="fill:#666666;">(seed</tspan><tspan x="22.2" y="0" class="st8 st6" style="fill:#666666;">)</tspan></text>
		<text transform="matrix(1 0 0 1 354.2023 415.83)" class="st8 st6" style="fill:#666666;">LE17-020</text>
		<rect x="360.2" y="420.5" class="st2" width="24.9" height="9.5"/>
		<text transform="matrix(1 0 0 1 360.2119 427.3499)" class="st7"><tspan x="0" y="0" class="st8 st6" style="fill:#666666;">(seed</tspan><tspan x="22.2" y="0" class="st8 st6" style="fill:#666666;">)</tspan></text>
	</g>
</g>
<g>
	<defs>
		<rect id="SVGID_00000116922230460300739870000009255709149500005303_" y="283.5" width="453.5" height="283.5"/>
	</defs>
	<clipPath id="SVGID_00000181049510144889954290000009596399207538046124_">
		<use xlink:href="#SVGID_00000116922230460300739870000009255709149500005303_"  style="overflow:visible;"/>
	</clipPath>
	<g style="clip-path:url(#SVGID_00000181049510144889954290000009596399207538046124_);">
		<line class="st65" x1="53.6" y1="540.2" x2="53.6" y2="299.1"/>
		<rect x="27.3" y="525.2" class="st2" width="22.7" height="9.5"/>
		<text transform="matrix(1 0 0 1 27.3462 532.0901)" class="st8 st6">-0.010</text>
		<rect x="27.3" y="470.4" class="st2" width="22.7" height="9.5"/>
		<text transform="matrix(1 0 0 1 27.3462 477.3098)" class="st8 st6">-0.005</text>
		<rect x="30" y="415.7" class="st2" width="20" height="9.5"/>
		<text transform="matrix(1 0 0 1 30.0102 422.53)" class="st8 st6">0.000</text>
		<rect x="30" y="360.9" class="st2" width="20" height="9.5"/>
		<text transform="matrix(1 0 0 1 30.0102 367.7502)" class="st8 st6">0.005</text>
		<rect x="30" y="306.1" class="st2" width="20" height="9.5"/>
		<text transform="matrix(1 0 0 1 30.0102 312.97)" class="st8 st6">0.010</text>
		<line class="st66" x1="51.6" y1="529.2" x2="53.6" y2="529.2"/>
		<line class="st66" x1="51.6" y1="474.5" x2="53.6" y2="474.5"/>
		<line class="st66" x1="51.6" y1="419.7" x2="53.6" y2="419.7"/>
		<line class="st66" x1="51.6" y1="364.9" x2="53.6" y2="364.9"/>
		<line class="st66" x1="51.6" y1="310.1" x2="53.6" y2="310.1"/>
		<line class="st65" x1="53.6" y1="540.2" x2="447.2" y2="540.2"/>
		<line class="st66" x1="131.1" y1="542.2" x2="131.1" y2="540.2"/>
		<line class="st66" x1="250.4" y1="542.2" x2="250.4" y2="540.2"/>
		<line class="st66" x1="369.7" y1="542.2" x2="369.7" y2="540.2"/>
		<text transform="matrix(1 0 0 1 127.5834 549.4999)" class="st8 st6">-1</text>
		<rect x="248.2" y="542.6" class="st2" width="4.4" height="9.5"/>
		<text transform="matrix(1 0 0 1 248.1953 549.5002)" class="st8 st6">0</text>
		<rect x="367.5" y="542.6" class="st2" width="4.4" height="9.5"/>
		<text transform="matrix(1 0 0 1 367.4658 549.5002)" class="st8 st6">1</text>
		<text transform="matrix(1 0 0 1 239.3067 558.91)" class="st8 st6">MDS1</text>
		<text transform="matrix(6.123234e-17 -1 1 6.123234e-17 23.67 430.7834)" class="st8 st6">MDS2</text>
		<text transform="matrix(1 0 0 1 6.3224 298.15)" class="st8 st70">[B]</text>
	</g>
</g>
</svg>
