<?xml version="1.0" encoding="utf-8"?>
<!-- Generator: Adobe Illustrator 27.5.0, SVG Export Plug-In . SVG Version: 6.00 Build 0)  -->
<svg version="1.1" id="Layer_1" xmlns="http://www.w3.org/2000/svg" xmlns:xlink="http://www.w3.org/1999/xlink" x="0px" y="0px"
	 viewBox="0 0 453.5 708.7" style="enable-background:new 0 0 453.5 708.7;" xml:space="preserve">
<style type="text/css">
	.st0{fill:none;}
	.st1{clip-path:url(#SVGID_00000165922073640623648790000012861827591090890630_);}
	.st2{fill:#FFFFFF;stroke:#FFFFFF;stroke-width:0.78;stroke-linecap:round;stroke-linejoin:round;stroke-miterlimit:10;}
	.st3{clip-path:url(#SVGID_00000099634469327059308210000003541214943533478035_);}
	.st4{fill:#FFFFFF;}
	.st5{fill:#C1FFC1;}
	.st6{fill:#228B22;}
	.st7{font-family:'ArialMT';}
	.st8{font-size:22.76px;}
	.st9{fill:none;stroke:#000000;stroke-width:1.07;stroke-linejoin:round;stroke-miterlimit:10;}
	.st10{fill:none;stroke:#000000;stroke-width:1.49;stroke-linecap:round;stroke-linejoin:round;stroke-miterlimit:10;}
	.st11{clip-path:url(#SVGID_00000157995601711594210620000003063091926397324937_);}
	.st12{font-size:8px;}
	.st13{fill:none;stroke:#333333;stroke-width:0.78;stroke-linejoin:round;stroke-miterlimit:10;}
	.st14{font-family:'Arial-ItalicMT';}
	.st15{font-size:5.6px;}
	.st16{font-family:'Symbol';}
	.st17{font-size:10px;}
	.st18{font-family:'Arial-BoldMT';}
	.st19{font-size:9.5px;}
	.st20{clip-path:url(#SVGID_00000067954391834580368410000010306878008774672546_);}
	.st21{clip-path:url(#SVGID_00000127758560337940547110000003853124764044846989_);}
	.st22{clip-path:url(#SVGID_00000112623594530686710980000017798825101907283853_);}
	.st23{clip-path:url(#SVGID_00000000902712828165118210000017754344870740549257_);}
	.st24{clip-path:url(#SVGID_00000078751814145364607810000010251062234270063019_);}
	.st25{clip-path:url(#SVGID_00000103963906455882880790000013636238454089647759_);}
	.st26{clip-path:url(#SVGID_00000131329636048515210130000006210347192544709019_);}
	.st27{clip-path:url(#SVGID_00000036960703276336546000000014119668636357579655_);}
	.st28{clip-path:url(#SVGID_00000021819735800798765470000016267391087203311028_);}
	.st29{enable-background:new    ;}
	.st30{clip-path:url(#SVGID_00000094580451390475691930000004760376988591763095_);}
	.st31{clip-path:url(#SVGID_00000127741780918457451260000012446178742676260758_);}
	.st32{font-size:23.5695px;}
	.st33{clip-path:url(#SVGID_00000139255687716300900960000012802069252049340067_);}
	.st34{clip-path:url(#SVGID_00000146490760705740582050000000709334327910265790_);}
	.st35{clip-path:url(#SVGID_00000150100450754008783500000008301428833498392196_);}
	.st36{clip-path:url(#SVGID_00000160155744432340652180000015298077849435345823_);}
	.st37{font-size:6.4px;}
	.st38{font-size:12px;}
</style>
<rect y="0" class="st0" width="453.5" height="708.7"/>
<g>
	<g>
		<g>
			<defs>
				<rect id="SVGID_1_" y="0" width="151.2" height="341.7"/>
			</defs>
			<clipPath id="SVGID_00000081641170601424720770000005685644647789754273_">
				<use xlink:href="#SVGID_1_"  style="overflow:visible;"/>
			</clipPath>
			<g style="clip-path:url(#SVGID_00000081641170601424720770000005685644647789754273_);">
				<rect y="0" class="st2" width="151.2" height="341.7"/>
			</g>
		</g>
	</g>
</g>
<g>
	<g>
		<g>
			<defs>
				<rect id="SVGID_00000160888242279258231490000008448563992820874383_" x="29.7" y="1.4" width="120.6" height="280.8"/>
			</defs>
			<clipPath id="SVGID_00000176760693254344978880000004535629908608822438_">
				<use xlink:href="#SVGID_00000160888242279258231490000008448563992820874383_"  style="overflow:visible;"/>
			</clipPath>
			<g style="clip-path:url(#SVGID_00000176760693254344978880000004535629908608822438_);">
				<rect x="29.7" y="1.4" class="st4" width="120.6" height="280.8"/>
				<rect x="29.7" y="118.7" class="st5" width="13.9" height="163.5"/>
				<rect x="43.6" y="244.7" class="st6" width="13.9" height="37.6"/>
				<rect x="60.6" y="151" class="st5" width="13.9" height="131.2"/>
				<rect x="74.6" y="246.6" class="st6" width="13.9" height="35.6"/>
				<rect x="91.6" y="89.7" class="st5" width="13.9" height="192.5"/>
				<rect x="105.5" y="207" class="st6" width="13.9" height="75.2"/>
				<rect x="122.5" y="73" class="st5" width="13.9" height="209.2"/>
				<rect x="136.4" y="213.9" class="st6" width="13.9" height="68.3"/>
				<rect x="47.2" y="215.5" class="st0" width="8.9" height="26.9"/>
				<text transform="matrix(1 0 0 1 47.2352 234.9969)" class="st7 st8">*</text>
				<rect x="140" y="179.5" class="st0" width="8.9" height="26.9"/>
				<text transform="matrix(1 0 0 1 139.9977 199.0186)" class="st7 st8">*</text>
				<line class="st9" x1="33.6" y1="62.4" x2="39.8" y2="62.4"/>
				<line class="st9" x1="36.7" y1="62.4" x2="36.7" y2="175.1"/>
				<line class="st9" x1="33.6" y1="175.1" x2="39.8" y2="175.1"/>
				<line class="st9" x1="47.5" y1="230.4" x2="53.7" y2="230.4"/>
				<line class="st9" x1="50.6" y1="230.4" x2="50.6" y2="258.9"/>
				<line class="st9" x1="47.5" y1="258.9" x2="53.7" y2="258.9"/>
				<line class="st9" x1="64.5" y1="103.8" x2="70.7" y2="103.8"/>
				<line class="st9" x1="67.6" y1="103.8" x2="67.6" y2="198.3"/>
				<line class="st9" x1="64.5" y1="198.3" x2="70.7" y2="198.3"/>
				<line class="st9" x1="78.4" y1="231" x2="84.6" y2="231"/>
				<line class="st9" x1="81.5" y1="231" x2="81.5" y2="262.3"/>
				<line class="st9" x1="78.4" y1="262.3" x2="84.6" y2="262.3"/>
				<line class="st9" x1="95.4" y1="26.3" x2="101.6" y2="26.3"/>
				<line class="st9" x1="98.5" y1="26.3" x2="98.5" y2="153.1"/>
				<line class="st9" x1="95.4" y1="153.1" x2="101.6" y2="153.1"/>
				<line class="st9" x1="109.3" y1="184.9" x2="115.5" y2="184.9"/>
				<line class="st9" x1="112.4" y1="184.9" x2="112.4" y2="229.1"/>
				<line class="st9" x1="109.3" y1="229.1" x2="115.5" y2="229.1"/>
				<line class="st9" x1="126.4" y1="20.7" x2="132.6" y2="20.7"/>
				<line class="st9" x1="129.4" y1="20.7" x2="129.4" y2="125.3"/>
				<line class="st9" x1="126.4" y1="125.3" x2="132.6" y2="125.3"/>
				<line class="st9" x1="140.3" y1="197.1" x2="146.5" y2="197.1"/>
				<line class="st9" x1="143.4" y1="197.1" x2="143.4" y2="230.7"/>
				<line class="st9" x1="140.3" y1="230.7" x2="146.5" y2="230.7"/>
				<rect x="29.7" y="1.4" class="st10" width="120.6" height="280.8"/>
			</g>
		</g>
	</g>
</g>
<g>
	<g>
		<g>
			<defs>
				<rect id="SVGID_00000008840285167928799640000015616003466544097410_" y="0" width="453.5" height="708.7"/>
			</defs>
			<clipPath id="SVGID_00000154397854909105263320000002022485786256856716_">
				<use xlink:href="#SVGID_00000008840285167928799640000015616003466544097410_"  style="overflow:visible;"/>
			</clipPath>
			<g style="clip-path:url(#SVGID_00000154397854909105263320000002022485786256856716_);">
				<rect x="21.7" y="278.2" class="st0" width="4.4" height="9.5"/>
				<text transform="matrix(1 0 0 1 21.6709 285.0998)" class="st7 st12">0</text>
				<rect x="12.8" y="222" class="st0" width="13.4" height="9.5"/>
				<text transform="matrix(1 0 0 1 12.7725 228.8298)" class="st7 st12">100</text>
				<rect x="12.8" y="165.7" class="st0" width="13.4" height="9.5"/>
				<text transform="matrix(1 0 0 1 12.7725 172.55)" class="st7 st12">200</text>
				<rect x="12.8" y="109.4" class="st0" width="13.4" height="9.5"/>
				<text transform="matrix(1 0 0 1 12.7725 116.2702)" class="st7 st12">300</text>
				<rect x="12.8" y="53.1" class="st0" width="13.4" height="9.5"/>
				<text transform="matrix(1 0 0 1 12.7725 60.0002)" class="st7 st12">400</text>
				<line class="st13" x1="27.7" y1="282.2" x2="29.7" y2="282.2"/>
				<line class="st13" x1="27.7" y1="226" x2="29.7" y2="226"/>
				<line class="st13" x1="27.7" y1="169.7" x2="29.7" y2="169.7"/>
				<line class="st13" x1="27.7" y1="113.4" x2="29.7" y2="113.4"/>
				<line class="st13" x1="27.7" y1="57.1" x2="29.7" y2="57.1"/>
				<line class="st13" x1="43.6" y1="284.2" x2="43.6" y2="282.2"/>
				<line class="st13" x1="74.6" y1="284.2" x2="74.6" y2="282.2"/>
				<line class="st13" x1="105.5" y1="284.2" x2="105.5" y2="282.2"/>
				<line class="st13" x1="136.4" y1="284.2" x2="136.4" y2="282.2"/>
				
					<rect x="28.7" y="312" transform="matrix(0.3421 -0.9397 0.9397 0.3421 -272.9005 243.7759)" class="st0" width="17.8" height="9.5"/>
				
					<rect x="67.9" y="289.5" transform="matrix(0.3421 -0.9397 0.9397 0.3421 -225.9848 265.7017)" class="st0" width="17.8" height="9.5"/>
				<text transform="matrix(0.342 -0.9397 0.9397 0.342 66.038 322.8016)" class="st7 st12">PCC 7806</text>
				
					<rect x="98.8" y="289.4" transform="matrix(0.3421 -0.9397 0.9397 0.3421 -205.5153 294.6943)" class="st0" width="17.8" height="9.5"/>
				<text transform="matrix(0.342 -0.9397 0.9397 0.342 97.8723 320.9227)" class="st7 st12">PCC 9701</text>
				<text transform="matrix(0.342 -0.9397 0.9397 0.342 127.583 320.8348)" class="st7 st12">NIES-843</text>
				<text transform="matrix(6.123234e-17 -1 1 6.123234e-17 8.81 160.5002)" class="st14 st12">K</text>
				<rect x="5.5" y="151.5" class="st0" width="6.6" height="2.8"/>
				<text transform="matrix(6.123234e-17 -1 1 6.123234e-17 10.2695 154.3098)" class="st7 st15">s</text>
				<text transform="matrix(6.123234e-17 -1 1 6.123234e-17 8.81 149.5099)" class="st16 st17">(</text>
				<rect x="1.9" y="141.6" class="st0" width="9.5" height="4.6"/>
				<text transform="matrix(6.123234e-17 -1 1 6.123234e-17 8.8086 146.1701)" class="st7 st12">μ</text>
				<rect x="1.9" y="137.1" class="st0" width="9.5" height="4.4"/>
				<text transform="matrix(6.123234e-17 -1 1 6.123234e-17 8.8086 141.5598)" class="st7 st12">g L</text>
				<rect x="1.5" y="132.9" class="st0" width="10.1" height="4.2"/>
				<text transform="matrix(6.123234e-17 -1 1 6.123234e-17 4.87 132.6603)" class="st16 st15">−</text>
				<text transform="matrix(6.123234e-17 -1 1 6.123234e-17 4.87 129.5998)" class="st7 st15">1</text>
				<text transform="matrix(6.123234e-17 -1 1 6.123234e-17 8.81 126.4904)" class="st16 st17">)</text>
				<text transform="matrix(1 0 0 1 0 10.25)" class="st18 st19">[A]</text>
			</g>
		</g>
	</g>
</g>
<g>
	<g>
		<g>
			<defs>
				<rect id="SVGID_00000098197606588740955170000008781645177137089468_" x="151.2" y="0" width="151.2" height="341.7"/>
			</defs>
			<clipPath id="SVGID_00000157307021673696944500000011377556848455548586_">
				<use xlink:href="#SVGID_00000098197606588740955170000008781645177137089468_"  style="overflow:visible;"/>
			</clipPath>
			<g style="clip-path:url(#SVGID_00000157307021673696944500000011377556848455548586_);">
				<rect x="151.2" y="0" class="st2" width="151.2" height="341.7"/>
			</g>
		</g>
	</g>
</g>
<g>
	<g>
		<g>
			<defs>
				<rect id="SVGID_00000111177264684407611770000016107708070554232744_" x="178.7" y="1.4" width="122.9" height="280.8"/>
			</defs>
			<clipPath id="SVGID_00000168113711774651360020000002344080926922943408_">
				<use xlink:href="#SVGID_00000111177264684407611770000016107708070554232744_"  style="overflow:visible;"/>
			</clipPath>
			<g style="clip-path:url(#SVGID_00000168113711774651360020000002344080926922943408_);">
				<rect x="178.7" y="1.4" class="st4" width="122.9" height="280.8"/>
				<rect x="178.7" y="23.7" class="st5" width="14.2" height="258.6"/>
				<rect x="192.8" y="77.7" class="st6" width="14.2" height="204.6"/>
				<rect x="210.2" y="30.2" class="st5" width="14.2" height="252"/>
				<rect x="224.3" y="98.2" class="st6" width="14.2" height="184.1"/>
				<rect x="241.7" y="32.8" class="st5" width="14.2" height="249.5"/>
				<rect x="255.8" y="31.9" class="st6" width="14.2" height="250.4"/>
				<rect x="273.2" y="50.3" class="st5" width="14.2" height="231.9"/>
				<rect x="287.3" y="75" class="st6" width="14.2" height="207.2"/>
				<rect x="196" y="48.6" class="st0" width="8.9" height="26.9"/>
				<text transform="matrix(1 0 0 1 196.0001 68.1003)" class="st7 st8">*</text>
				<text transform="matrix(1 0 0 1 223.936 92.06)" class="st7 st8">**</text>
				<line class="st9" x1="182.6" y1="6.4" x2="188.9" y2="6.4"/>
				<line class="st9" x1="185.8" y1="6.4" x2="185.8" y2="40.9"/>
				<line class="st9" x1="182.6" y1="40.9" x2="188.9" y2="40.9"/>
				<line class="st9" x1="196.8" y1="64.7" x2="203.1" y2="64.7"/>
				<line class="st9" x1="199.9" y1="64.7" x2="199.9" y2="90.6"/>
				<line class="st9" x1="196.8" y1="90.6" x2="203.1" y2="90.6"/>
				<line class="st9" x1="214.1" y1="12.9" x2="220.4" y2="12.9"/>
				<line class="st9" x1="217.2" y1="12.9" x2="217.2" y2="47.5"/>
				<line class="st9" x1="214.1" y1="47.5" x2="220.4" y2="47.5"/>
				<line class="st9" x1="228.3" y1="85.2" x2="234.6" y2="85.2"/>
				<line class="st9" x1="231.4" y1="85.2" x2="231.4" y2="111.1"/>
				<line class="st9" x1="228.3" y1="111.1" x2="234.6" y2="111.1"/>
				<line class="st9" x1="245.6" y1="19.8" x2="251.9" y2="19.8"/>
				<line class="st9" x1="248.8" y1="19.8" x2="248.8" y2="45.7"/>
				<line class="st9" x1="245.6" y1="45.7" x2="251.9" y2="45.7"/>
				<line class="st9" x1="259.8" y1="18.9" x2="266.1" y2="18.9"/>
				<line class="st9" x1="262.9" y1="18.9" x2="262.9" y2="44.8"/>
				<line class="st9" x1="259.8" y1="44.8" x2="266.1" y2="44.8"/>
				<line class="st9" x1="277.1" y1="37.4" x2="283.4" y2="37.4"/>
				<line class="st9" x1="280.2" y1="37.4" x2="280.2" y2="63.3"/>
				<line class="st9" x1="277.1" y1="63.3" x2="283.4" y2="63.3"/>
				<line class="st9" x1="291.3" y1="66.4" x2="297.6" y2="66.4"/>
				<line class="st9" x1="294.4" y1="66.4" x2="294.4" y2="83.7"/>
				<line class="st9" x1="291.3" y1="83.7" x2="297.6" y2="83.7"/>
				<rect x="178.7" y="1.4" class="st10" width="122.9" height="280.8"/>
			</g>
		</g>
	</g>
</g>
<g>
	<g>
		<g>
			<defs>
				<rect id="SVGID_00000119113612747655532070000003075969565651275927_" y="0" width="453.5" height="708.7"/>
			</defs>
			<clipPath id="SVGID_00000039852792409379983670000012668171528292619922_">
				<use xlink:href="#SVGID_00000119113612747655532070000003075969565651275927_"  style="overflow:visible;"/>
			</clipPath>
			<g style="clip-path:url(#SVGID_00000039852792409379983670000012668171528292619922_);">
				<text transform="matrix(1 0 0 1 163.9589 285.1)" class="st7 st12">0.0</text>
				<text transform="matrix(1 0 0 1 163.9589 198.7)" class="st7 st12">0.2</text>
				<text transform="matrix(1 0 0 1 163.9589 112.29)" class="st7 st12">0.4</text>
				<text transform="matrix(1 0 0 1 163.9589 25.88)" class="st7 st12">0.6</text>
				<line class="st13" x1="176.7" y1="282.2" x2="178.7" y2="282.2"/>
				<line class="st13" x1="176.7" y1="195.8" x2="178.7" y2="195.8"/>
				<line class="st13" x1="176.7" y1="109.4" x2="178.7" y2="109.4"/>
				<line class="st13" x1="176.7" y1="23" x2="178.7" y2="23"/>
				<line class="st13" x1="192.8" y1="284.2" x2="192.8" y2="282.2"/>
				<line class="st13" x1="224.3" y1="284.2" x2="224.3" y2="282.2"/>
				<line class="st13" x1="255.8" y1="284.2" x2="255.8" y2="282.2"/>
				<line class="st13" x1="287.3" y1="284.2" x2="287.3" y2="282.2"/>
				
					<rect x="177.9" y="312" transform="matrix(0.3421 -0.9397 0.9397 0.3421 -174.746 383.9835)" class="st0" width="17.8" height="9.5"/>
				
					<rect x="217.6" y="289.4" transform="matrix(0.3421 -0.9397 0.9397 0.3421 -127.4213 406.3506)" class="st0" width="17.8" height="9.5"/>
				
					<rect x="249.1" y="289.4" transform="matrix(0.3421 -0.9397 0.9397 0.3421 -106.6953 435.9512)" class="st0" width="17.8" height="9.5"/>
				<text transform="matrix(0.342 -0.9397 0.9397 0.342 279.4721 319.5223)" class="st7 st12">NIES-843</text>
				<text transform="matrix(6.123234e-17 -1 1 6.123234e-17 160 163.4904)" class="st14 st12">μ</text>
				<text transform="matrix(6.123234e-17 -1 1 6.123234e-17 161.45 158.4797)" class="st7 st15">m</text>
				<text transform="matrix(6.123234e-17 -1 1 6.123234e-17 161.45 153.8195)" class="st7 st15">a</text>
				<rect x="156.6" y="147.9" class="st0" width="6.6" height="2.8"/>
				<text transform="matrix(6.123234e-17 -1 1 6.123234e-17 161.4502 150.7101)" class="st7 st15">x</text>
				<text transform="matrix(6.123234e-17 -1 1 6.123234e-17 160 145.9103)" class="st16 st17">(</text>
				<rect x="153.1" y="138.1" class="st0" width="9.5" height="4.4"/>
				<text transform="matrix(6.123234e-17 -1 1 6.123234e-17 159.999 142.5793)" class="st7 st12">d</text>
				<rect x="153.1" y="133.7" class="st0" width="9.5" height="4.4"/>
				<text transform="matrix(6.123234e-17 -1 1 6.123234e-17 159.999 138.1301)" class="st7 st12">a</text>
				<rect x="153.1" y="129.7" class="st0" width="9.5" height="4"/>
				<text transform="matrix(6.123234e-17 -1 1 6.123234e-17 160 133.6799)" class="st7 st12">y</text>
				<text transform="matrix(6.123234e-17 -1 1 6.123234e-17 156.05 129.6799)" class="st16 st15">−</text>
				<text transform="matrix(6.123234e-17 -1 1 6.123234e-17 156.05 126.6096)" class="st7 st15">1</text>
				<text transform="matrix(6.123234e-17 -1 1 6.123234e-17 160 123.5002)" class="st16 st17">)</text>
				<text transform="matrix(1 0 0 1 151.18 10.25)" class="st18 st19">[B]</text>
			</g>
		</g>
	</g>
</g>
<g>
	<g>
		<g>
			<defs>
				<rect id="SVGID_00000072249208917683126570000005243811633656256402_" x="302.4" y="0" width="151.2" height="341.7"/>
			</defs>
			<clipPath id="SVGID_00000121991100671789568840000013003215658481917594_">
				<use xlink:href="#SVGID_00000072249208917683126570000005243811633656256402_"  style="overflow:visible;"/>
			</clipPath>
			<g style="clip-path:url(#SVGID_00000121991100671789568840000013003215658481917594_);">
				<rect x="302.4" y="0" class="st2" width="151.2" height="341.7"/>
			</g>
		</g>
	</g>
</g>
<g>
	<g>
		<g>
			<defs>
				<rect id="SVGID_00000162342894265258202680000013541240273288876473_" x="332.1" y="1.4" width="120.6" height="280.8"/>
			</defs>
			<clipPath id="SVGID_00000067929450007469878720000011069786110183278008_">
				<use xlink:href="#SVGID_00000162342894265258202680000013541240273288876473_"  style="overflow:visible;"/>
			</clipPath>
			<g style="clip-path:url(#SVGID_00000067929450007469878720000011069786110183278008_);">
				<rect x="332.1" y="1.4" class="st4" width="120.6" height="280.8"/>
				<rect x="332.1" y="233.1" class="st5" width="13.9" height="49.1"/>
				<rect x="346" y="200.2" class="st6" width="13.9" height="82.1"/>
				<rect x="363" y="200.4" class="st5" width="13.9" height="81.9"/>
				<rect x="376.9" y="205.8" class="st6" width="13.9" height="76.4"/>
				<rect x="393.9" y="122" class="st5" width="13.9" height="160.2"/>
				<rect x="407.9" y="14.3" class="st6" width="13.9" height="268"/>
				<rect x="424.9" y="191.5" class="st5" width="13.9" height="90.8"/>
				<rect x="438.8" y="188.4" class="st6" width="13.9" height="93.8"/>
				<rect x="332.1" y="1.4" class="st10" width="120.6" height="280.8"/>
			</g>
		</g>
	</g>
</g>
<g>
	<g>
		<g>
			<defs>
				<rect id="SVGID_00000151513056242082059790000001435808028124014780_" y="0" width="453.5" height="708.7"/>
			</defs>
			<clipPath id="SVGID_00000015339947455931722390000001799017368265916057_">
				<use xlink:href="#SVGID_00000151513056242082059790000001435808028124014780_"  style="overflow:visible;"/>
			</clipPath>
			<g style="clip-path:url(#SVGID_00000015339947455931722390000001799017368265916057_);">
				<rect x="324" y="278.2" class="st0" width="4.4" height="9.5"/>
				<text transform="matrix(1 0 0 1 324.0312 285.0998)" class="st7 st12">0</text>
				<rect x="319.6" y="210.2" class="st0" width="8.9" height="9.5"/>
				<text transform="matrix(1 0 0 1 319.582 217.03)" class="st7 st12">40</text>
				<rect x="319.6" y="142.1" class="st0" width="8.9" height="9.5"/>
				<text transform="matrix(1 0 0 1 319.582 148.9499)" class="st7 st12">80</text>
				<rect x="315.1" y="74" class="st0" width="13.4" height="9.5"/>
				<text transform="matrix(1 0 0 1 315.1328 80.8698)" class="st7 st12">120</text>
				<rect x="315.1" y="5.9" class="st0" width="13.4" height="9.5"/>
				<text transform="matrix(1 0 0 1 315.1328 12.7902)" class="st7 st12">160</text>
				<line class="st13" x1="330.1" y1="282.2" x2="332.1" y2="282.2"/>
				<line class="st13" x1="330.1" y1="214.2" x2="332.1" y2="214.2"/>
				<line class="st13" x1="330.1" y1="146.1" x2="332.1" y2="146.1"/>
				<line class="st13" x1="330.1" y1="78" x2="332.1" y2="78"/>
				<line class="st13" x1="330.1" y1="9.9" x2="332.1" y2="9.9"/>
				<line class="st13" x1="346" y1="284.2" x2="346" y2="282.2"/>
				<line class="st13" x1="376.9" y1="284.2" x2="376.9" y2="282.2"/>
				<line class="st13" x1="407.9" y1="284.2" x2="407.9" y2="282.2"/>
				<line class="st13" x1="438.8" y1="284.2" x2="438.8" y2="282.2"/>
				
					<rect x="331.1" y="311.9" transform="matrix(0.3421 -0.9397 0.9397 0.3421 -73.9017 527.8156)" class="st0" width="17.8" height="9.5"/>
				
					<rect x="370.2" y="289.4" transform="matrix(0.3421 -0.9397 0.9397 0.3421 -26.9859 549.7415)" class="st0" width="17.8" height="9.5"/>
				
					<rect x="401.1" y="289.4" transform="matrix(0.3421 -0.9397 0.9397 0.3421 -6.6983 578.79)" class="st0" width="17.8" height="9.5"/>
				<text transform="matrix(0.342 -0.9397 0.9397 0.342 431.9042 320.0194)" class="st7 st12">NIES-843</text>
				<text transform="matrix(6.123234e-17 -1 1 6.123234e-17 311.18 169.3801)" class="st14 st12">Q</text>
				<text transform="matrix(6.123234e-17 -1 1 6.123234e-17 312.63 162.2902)" class="st7 st15">N</text>
				<text transform="matrix(6.123234e-17 -1 1 6.123234e-17 311.18 156.2404)" class="st16 st17">(</text>
				<text transform="matrix(6.123234e-17 -1 1 6.123234e-17 311.18 152.9103)" class="st7 st12">f</text>
				<text transform="matrix(6.123234e-17 -1 1 6.123234e-17 311.18 150.6896)" class="st7 st12">m</text>
				<rect x="304.3" y="139.6" class="st0" width="9.5" height="4.4"/>
				<text transform="matrix(6.123234e-17 -1 1 6.123234e-17 311.1787 144.0305)" class="st7 st12">o</text>
				<rect x="304.3" y="137.8" class="st0" width="9.5" height="1.8"/>
				<text transform="matrix(6.123234e-17 -1 1 6.123234e-17 311.1699 139.5793)" class="st7 st12">l</text>
				<rect x="304.3" y="131.8" class="st0" width="9.5" height="4"/>
				<text transform="matrix(6.123234e-17 -1 1 6.123234e-17 311.18 135.8)" class="st7 st12">c</text>
				<rect x="304.3" y="127.3" class="st0" width="9.5" height="4.4"/>
				<text transform="matrix(6.123234e-17 -1 1 6.123234e-17 311.1787 131.7902)" class="st7 st12">e</text>
				<rect x="304.3" y="125.6" class="st0" width="9.5" height="1.8"/>
				<text transform="matrix(6.123234e-17 -1 1 6.123234e-17 311.1699 127.34)" class="st7 st12">l</text>
				<rect x="304.3" y="123.8" class="st0" width="9.5" height="1.8"/>
				<text transform="matrix(6.123234e-17 -1 1 6.123234e-17 311.1699 125.5695)" class="st7 st12">l</text>
				<text transform="matrix(6.123234e-17 -1 1 6.123234e-17 307.23 123.7902)" class="st16 st15">−</text>
				<text transform="matrix(6.123234e-17 -1 1 6.123234e-17 307.23 120.7199)" class="st7 st15">1</text>
				<text transform="matrix(6.123234e-17 -1 1 6.123234e-17 311.18 117.6096)" class="st16 st17">)</text>
				<text transform="matrix(1 0 0 1 302.36 10.25)" class="st18 st19">[C]</text>
			</g>
		</g>
	</g>
</g>
<g>
	<g>
		<g>
			<defs>
				<rect id="SVGID_00000132776092965773221060000006465821015639364517_" y="341.7" width="151.2" height="341.7"/>
			</defs>
			<clipPath id="SVGID_00000022541620420056604240000009365719435158935227_">
				<use xlink:href="#SVGID_00000132776092965773221060000006465821015639364517_"  style="overflow:visible;"/>
			</clipPath>
			<g style="clip-path:url(#SVGID_00000022541620420056604240000009365719435158935227_);">
				<rect y="341.7" class="st2" width="151.2" height="341.7"/>
			</g>
		</g>
	</g>
</g>
<g>
	<g>
		<g>
			<defs>
				<rect id="SVGID_00000111912316040990739280000000842158910183623061_" x="27.5" y="343.1" width="122.9" height="273.1"/>
			</defs>
			<clipPath id="SVGID_00000172431967099772635660000001923928762757775236_">
				<use xlink:href="#SVGID_00000111912316040990739280000000842158910183623061_"  style="overflow:visible;"/>
			</clipPath>
			<g style="clip-path:url(#SVGID_00000172431967099772635660000001923928762757775236_);">
				<rect x="27.5" y="343.1" class="st4" width="122.9" height="273.1"/>
				<rect x="27.5" y="507.4" class="st5" width="14.2" height="108.8"/>
				<rect x="41.7" y="564.2" class="st6" width="14.2" height="52.1"/>
				<rect x="59" y="588.3" class="st5" width="14.2" height="27.9"/>
				<rect x="73.2" y="597.2" class="st6" width="14.2" height="19"/>
				<rect x="90.5" y="453.8" class="st5" width="14.2" height="162.4"/>
				<rect x="104.7" y="400.5" class="st6" width="14.2" height="215.7"/>
				<rect x="122" y="494.5" class="st5" width="14.2" height="121.7"/>
				<rect x="136.2" y="496.7" class="st6" width="14.2" height="119.5"/>
				<line class="st9" x1="31.4" y1="484.7" x2="37.7" y2="484.7"/>
				<line class="st9" x1="34.6" y1="484.7" x2="34.6" y2="530.2"/>
				<line class="st9" x1="31.4" y1="530.2" x2="37.7" y2="530.2"/>
				<line class="st9" x1="45.6" y1="551.4" x2="51.9" y2="551.4"/>
				<line class="st9" x1="48.8" y1="551.4" x2="48.8" y2="576.9"/>
				<line class="st9" x1="45.6" y1="576.9" x2="51.9" y2="576.9"/>
				<line class="st9" x1="62.9" y1="583.5" x2="69.2" y2="583.5"/>
				<line class="st9" x1="66.1" y1="583.5" x2="66.1" y2="593.2"/>
				<line class="st9" x1="62.9" y1="593.2" x2="69.2" y2="593.2"/>
				<line class="st9" x1="77.1" y1="593.5" x2="83.4" y2="593.5"/>
				<line class="st9" x1="80.2" y1="593.5" x2="80.2" y2="600.8"/>
				<line class="st9" x1="77.1" y1="600.8" x2="83.4" y2="600.8"/>
				<line class="st9" x1="94.4" y1="413.2" x2="100.7" y2="413.2"/>
				<line class="st9" x1="97.6" y1="413.2" x2="97.6" y2="494.5"/>
				<line class="st9" x1="94.4" y1="494.5" x2="100.7" y2="494.5"/>
				<line class="st9" x1="108.6" y1="355" x2="114.9" y2="355"/>
				<line class="st9" x1="111.7" y1="355" x2="111.7" y2="446.1"/>
				<line class="st9" x1="108.6" y1="446.1" x2="114.9" y2="446.1"/>
				<line class="st9" x1="125.9" y1="467.2" x2="132.2" y2="467.2"/>
				<line class="st9" x1="129.1" y1="467.2" x2="129.1" y2="521.9"/>
				<line class="st9" x1="125.9" y1="521.9" x2="132.2" y2="521.9"/>
				<line class="st9" x1="140.1" y1="470.3" x2="146.4" y2="470.3"/>
				<line class="st9" x1="143.2" y1="470.3" x2="143.2" y2="523.1"/>
				<line class="st9" x1="140.1" y1="523.1" x2="146.4" y2="523.1"/>
				<rect x="27.5" y="343.1" class="st10" width="122.9" height="273.1"/>
			</g>
		</g>
	</g>
</g>
<g>
	<g>
		<g>
			<defs>
				<rect id="SVGID_00000057869189710946904330000017704817713651005866_" y="0" width="453.5" height="708.7"/>
			</defs>
			<clipPath id="SVGID_00000170259847174843224390000003014628581157373601_">
				<use xlink:href="#SVGID_00000057869189710946904330000017704817713651005866_"  style="overflow:visible;"/>
			</clipPath>
			<g style="clip-path:url(#SVGID_00000170259847174843224390000003014628581157373601_);">
				<text transform="matrix(1 0 0 1 12.7789 619.09)" class="st7 st12">0.0</text>
				<text transform="matrix(1 0 0 1 12.7789 543.23)" class="st7 st12">2.5</text>
				<text transform="matrix(1 0 0 1 12.7789 467.37)" class="st7 st12">5.0</text>
				<text transform="matrix(1 0 0 1 12.7789 391.5)" class="st7 st12">7.5</text>
				<line class="st13" x1="25.5" y1="616.2" x2="27.5" y2="616.2"/>
				<line class="st13" x1="25.5" y1="540.4" x2="27.5" y2="540.4"/>
				<line class="st13" x1="25.5" y1="464.5" x2="27.5" y2="464.5"/>
				<line class="st13" x1="25.5" y1="388.6" x2="27.5" y2="388.6"/>
				<line class="st13" x1="41.7" y1="618.2" x2="41.7" y2="616.2"/>
				<line class="st13" x1="73.2" y1="618.2" x2="73.2" y2="616.2"/>
				<line class="st13" x1="104.7" y1="618.2" x2="104.7" y2="616.2"/>
				<line class="st13" x1="136.2" y1="618.2" x2="136.2" y2="616.2"/>
				
					<rect x="26.8" y="646" transform="matrix(0.3421 -0.9397 0.9397 0.3421 -588.0024 461.67)" class="st0" width="17.8" height="9.5"/>
				
					<rect x="66.5" y="623.5" transform="matrix(0.3421 -0.9397 0.9397 0.3421 -540.759 484.1773)" class="st0" width="17.8" height="9.5"/>
				
					<rect x="98" y="623.5" transform="matrix(0.3421 -0.9397 0.9397 0.3421 -520.0329 513.7782)" class="st0" width="17.8" height="9.5"/>
				<text transform="matrix(0.342 -0.9397 0.9397 0.342 95.4741 656.3241)" class="st7 st12">PCC 9701</text>
				<text transform="matrix(0.342 -0.9397 0.9397 0.342 127.583 655.8466)" class="st7 st12">NIES-843</text>
				<rect x="76" y="675.7" class="st0" width="25.8" height="9.5"/>
				<text transform="matrix(1 0 0 1 76.0156 682.5598)" class="st7 st12">Culture</text>
				<text transform="matrix(6.123234e-17 -1 1 6.123234e-17 8.81 498.3498)" class="st14 st12">K</text>
				<rect x="5.5" y="489.4" class="st0" width="6.6" height="2.8"/>
				<text transform="matrix(6.123234e-17 -1 1 6.123234e-17 10.2695 492.1496)" class="st7 st15">s</text>
				<text transform="matrix(6.123234e-17 -1 1 6.123234e-17 8.81 487.3498)" class="st16 st17">(</text>
				<rect x="1.9" y="479.4" class="st0" width="9.5" height="4.6"/>
				<text transform="matrix(6.123234e-17 -1 1 6.123234e-17 8.8086 484.0197)" class="st7 st12">μ</text>
				<rect x="1.9" y="475" class="st0" width="9.5" height="4.4"/>
				<text transform="matrix(6.123234e-17 -1 1 6.123234e-17 8.8086 479.4103)" class="st7 st12">g L</text>
				<rect x="1.5" y="470.8" class="st0" width="10.1" height="4.2"/>
				<text transform="matrix(6.123234e-17 -1 1 6.123234e-17 4.87 470.5099)" class="st16 st15">−</text>
				<text transform="matrix(6.123234e-17 -1 1 6.123234e-17 4.87 467.4396)" class="st7 st15">1</text>
				<text transform="matrix(6.123234e-17 -1 1 6.123234e-17 8.81 464.3303)" class="st16 st17">)</text>
				<text transform="matrix(1 0 0 1 0 351.9505)" class="st18 st19">[D]</text>
			</g>
		</g>
	</g>
	<text transform="matrix(0.342 -0.9397 0.9397 0.342 175.5715 537.0808)" class="st29"><tspan x="0" y="0" class="st7 st12">PCC 7806 Δ</tspan><tspan x="44.5" y="0" class="st14 st12">mcyB</tspan></text>
</g>
<g>
	<g>
		<g>
			<defs>
				<rect id="SVGID_00000091720262365395813180000009421814141536444801_" x="151.2" y="341.7" width="151.2" height="341.7"/>
			</defs>
			<clipPath id="SVGID_00000078733512584671947930000007556904698977616023_">
				<use xlink:href="#SVGID_00000091720262365395813180000009421814141536444801_"  style="overflow:visible;"/>
			</clipPath>
			<g style="clip-path:url(#SVGID_00000078733512584671947930000007556904698977616023_);">
				<rect x="151.2" y="341.7" class="st2" width="151.2" height="341.7"/>
			</g>
		</g>
	</g>
</g>
<g>
	<g>
		<g>
			<defs>
				<rect id="SVGID_00000071539857763478607400000015440699682030970270_" x="180.3" y="343.1" width="121.2" height="273.4"/>
			</defs>
			<clipPath id="SVGID_00000177442138505283644040000005063248444522285209_">
				<use xlink:href="#SVGID_00000071539857763478607400000015440699682030970270_"  style="overflow:visible;"/>
			</clipPath>
			<g style="clip-path:url(#SVGID_00000177442138505283644040000005063248444522285209_);">
				<rect x="180.3" y="343.1" class="st4" width="121.2" height="273.4"/>
				<rect x="180.3" y="384.1" class="st5" width="14" height="232.5"/>
				<rect x="194.3" y="409" class="st6" width="14" height="207.6"/>
				<rect x="211.4" y="414.9" class="st5" width="14" height="201.7"/>
				<rect x="225.4" y="419.9" class="st6" width="14" height="196.7"/>
				<rect x="242.5" y="390.8" class="st5" width="14" height="225.8"/>
				<rect x="256.5" y="370.5" class="st6" width="14" height="246.1"/>
				<rect x="273.5" y="389.6" class="st5" width="14" height="227"/>
				<rect x="287.5" y="386.1" class="st6" width="14" height="230.4"/>
				<text transform="matrix(0.9657 0 0 1 192.6406 408.6086)" class="st7 st32">**</text>
				<line class="st9" x1="184.2" y1="379.9" x2="190.4" y2="379.9"/>
				<line class="st9" x1="187.3" y1="379.9" x2="187.3" y2="388.4"/>
				<line class="st9" x1="184.2" y1="388.4" x2="190.4" y2="388.4"/>
				<line class="st9" x1="198.2" y1="404.7" x2="204.4" y2="404.7"/>
				<line class="st9" x1="201.3" y1="404.7" x2="201.3" y2="413.1"/>
				<line class="st9" x1="198.2" y1="413.1" x2="204.4" y2="413.1"/>
				<line class="st9" x1="215.3" y1="410.7" x2="221.5" y2="410.7"/>
				<line class="st9" x1="218.4" y1="410.7" x2="218.4" y2="419.1"/>
				<line class="st9" x1="215.3" y1="419.1" x2="221.5" y2="419.1"/>
				<line class="st9" x1="229.3" y1="415.7" x2="235.5" y2="415.7"/>
				<line class="st9" x1="232.4" y1="415.7" x2="232.4" y2="424.2"/>
				<line class="st9" x1="229.3" y1="424.2" x2="235.5" y2="424.2"/>
				<line class="st9" x1="246.4" y1="382.3" x2="252.6" y2="382.3"/>
				<line class="st9" x1="249.5" y1="382.3" x2="249.5" y2="399.2"/>
				<line class="st9" x1="246.4" y1="399.2" x2="252.6" y2="399.2"/>
				<line class="st9" x1="260.3" y1="362.2" x2="266.6" y2="362.2"/>
				<line class="st9" x1="263.5" y1="362.2" x2="263.5" y2="378.9"/>
				<line class="st9" x1="260.3" y1="378.9" x2="266.6" y2="378.9"/>
				<line class="st9" x1="277.4" y1="385.4" x2="283.6" y2="385.4"/>
				<line class="st9" x1="280.5" y1="385.4" x2="280.5" y2="393.7"/>
				<line class="st9" x1="277.4" y1="393.7" x2="283.6" y2="393.7"/>
				<line class="st9" x1="291.4" y1="381.9" x2="297.6" y2="381.9"/>
				<line class="st9" x1="294.5" y1="381.9" x2="294.5" y2="390.3"/>
				<line class="st9" x1="291.4" y1="390.3" x2="297.6" y2="390.3"/>
				<rect x="180.3" y="343.1" class="st10" width="121.2" height="273.4"/>
			</g>
		</g>
	</g>
</g>
<g>
	<g>
		<g>
			<defs>
				<rect id="SVGID_00000028309860879372940070000006063239836502142637_" y="1.5" width="453.5" height="708.7"/>
			</defs>
			<clipPath id="SVGID_00000018943200940891965000000017123666482787558296_">
				<use xlink:href="#SVGID_00000028309860879372940070000006063239836502142637_"  style="overflow:visible;"/>
			</clipPath>
			<g style="clip-path:url(#SVGID_00000018943200940891965000000017123666482787558296_);">
				<text transform="matrix(1 0 0 1 166.5506 619.1859)" class="st7 st12">0.0</text>
				<text transform="matrix(1 0 0 1 166.0858 533.7982)" class="st7 st12">0.2</text>
				<text transform="matrix(1 0 0 1 165.75 453.7262)" class="st7 st12">0.4</text>
				<text transform="matrix(1 0 0 1 165.6289 367.8189)" class="st7 st12">0.6</text>
				<line class="st13" x1="178.3" y1="616.5" x2="180.3" y2="616.5"/>
				<line class="st13" x1="178.3" y1="531.1" x2="180.3" y2="531.1"/>
				<line class="st13" x1="178.3" y1="450.5" x2="180.3" y2="450.5"/>
				<line class="st13" x1="178.3" y1="364.9" x2="180.3" y2="364.9"/>
				<line class="st13" x1="194.3" y1="618.5" x2="194.3" y2="616.5"/>
				<line class="st13" x1="225.4" y1="618.5" x2="225.4" y2="616.5"/>
				<line class="st13" x1="256.5" y1="618.4" x2="256.5" y2="616.4"/>
				<path id="SVGID_x5F_00000016753741766378797210000018234356009339708844_x5F_" class="st0" d="M287.5,610.7v-2"/>
				<text>				<textPath  xlink:href="#SVGID_x5F_00000016753741766378797210000018234356009339708844_x5F_" startOffset="3.125%">
				</textPath>
</text>
				
					<rect x="176.7" y="642.2" transform="matrix(0.3421 -0.9397 0.9397 0.3421 -485.8525 600.0367)" class="st0" width="17.8" height="9.5"/>
				<polygon class="st0" points="184.4,634.9 186.4,629.8 195.9,633.1 194,638.1 				"/>
				
					<rect x="184.4" y="618.2" transform="matrix(0.3421 -0.9397 0.9397 0.3421 -457.4409 592.5295)" class="st0" width="20" height="9.5"/>
				
					<rect x="216.9" y="617.2" transform="matrix(0.3421 -0.9397 0.9397 0.3421 -435.8976 621.376)" class="st0" width="17.8" height="9.5"/>
				
					<rect x="247.9" y="617.2" transform="matrix(0.3421 -0.9397 0.9397 0.3421 -415.4208 650.4781)" class="st0" width="17.8" height="9.5"/>
				<text transform="matrix(0.342 -0.9397 0.9397 0.342 280.5588 653.8104)" class="st7 st12">NIES-843</text>
				<rect x="228" y="675.4" class="st0" width="25.8" height="9.5"/>
				<text transform="matrix(1 0 0 1 228.0254 682.319)" class="st7 st12">Culture</text>
				<rect x="152.6" y="494.1" class="st0" width="10.1" height="4.6"/>
				<text transform="matrix(6.123234e-17 -1 1 6.123234e-17 159.4512 498.6721)" class="st14 st12">μ</text>
				<text transform="matrix(6.123234e-17 -1 1 6.123234e-17 161.37 493.0695)" class="st7 st15">m</text>
				<text transform="matrix(6.123234e-17 -1 1 6.123234e-17 161.37 488.4094)" class="st7 st15">a</text>
				<text transform="matrix(6.123234e-17 -1 1 6.123234e-17 161.37 485.3)" class="st7 st15">x</text>
				<text transform="matrix(6.123234e-17 -1 1 6.123234e-17 159.91 480.4992)" class="st16 st17">(</text>
				<rect x="153" y="472.7" class="st0" width="9.5" height="4.4"/>
				<text transform="matrix(6.123234e-17 -1 1 6.123234e-17 159.9082 477.1691)" class="st7 st12">d</text>
				<rect x="153" y="468.3" class="st0" width="9.5" height="4.4"/>
				<text transform="matrix(6.123234e-17 -1 1 6.123234e-17 159.9082 472.7199)" class="st7 st12">a</text>
				<rect x="153" y="464.3" class="st0" width="9.5" height="4"/>
				<text transform="matrix(6.123234e-17 -1 1 6.123234e-17 159.91 468.2697)" class="st7 st12">y</text>
				<text transform="matrix(6.123234e-17 -1 1 6.123234e-17 155.93 464.2697)" class="st16 st15">−</text>
				<text transform="matrix(6.123234e-17 -1 1 6.123234e-17 155.93 461.1994)" class="st7 st15">1</text>
				<text transform="matrix(6.123234e-17 -1 1 6.123234e-17 159.91 458.0891)" class="st16 st17">)</text>
				<text transform="matrix(1 0 0 1 158.4637 351.9499)" class="st18 st19">[E]</text>
			</g>
		</g>
	</g>
	<line class="st13" x1="287.5" y1="618.5" x2="287.5" y2="616.5"/>
</g>
<g>
	<g>
		<g>
			<defs>
				<rect id="SVGID_00000086677777091715858630000016629566459751179453_" x="302.4" y="341.7" width="151.2" height="341.7"/>
			</defs>
			<clipPath id="SVGID_00000050624042418510388470000001252791100712789896_">
				<use xlink:href="#SVGID_00000086677777091715858630000016629566459751179453_"  style="overflow:visible;"/>
			</clipPath>
			<g style="clip-path:url(#SVGID_00000050624042418510388470000001252791100712789896_);">
				<rect x="302.4" y="341.7" class="st2" width="151.2" height="341.7"/>
			</g>
		</g>
	</g>
</g>
<g>
	<g>
		<g>
			<defs>
				<rect id="SVGID_00000090975414828964063460000011359590220101474695_" x="323.2" y="343.1" width="129.5" height="273.1"/>
			</defs>
			<clipPath id="SVGID_00000183956492188937554520000002971170154965795212_">
				<use xlink:href="#SVGID_00000090975414828964063460000011359590220101474695_"  style="overflow:visible;"/>
			</clipPath>
			<g style="clip-path:url(#SVGID_00000183956492188937554520000002971170154965795212_);">
				<rect x="323.2" y="343.1" class="st4" width="129.5" height="273.1"/>
				<rect x="323.2" y="517.1" class="st5" width="14.9" height="99.1"/>
				<rect x="338.1" y="549.9" class="st6" width="14.9" height="66.3"/>
				<rect x="356.4" y="547.9" class="st5" width="14.9" height="68.3"/>
				<rect x="371.3" y="560.4" class="st6" width="14.9" height="55.8"/>
				<rect x="389.6" y="468.7" class="st5" width="14.9" height="147.5"/>
				<rect x="404.5" y="349.8" class="st6" width="14.9" height="266.4"/>
				<rect x="422.8" y="363.6" class="st5" width="14.9" height="252.6"/>
				<rect x="437.8" y="412.5" class="st6" width="14.9" height="203.7"/>
				<rect x="323.2" y="343.1" class="st10" width="129.5" height="273.1"/>
			</g>
		</g>
	</g>
</g>
<g>
	<g>
		<g>
			<defs>
				<rect id="SVGID_00000013886446041980428600000009104753723439023514_" y="0" width="453.5" height="708.7"/>
			</defs>
			<clipPath id="SVGID_00000162322199660567505210000004105134850331528321_">
				<use xlink:href="#SVGID_00000013886446041980428600000009104753723439023514_"  style="overflow:visible;"/>
			</clipPath>
			<g style="clip-path:url(#SVGID_00000162322199660567505210000004105134850331528321_);">
				<rect x="315.1" y="612.2" class="st0" width="4.4" height="9.5"/>
				<text transform="matrix(1 0 0 1 315.1309 619.09)" class="st7 st12">0</text>
				<rect x="315.1" y="534.2" class="st0" width="4.4" height="9.5"/>
				<text transform="matrix(1 0 0 1 315.1309 541.0598)" class="st7 st12">1</text>
				<rect x="315.1" y="456.2" class="st0" width="4.4" height="9.5"/>
				<text transform="matrix(1 0 0 1 315.1309 463.0305)" class="st7 st12">2</text>
				<rect x="315.1" y="378.1" class="st0" width="4.4" height="9.5"/>
				<text transform="matrix(1 0 0 1 315.1309 385.0002)" class="st7 st12">3</text>
				<line class="st13" x1="321.2" y1="616.2" x2="323.2" y2="616.2"/>
				<line class="st13" x1="321.2" y1="538.2" x2="323.2" y2="538.2"/>
				<line class="st13" x1="321.2" y1="460.2" x2="323.2" y2="460.2"/>
				<line class="st13" x1="321.2" y1="382.1" x2="323.2" y2="382.1"/>
				<line class="st13" x1="338.1" y1="618.2" x2="338.1" y2="616.2"/>
				<line class="st13" x1="371.3" y1="618.2" x2="371.3" y2="616.2"/>
				<line class="st13" x1="404.5" y1="618.2" x2="404.5" y2="616.2"/>
				<line class="st13" x1="437.8" y1="618.2" x2="437.8" y2="616.2"/>
				
					<rect x="323.3" y="645.9" transform="matrix(0.3421 -0.9397 0.9397 0.3421 -392.8558 740.2762)" class="st0" width="17.8" height="9.5"/>
				
					<rect x="364.6" y="623.4" transform="matrix(0.3421 -0.9397 0.9397 0.3421 -344.5379 764.2744)" class="st0" width="17.8" height="9.5"/>
				
					<rect x="397.8" y="623.4" transform="matrix(0.3421 -0.9397 0.9397 0.3421 -322.7079 795.4764)" class="st0" width="17.8" height="9.5"/>
				<text transform="matrix(0.342 -0.9397 0.9397 0.342 430.4362 653.7177)" class="st7 st12">NIES-843</text>
				<rect x="375" y="675.7" class="st0" width="25.8" height="9.5"/>
				<text transform="matrix(1 0 0 1 375.0352 682.5598)" class="st7 st12">Culture</text>
				<text transform="matrix(6.123234e-17 -1 1 6.123234e-17 311.18 507.0695)" class="st14 st12">Q</text>
				<rect x="307.7" y="496.3" class="st0" width="6.8" height="3.6"/>
				<text transform="matrix(6.123234e-17 -1 1 6.123234e-17 311.18 494.2404)" class="st16 st17">(</text>
				<text transform="matrix(6.123234e-17 -1 1 6.123234e-17 311.18 490.9103)" class="st7 st12">f</text>
				<text transform="matrix(6.123234e-17 -1 1 6.123234e-17 311.18 488.6799)" class="st7 st12">m</text>
				<rect x="304.3" y="477.6" class="st0" width="9.5" height="4.4"/>
				<text transform="matrix(6.123234e-17 -1 1 6.123234e-17 311.1787 482.0197)" class="st7 st12">o</text>
				<rect x="304.3" y="475.8" class="st0" width="9.5" height="1.8"/>
				<text transform="matrix(6.123234e-17 -1 1 6.123234e-17 311.1699 477.5803)" class="st7 st12">l</text>
				<rect x="304.3" y="469.8" class="st0" width="9.5" height="4"/>
				<text transform="matrix(6.123234e-17 -1 1 6.123234e-17 311.18 473.8)" class="st7 st12">c</text>
				<rect x="304.3" y="465.3" class="st0" width="9.5" height="4.4"/>
				<text transform="matrix(6.123234e-17 -1 1 6.123234e-17 311.1787 469.7902)" class="st7 st12">e</text>
				<rect x="304.3" y="463.6" class="st0" width="9.5" height="1.8"/>
				<text transform="matrix(6.123234e-17 -1 1 6.123234e-17 311.1699 465.34)" class="st7 st12">l</text>
				<rect x="304.3" y="461.8" class="st0" width="9.5" height="1.8"/>
				<text transform="matrix(6.123234e-17 -1 1 6.123234e-17 311.1699 463.5598)" class="st7 st12">l</text>
				<text transform="matrix(6.123234e-17 -1 1 6.123234e-17 307.23 461.7902)" class="st16 st15">−</text>
				<text transform="matrix(6.123234e-17 -1 1 6.123234e-17 307.23 458.7199)" class="st7 st15">1</text>
				<text transform="matrix(6.123234e-17 -1 1 6.123234e-17 311.18 455.6096)" class="st16 st17">)</text>
				<text transform="matrix(1 0 0 1 302.36 351.95)" class="st18 st19">[F]</text>
				<rect x="171" y="683.4" class="st4" width="111.5" height="25.2"/>
				<rect x="175" y="692" class="st0" width="18.7" height="9.5"/>
				<text transform="matrix(1 0 0 1 175.02 698.8996)" class="st7 st12">State</text>
				<rect x="199.7" y="688.1" class="st5" width="15.9" height="15.9"/>
				<rect x="243" y="688.1" class="st6" width="15.9" height="15.9"/>
				<text transform="matrix(1 0 0 1 220.27 698.33)" class="st7 st37">Axenic</text>
				<text transform="matrix(1 0 0 1 263.52 698.33)" class="st7 st37">Xenic</text>
			</g>
		</g>
	</g>
</g>
<text transform="matrix(1 0 0 1 33.2831 211.278)" class="st7 st38">a</text>
<text transform="matrix(1 0 0 1 63.569 211.2779)" class="st7 st38">a</text>
<text transform="matrix(1 0 0 1 95.0418 211.4097)" class="st7 st38">a</text>
<text transform="matrix(1 0 0 1 127.5827 211.5414)" class="st7 st38">a</text>
<text transform="matrix(1 0 0 1 214.0869 211.2779)" class="st7 st38">a</text>
<text transform="matrix(1 0 0 1 183.3164 211.2779)" class="st7 st38">a</text>
<text transform="matrix(1 0 0 1 245.3103 211.2779)" class="st7 st38">a</text>
<text transform="matrix(1 0 0 1 277.0325 211.2779)" class="st7 st38">a</text>
<text transform="matrix(1 0 0 1 31.151 610.04)" class="st7 st38">a</text>
<text transform="matrix(1 0 0 1 62.5689 610.0401)" class="st7 st38">b</text>
<text transform="matrix(1 0 0 1 95.0421 610.0401)" class="st7 st38">a</text>
<text transform="matrix(1 0 0 1 125.3342 610.0401)" class="st7 st38">a</text>
<text transform="matrix(1 0 0 1 184.4001 537.4779)" class="st7 st38">a</text>
<text transform="matrix(1 0 0 1 245.3102 537.6096)" class="st7 st38">a</text>
<text transform="matrix(1 0 0 1 277.0324 537.7413)" class="st7 st38">a</text>
<text transform="matrix(1 0 0 1 214.0868 537.7413)" class="st7 st38">b</text>
<text transform="matrix(1 0 0 1 46.2354 274.6227)" class="st4 st7 st38">A</text>
<text transform="matrix(1 0 0 1 77.4151 274.6229)" class="st4 st7 st38">A</text>
<text transform="matrix(1 0 0 1 108.6683 274.6227)" class="st4 st7 st38">A</text>
<text transform="matrix(1 0 0 1 139.0157 274.6228)" class="st4 st7 st38">A</text>
<text transform="matrix(1 0 0 1 227.77 189.8806)" class="st4 st7 st38">A</text>
<text transform="matrix(1 0 0 1 196.0183 189.8807)" class="st4 st7 st38">A</text>
<text transform="matrix(1 0 0 1 196.0183 204.2807)" class="st4 st7 st38">C</text>
<text transform="matrix(1 0 0 1 290.2652 189.8808)" class="st4 st7 st38">A</text>
<text transform="matrix(1 0 0 1 290.2652 204.2808)" class="st4 st7 st38">C</text>
<text transform="matrix(1 0 0 1 258.6186 189.8807)" class="st4 st7 st38">B</text>
<text transform="matrix(1 0 0 1 258.6186 204.2807)" class="st4 st7 st38">C</text>
<text transform="matrix(1 0 0 1 44.9306 613.3374)" class="st4 st7 st38">A</text>
<text transform="matrix(1 0 0 1 76.4153 613.3368)" class="st4 st7 st38">B</text>
<text transform="matrix(1 0 0 1 107.6683 613.3372)" class="st4 st7 st38">C</text>
<text transform="matrix(1 0 0 1 138.5109 613.3365)" class="st4 st7 st38">D</text>
<text transform="matrix(1 0 0 1 196.7981 523.0481)" class="st4 st7 st38">A</text>
<text transform="matrix(1 0 0 1 228.4256 523.0477)" class="st4 st7 st38">A</text>
<text transform="matrix(1 0 0 1 259.5792 523.0473)" class="st4 st7 st38">B</text>
<text transform="matrix(1 0 0 1 290.2652 523.0476)" class="st4 st7 st38">B</text>
<text transform="matrix(0.342 -0.9397 0.9397 0.342 248.1403 322.8016)" class="st7 st12">PCC 9701</text>
<text transform="matrix(0.342 -0.9397 0.9397 0.342 399.6242 322.8016)" class="st7 st12">PCC 9701</text>
<text transform="matrix(0.342 -0.9397 0.9397 0.342 396.6913 655.8466)" class="st7 st12">PCC 9701</text>
<text transform="matrix(0.342 -0.9397 0.9397 0.342 214.8674 322.8016)" class="st7 st12">PCC 7806</text>
<text transform="matrix(0.342 -0.9397 0.9397 0.342 368.5361 322.8016)" class="st7 st12">PCC 7806</text>
<text transform="matrix(0.342 -0.9397 0.9397 0.342 216.2956 656.41)" class="st7 st12">PCC 7806</text>
<text transform="matrix(0.342 -0.9397 0.9397 0.342 63.569 655.8466)" class="st7 st12">PCC 7806</text>
<text transform="matrix(0.342 -0.9397 0.9397 0.342 362.342 655.8466)" class="st7 st12">PCC 7806</text>
<text transform="matrix(0.342 -0.9397 0.9397 0.342 328.2397 657.0935)" class="st29"><tspan x="0" y="0" class="st7 st12">PCC 7806</tspan><tspan x="0" y="9.6" class="st7 st12">Δ</tspan><tspan x="5.3" y="9.6" class="st14 st12">mcyB</tspan></text>
<text transform="matrix(0.342 -0.9397 0.9397 0.342 337.1164 323.0544)" class="st29"><tspan x="0" y="0" class="st7 st12">PCC 7806</tspan><tspan x="0" y="9.6" class="st7 st12">Δ</tspan><tspan x="5.3" y="9.6" class="st14 st12">mcyB</tspan></text>
<text transform="matrix(0.342 -0.9397 0.9397 0.342 183.7162 323.0544)" class="st29"><tspan x="0" y="0" class="st7 st12">PCC 7806</tspan><tspan x="0" y="9.6" class="st7 st12">Δ</tspan><tspan x="5.3" y="9.6" class="st14 st12">mcyB</tspan></text>
<text transform="matrix(0.342 -0.9397 0.9397 0.342 36.5209 323.0544)" class="st29"><tspan x="0" y="0" class="st7 st12">PCC 7806</tspan><tspan x="0" y="9.6" class="st7 st12">Δ</tspan><tspan x="5.3" y="9.6" class="st14 st12">mcyB</tspan></text>
<text transform="matrix(0.342 -0.9397 0.9397 0.342 184.4091 657.0935)" class="st29"><tspan x="0" y="0" class="st7 st12">PCC 7806</tspan><tspan x="0" y="9.6" class="st7 st12">Δ</tspan><tspan x="5.3" y="9.6" class="st14 st12">mcyB</tspan></text>
<text transform="matrix(0.342 -0.9397 0.9397 0.342 32.5998 657.0935)" class="st29"><tspan x="0" y="0" class="st7 st12">PCC 7806</tspan><tspan x="0" y="9.6" class="st7 st12">Δ</tspan><tspan x="5.3" y="9.6" class="st14 st12">mcyB</tspan></text>
<text transform="matrix(0.342 -0.9397 0.9397 0.342 248.1411 656.41)" class="st7 st12">PCC 9701</text>
<text transform="matrix(6.123234e-17 -1 1 6.123234e-17 311.8195 499.8996)" class="st7 st15">P</text>
</svg>
