<?xml version="1.0" encoding="utf-8"?>
<!-- Generator: Adobe Illustrator 27.5.0, SVG Export Plug-In . SVG Version: 6.00 Build 0)  -->
<svg version="1.1" id="Layer_1" xmlns="http://www.w3.org/2000/svg" xmlns:xlink="http://www.w3.org/1999/xlink" x="0px" y="0px"
	 viewBox="0 0 510.2 430.9" style="enable-background:new 0 0 510.2 430.9;" xml:space="preserve">
<style type="text/css">
	.st0{fill:none;}
	.st1{clip-path:url(#SVGID_00000021093799003504759340000002982916354442779569_);}
	.st2{fill:#FFFFFF;stroke:#FFFFFF;stroke-width:1.55;stroke-linecap:round;stroke-linejoin:round;stroke-miterlimit:10;}
	.st3{clip-path:url(#SVGID_00000071527999068567440910000018216630251864979131_);}
	.st4{fill:#FFFFFF;}
	.st5{fill:#737373;}
	.st6{fill:#D9D9D9;}
	.st7{fill:none;stroke:#000000;stroke-width:1.07;stroke-linejoin:round;stroke-miterlimit:10;}
	.st8{fill:none;stroke:#000000;stroke-width:1.49;stroke-linecap:round;stroke-linejoin:round;stroke-miterlimit:10;}
	.st9{clip-path:url(#SVGID_00000034066591903808297160000006863577920580592828_);}
	.st10{font-family:'ArialMT';}
	.st11{font-size:16px;}
	.st12{fill:none;stroke:#333333;stroke-width:1.55;stroke-linejoin:round;stroke-miterlimit:10;}
	.st13{font-size:11.2px;}
	.st14{font-family:'Symbol';}
	.st15{font-size:20px;}
	.st16{font-family:'Arial-BoldMT';}
	.st17{font-size:14px;}
	.st18{clip-path:url(#SVGID_00000168818223179096143850000007361819192416741294_);}
	.st19{clip-path:url(#SVGID_00000103954464001367206610000014877993177768639375_);}
	.st20{clip-path:url(#SVGID_00000162320231155288262090000000710642990240398769_);}
	.st21{clip-path:url(#SVGID_00000076580724567362396110000003286733370689469602_);}
	.st22{clip-path:url(#SVGID_00000012449898048365313080000018278618760251795865_);}
	.st23{clip-path:url(#SVGID_00000047036447775411608280000012754091987720949649_);}
	.st24{font-size:12.8px;}
	.st25{font-size:16.4029px;}
	.st26{clip-path:url(#SVGID_00000165919817230228269660000016661847751047488691_);}
	.st27{enable-background:new    ;}
	.st28{clip-path:url(#SVGID_00000140710048352610170130000004931910982201789347_);}
	.st29{clip-path:url(#SVGID_00000020384351483630001560000007230287082106924182_);}
	.st30{clip-path:url(#SVGID_00000160156236210521464130000013400748705445298335_);}
	.st31{clip-path:url(#SVGID_00000078043516390702048400000008805720331335502506_);}
</style>
<rect class="st0" width="510.2" height="430.9"/>
<g>
	<g>
		<defs>
			<rect id="SVGID_1_" width="170.1" height="397.6"/>
		</defs>
		<clipPath id="SVGID_00000150780599515789895100000011211071687437993856_">
			<use xlink:href="#SVGID_1_"  style="overflow:visible;"/>
		</clipPath>
		<g style="clip-path:url(#SVGID_00000150780599515789895100000011211071687437993856_);">
			<rect class="st2" width="170.1" height="397.6"/>
		</g>
	</g>
</g>
<g>
	<g>
		<defs>
			<rect id="SVGID_00000083082361234383376110000016270067739923835568_" x="61.9" y="1.4" width="107.3" height="242.1"/>
		</defs>
		<clipPath id="SVGID_00000183940731163964672890000003056679371876607393_">
			<use xlink:href="#SVGID_00000083082361234383376110000016270067739923835568_"  style="overflow:visible;"/>
		</clipPath>
		<g style="clip-path:url(#SVGID_00000183940731163964672890000003056679371876607393_);">
			<rect x="61.9" y="1.4" class="st4" width="107.3" height="242.1"/>
			<rect x="61.9" y="102.5" class="st5" width="12.4" height="141"/>
			<rect x="74.3" y="211.1" class="st6" width="12.4" height="32.4"/>
			<rect x="89.4" y="130.4" class="st5" width="12.4" height="113.1"/>
			<rect x="101.8" y="212.8" class="st6" width="12.4" height="30.7"/>
			<rect x="116.9" y="77.5" class="st5" width="12.4" height="166"/>
			<rect x="129.3" y="178.7" class="st6" width="12.4" height="64.8"/>
			<rect x="144.5" y="63.1" class="st5" width="12.4" height="180.4"/>
			<rect x="156.8" y="184.6" class="st6" width="12.4" height="58.9"/>
			<line class="st7" x1="65.3" y1="54" x2="70.8" y2="54"/>
			<line class="st7" x1="68.1" y1="54" x2="68.1" y2="151.1"/>
			<line class="st7" x1="65.3" y1="151.1" x2="70.8" y2="151.1"/>
			<line class="st7" x1="77.7" y1="198.9" x2="83.2" y2="198.9"/>
			<line class="st7" x1="80.5" y1="198.9" x2="80.5" y2="223.4"/>
			<line class="st7" x1="77.7" y1="223.4" x2="83.2" y2="223.4"/>
			<line class="st7" x1="92.9" y1="89.7" x2="98.4" y2="89.7"/>
			<line class="st7" x1="95.6" y1="89.7" x2="95.6" y2="171.1"/>
			<line class="st7" x1="92.9" y1="171.1" x2="98.4" y2="171.1"/>
			<line class="st7" x1="105.2" y1="199.3" x2="110.7" y2="199.3"/>
			<line class="st7" x1="108" y1="199.3" x2="108" y2="226.3"/>
			<line class="st7" x1="105.2" y1="226.3" x2="110.7" y2="226.3"/>
			<line class="st7" x1="120.4" y1="22.9" x2="125.9" y2="22.9"/>
			<line class="st7" x1="123.1" y1="22.9" x2="123.1" y2="132.2"/>
			<line class="st7" x1="120.4" y1="132.2" x2="125.9" y2="132.2"/>
			<line class="st7" x1="132.8" y1="159.6" x2="138.3" y2="159.6"/>
			<line class="st7" x1="135.5" y1="159.6" x2="135.5" y2="197.7"/>
			<line class="st7" x1="132.8" y1="197.7" x2="138.3" y2="197.7"/>
			<line class="st7" x1="147.9" y1="18.1" x2="153.4" y2="18.1"/>
			<line class="st7" x1="150.6" y1="18.1" x2="150.6" y2="108.2"/>
			<line class="st7" x1="147.9" y1="108.2" x2="153.4" y2="108.2"/>
			<line class="st7" x1="160.3" y1="170.1" x2="165.8" y2="170.1"/>
			<line class="st7" x1="163" y1="170.1" x2="163" y2="199.1"/>
			<line class="st7" x1="160.3" y1="199.1" x2="165.8" y2="199.1"/>
			<rect x="61.9" y="1.4" class="st8" width="107.3" height="242.1"/>
		</g>
	</g>
</g>
<g>
	<g>
		<defs>
			<rect id="SVGID_00000038405156895190412850000010521387469149518991_" width="510.2" height="430.9"/>
		</defs>
		<clipPath id="SVGID_00000036252230128255089210000005258978742139510657_">
			<use xlink:href="#SVGID_00000038405156895190412850000010521387469149518991_"  style="overflow:visible;"/>
		</clipPath>
		<g style="clip-path:url(#SVGID_00000036252230128255089210000005258978742139510657_);">
			<rect x="45.8" y="235.5" class="st0" width="8.9" height="18.9"/>
			<text transform="matrix(1 0 0 1 45.8315 249.2598)" class="st10 st11">0</text>
			<rect x="28" y="187" class="st0" width="26.7" height="18.9"/>
			<text transform="matrix(1 0 0 1 28.0347 200.7402)" class="st10 st11">100</text>
			<rect x="28" y="138.5" class="st0" width="26.7" height="18.9"/>
			<text transform="matrix(1 0 0 1 28.0347 152.23)" class="st10 st11">200</text>
			<rect x="28" y="90" class="st0" width="26.7" height="18.9"/>
			<text transform="matrix(1 0 0 1 28.0347 103.71)" class="st10 st11">300</text>
			<rect x="28" y="41.5" class="st0" width="26.7" height="18.9"/>
			<text transform="matrix(1 0 0 1 28.0347 55.1899)" class="st10 st11">400</text>
			<line class="st12" x1="57.9" y1="243.5" x2="61.9" y2="243.5"/>
			<line class="st12" x1="57.9" y1="195" x2="61.9" y2="195"/>
			<line class="st12" x1="57.9" y1="146.5" x2="61.9" y2="146.5"/>
			<line class="st12" x1="57.9" y1="98" x2="61.9" y2="98"/>
			<line class="st12" x1="57.9" y1="49.4" x2="61.9" y2="49.4"/>
			<line class="st12" x1="74.3" y1="247.5" x2="74.3" y2="243.5"/>
			<line class="st12" x1="101.8" y1="247.5" x2="101.8" y2="243.5"/>
			<line class="st12" x1="129.3" y1="247.5" x2="129.3" y2="243.5"/>
			<line class="st12" x1="156.8" y1="247.5" x2="156.8" y2="243.5"/>
			<polygon class="st0" points="28.2,370.3 72.6,249.9 90.6,256.4 46.2,376.7 			"/>
			<text transform="matrix(0.342 -0.9397 0.9397 0.342 41.1114 374.9112)" class="st10 st11">PCC</text>
			<text transform="matrix(0.342 -0.9397 0.9397 0.342 52.6712 343.1494)" class="st10 st11"> </text>
			<text transform="matrix(0.342 -0.9397 0.9397 0.342 54.0733 339.2959)" class="st10 st11">7806</text>
			<text transform="matrix(0.342 -0.9397 0.9397 0.342 66.2486 305.8428)" class="st10 st11"> </text>
			<text transform="matrix(0.342 -0.9397 0.9397 0.342 67.6165 302.084)" class="st10 st11">ΔmcyB</text>
			<text transform="matrix(0.342 -0.9397 0.9397 0.342 87.3421 323.9883)" class="st10 st11">PCC 7806</text>
			<text transform="matrix(0.342 -0.9397 0.9397 0.342 114.8619 323.9883)" class="st10 st11">PCC 9701</text>
			<text transform="matrix(0.342 -0.9397 0.9397 0.342 143.9051 319.8037)" class="st10 st11">NIES-843</text>
			<rect x="89.8" y="379.5" class="st0" width="51.6" height="18.9"/>
			<text transform="matrix(1 0 0 1 89.7808 393.2798)" class="st10 st11">Culture</text>
			<text transform="matrix(6.123234e-17 -1 1 6.123234e-17 16.59 159.2305)" class="st10 st11">K</text>
			<text transform="matrix(6.123234e-17 -1 1 6.123234e-17 19.52 148.5596)" class="st10 st13">s</text>
			<text transform="matrix(6.123234e-17 -1 1 6.123234e-17 16.59 138.96)" class="st14 st15">(</text>
			<rect x="2" y="123.1" class="st0" width="20.1" height="9.2"/>
			<text transform="matrix(6.123234e-17 -1 1 6.123234e-17 15.7695 132.2998)" class="st10 st11">μ</text>
			<rect x="2.9" y="113.6" class="st0" width="18.9" height="8.9"/>
			<text transform="matrix(6.123234e-17 -1 1 6.123234e-17 16.5879 122.5303)" class="st10 st11">g</text>
			<rect x="1.9" y="105.3" class="st0" width="20.2" height="8.3"/>
			<text transform="matrix(6.123234e-17 -1 1 6.123234e-17 8.64 104.7305)" class="st14 st13">−</text>
			<text transform="matrix(6.123234e-17 -1 1 6.123234e-17 8.64 98.5898)" class="st10 st13">1</text>
			<text transform="matrix(6.123234e-17 -1 1 6.123234e-17 16.59 92.3701)" class="st14 st15">)</text>
			<rect x="5" y="3.1" class="st0" width="10.1" height="17.3"/>
			<text transform="matrix(1 0 0 1 5.0498 15.1099)" class="st16 st17">A</text>
		</g>
	</g>
</g>
<g>
	<g>
		<defs>
			<rect id="SVGID_00000069388733592324933750000003148305872658226355_" x="170.1" width="170.1" height="397.6"/>
		</defs>
		<clipPath id="SVGID_00000165919783674109950060000002877780620488498360_">
			<use xlink:href="#SVGID_00000069388733592324933750000003148305872658226355_"  style="overflow:visible;"/>
		</clipPath>
		<g style="clip-path:url(#SVGID_00000165919783674109950060000002877780620488498360_);">
			<rect x="170.1" class="st2" width="170.1" height="397.6"/>
		</g>
	</g>
</g>
<g>
	<g>
		<defs>
			<rect id="SVGID_00000100384984056614712670000000342919915328436372_" x="227.5" y="1.4" width="111.8" height="242.1"/>
		</defs>
		<clipPath id="SVGID_00000137101130642698678420000008236785807154041491_">
			<use xlink:href="#SVGID_00000100384984056614712670000000342919915328436372_"  style="overflow:visible;"/>
		</clipPath>
		<g style="clip-path:url(#SVGID_00000137101130642698678420000008236785807154041491_);">
			<rect x="227.5" y="1.4" class="st4" width="111.8" height="242.1"/>
			<rect x="227.5" y="20.6" class="st5" width="12.9" height="222.9"/>
			<rect x="240.4" y="67.1" class="st6" width="12.9" height="176.4"/>
			<rect x="256.2" y="26.2" class="st5" width="12.9" height="217.3"/>
			<rect x="269.1" y="84.8" class="st6" width="12.9" height="158.7"/>
			<rect x="284.8" y="28.4" class="st5" width="12.9" height="215.1"/>
			<rect x="297.8" y="27.7" class="st6" width="12.9" height="215.9"/>
			<rect x="313.5" y="43.6" class="st5" width="12.9" height="199.9"/>
			<rect x="326.4" y="64.9" class="st6" width="12.9" height="178.7"/>
			<line class="st7" x1="231.1" y1="5.7" x2="236.8" y2="5.7"/>
			<line class="st7" x1="234" y1="5.7" x2="234" y2="35.5"/>
			<line class="st7" x1="231.1" y1="35.5" x2="236.8" y2="35.5"/>
			<line class="st7" x1="244" y1="56" x2="249.7" y2="56"/>
			<line class="st7" x1="246.9" y1="56" x2="246.9" y2="78.3"/>
			<line class="st7" x1="244" y1="78.3" x2="249.7" y2="78.3"/>
			<line class="st7" x1="259.8" y1="11.3" x2="265.5" y2="11.3"/>
			<line class="st7" x1="262.6" y1="11.3" x2="262.6" y2="41.1"/>
			<line class="st7" x1="259.8" y1="41.1" x2="265.5" y2="41.1"/>
			<line class="st7" x1="272.7" y1="73.6" x2="278.4" y2="73.6"/>
			<line class="st7" x1="275.5" y1="73.6" x2="275.5" y2="96"/>
			<line class="st7" x1="272.7" y1="96" x2="278.4" y2="96"/>
			<line class="st7" x1="288.4" y1="17.3" x2="294.2" y2="17.3"/>
			<line class="st7" x1="291.3" y1="17.3" x2="291.3" y2="39.6"/>
			<line class="st7" x1="288.4" y1="39.6" x2="294.2" y2="39.6"/>
			<line class="st7" x1="301.3" y1="16.5" x2="307.1" y2="16.5"/>
			<line class="st7" x1="304.2" y1="16.5" x2="304.2" y2="38.8"/>
			<line class="st7" x1="301.3" y1="38.8" x2="307.1" y2="38.8"/>
			<line class="st7" x1="317.1" y1="32.4" x2="322.8" y2="32.4"/>
			<line class="st7" x1="320" y1="32.4" x2="320" y2="54.7"/>
			<line class="st7" x1="317.1" y1="54.7" x2="322.8" y2="54.7"/>
			<line class="st7" x1="330" y1="57.4" x2="335.7" y2="57.4"/>
			<line class="st7" x1="332.9" y1="57.4" x2="332.9" y2="72.3"/>
			<line class="st7" x1="330" y1="72.3" x2="335.7" y2="72.3"/>
			<rect x="227.5" y="1.4" class="st8" width="111.8" height="242.1"/>
		</g>
	</g>
</g>
<g>
	<g>
		<defs>
			<rect id="SVGID_00000181796504035489600740000011153895954708453258_" width="510.2" height="430.9"/>
		</defs>
		<clipPath id="SVGID_00000061454569929044975720000014094543734716788127_">
			<use xlink:href="#SVGID_00000181796504035489600740000011153895954708453258_"  style="overflow:visible;"/>
		</clipPath>
		<g style="clip-path:url(#SVGID_00000061454569929044975720000014094543734716788127_);">
			<text transform="matrix(1 0 0 1 198.1078 249.26)" class="st10 st11">0.0</text>
			<text transform="matrix(1 0 0 1 198.1078 174.77)" class="st10 st11">0.2</text>
			<text transform="matrix(1 0 0 1 198.1078 100.27)" class="st10 st11">0.4</text>
			<text transform="matrix(1 0 0 1 198.1078 25.78)" class="st10 st11">0.6</text>
			<line class="st12" x1="223.5" y1="243.5" x2="227.5" y2="243.5"/>
			<line class="st12" x1="223.5" y1="169" x2="227.5" y2="169"/>
			<line class="st12" x1="223.5" y1="94.5" x2="227.5" y2="94.5"/>
			<line class="st12" x1="223.5" y1="20" x2="227.5" y2="20"/>
			<line class="st12" x1="240.4" y1="247.5" x2="240.4" y2="243.5"/>
			<line class="st12" x1="269.1" y1="247.5" x2="269.1" y2="243.5"/>
			<line class="st12" x1="297.8" y1="247.5" x2="297.8" y2="243.5"/>
			<line class="st12" x1="326.4" y1="247.5" x2="326.4" y2="243.5"/>
			<polygon class="st0" points="194.3,370.3 238.7,249.9 256.8,256.4 212.4,376.7 			"/>
			<text transform="matrix(0.342 -0.9397 0.9397 0.342 207.2511 374.9112)" class="st10 st11">PCC</text>
			<text transform="matrix(0.342 -0.9397 0.9397 0.342 218.8106 343.1485)" class="st10 st11"> </text>
			<text transform="matrix(0.342 -0.9397 0.9397 0.342 220.213 339.2959)" class="st10 st11">7806</text>
			<text transform="matrix(0.342 -0.9397 0.9397 0.342 232.388 305.8428)" class="st10 st11"> </text>
			<text transform="matrix(0.342 -0.9397 0.9397 0.342 233.7562 302.084)" class="st10 st11">ΔmcyB</text>
			<text transform="matrix(0.342 -0.9397 0.9397 0.342 254.6219 323.9883)" class="st10 st11">PCC 7806</text>
			<text transform="matrix(0.342 -0.9397 0.9397 0.342 283.2818 323.9883)" class="st10 st11">PCC 9701</text>
			<text transform="matrix(0.342 -0.9397 0.9397 0.342 313.4649 319.8037)" class="st10 st11">NIES-843</text>
			<rect x="257.6" y="379.5" class="st0" width="51.6" height="18.9"/>
			<text transform="matrix(1 0 0 1 257.6309 393.2798)" class="st10 st11">Culture</text>
			<rect x="172.1" y="156.4" class="st0" width="20.1" height="9.2"/>
			<text transform="matrix(6.123234e-17 -1 1 6.123234e-17 185.8496 165.6602)" class="st10 st11">μ</text>
			<text transform="matrix(6.123234e-17 -1 1 6.123234e-17 189.6 155.8896)" class="st10 st13">m</text>
			<text transform="matrix(6.123234e-17 -1 1 6.123234e-17 189.6 146.5801)" class="st10 st13">a</text>
			<text transform="matrix(6.123234e-17 -1 1 6.123234e-17 189.6 140.3604)" class="st10 st13">x</text>
			<text transform="matrix(6.123234e-17 -1 1 6.123234e-17 186.6699 130.7598)" class="st14 st15">(</text>
			<rect x="172.9" y="115.2" class="st0" width="18.9" height="8.9"/>
			<text transform="matrix(6.123234e-17 -1 1 6.123234e-17 186.668 124.0996)" class="st10 st11">d</text>
			<rect x="172.9" y="106.3" class="st0" width="18.9" height="8.9"/>
			<text transform="matrix(6.123234e-17 -1 1 6.123234e-17 186.668 115.2002)" class="st10 st11">a</text>
			<rect x="172.9" y="98.3" class="st0" width="18.9" height="8"/>
			<text transform="matrix(6.123234e-17 -1 1 6.123234e-17 186.6699 106.2998)" class="st10 st11">y</text>
			<text transform="matrix(6.123234e-17 -1 1 6.123234e-17 178.72 98.2998)" class="st14 st13">−</text>
			<text transform="matrix(6.123234e-17 -1 1 6.123234e-17 178.72 92.1602)" class="st10 st13">1</text>
			<text transform="matrix(6.123234e-17 -1 1 6.123234e-17 186.6699 85.9404)" class="st14 st15">)</text>
			<text transform="matrix(1 0 0 1 175.13 15.11)" class="st16 st17">B</text>
		</g>
	</g>
</g>
<g>
	<g>
		<defs>
			<rect id="SVGID_00000141422486102587913500000005612526686684944301_" x="340.2" width="170.1" height="397.6"/>
		</defs>
		<clipPath id="SVGID_00000018947055883347543130000001995463647038739594_">
			<use xlink:href="#SVGID_00000141422486102587913500000005612526686684944301_"  style="overflow:visible;"/>
		</clipPath>
		<g style="clip-path:url(#SVGID_00000018947055883347543130000001995463647038739594_);">
			<rect x="340.2" class="st2" width="170.1" height="397.6"/>
		</g>
	</g>
</g>
<g>
	<g>
		<defs>
			<rect id="SVGID_00000125585370931633414860000017419697607550198956_" x="402.1" y="1.4" width="107.3" height="242.1"/>
		</defs>
		<clipPath id="SVGID_00000031927718456140407950000015384598683112081551_">
			<use xlink:href="#SVGID_00000125585370931633414860000017419697607550198956_"  style="overflow:visible;"/>
		</clipPath>
		<g style="clip-path:url(#SVGID_00000031927718456140407950000015384598683112081551_);">
			<rect x="402.1" y="1.4" class="st4" width="107.3" height="242.1"/>
			<rect x="402.1" y="201.2" class="st5" width="12.4" height="42.3"/>
			<rect x="414.4" y="172.8" class="st6" width="12.4" height="70.8"/>
			<rect x="429.6" y="172.9" class="st5" width="12.4" height="70.6"/>
			<rect x="442" y="177.7" class="st6" width="12.4" height="65.9"/>
			<rect x="457.1" y="105.4" class="st5" width="12.4" height="138.2"/>
			<rect x="469.5" y="12.5" class="st6" width="12.4" height="231"/>
			<rect x="484.6" y="165.3" class="st5" width="12.4" height="78.2"/>
			<rect x="497" y="162.6" class="st6" width="12.4" height="80.9"/>
			<rect x="402.1" y="1.4" class="st8" width="107.3" height="242.1"/>
		</g>
	</g>
</g>
<g>
	<g>
		<defs>
			<rect id="SVGID_00000118357708432189084560000006046636306137988748_" y="1.6" width="510.2" height="430.9"/>
		</defs>
		<clipPath id="SVGID_00000071532574573575689430000007136177985272949180_">
			<use xlink:href="#SVGID_00000118357708432189084560000006046636306137988748_"  style="overflow:visible;"/>
		</clipPath>
		<g style="clip-path:url(#SVGID_00000071532574573575689430000007136177985272949180_);">
			<rect x="386" y="237.2" class="st0" width="8.9" height="18.9"/>
			<text transform="matrix(1 0 0 1 385.9917 250.9004)" class="st10 st11">0</text>
			<rect x="377.1" y="178.5" class="st0" width="17.8" height="18.9"/>
			<text transform="matrix(1 0 0 1 377.0933 192.2104)" class="st10 st11">40</text>
			<rect x="377.1" y="119.8" class="st0" width="17.8" height="18.9"/>
			<text transform="matrix(1 0 0 1 377.0933 133.5205)" class="st10 st11">80</text>
			<rect x="368.2" y="61.1" class="st0" width="26.7" height="18.9"/>
			<text transform="matrix(1 0 0 1 368.1948 74.8208)" class="st10 st11">120</text>
			<rect x="368.2" y="2.4" class="st0" width="26.7" height="18.9"/>
			<text transform="matrix(1 0 0 1 368.1948 16.1304)" class="st10 st11">160</text>
			<line class="st12" x1="398.1" y1="245.2" x2="402.1" y2="245.2"/>
			<line class="st12" x1="398.1" y1="186.5" x2="402.1" y2="186.5"/>
			<line class="st12" x1="398.1" y1="127.8" x2="402.1" y2="127.8"/>
			<line class="st12" x1="398.1" y1="69.1" x2="402.1" y2="69.1"/>
			<line class="st12" x1="398.1" y1="10.4" x2="402.1" y2="10.4"/>
			<line class="st12" x1="414.4" y1="249.2" x2="414.4" y2="245.2"/>
			<line class="st12" x1="442" y1="249.2" x2="442" y2="245.2"/>
			<line class="st12" x1="469.5" y1="249.2" x2="469.5" y2="245.2"/>
			<line class="st12" x1="497" y1="249.2" x2="497" y2="245.2"/>
			<polygon class="st0" points="368.3,371.9 412.7,251.6 430.8,258 386.4,378.4 			"/>
			<text transform="matrix(0.342 -0.9397 0.9397 0.342 381.2713 376.5508)" class="st10 st11">PCC</text>
			<text transform="matrix(0.342 -0.9397 0.9397 0.342 392.8309 344.7891)" class="st10 st11"> </text>
			<text transform="matrix(0.342 -0.9397 0.9397 0.342 394.233 340.9366)" class="st10 st11">7806</text>
			<text transform="matrix(0.342 -0.9397 0.9397 0.342 406.4083 307.4834)" class="st10 st11"> </text>
			<text transform="matrix(0.342 -0.9397 0.9397 0.342 407.7762 303.7246)" class="st10 st11">ΔmcyB</text>
			<text transform="matrix(0.342 -0.9397 0.9397 0.342 427.5018 325.6289)" class="st10 st11">PCC 7806</text>
			<text transform="matrix(0.342 -0.9397 0.9397 0.342 455.0218 325.6289)" class="st10 st11">PCC 9701</text>
			<text transform="matrix(0.342 -0.9397 0.9397 0.342 484.065 321.4444)" class="st10 st11">NIES-843</text>
			<rect x="429.9" y="381.2" class="st0" width="51.6" height="18.9"/>
			<text transform="matrix(1 0 0 1 429.9312 394.9204)" class="st10 st11">Culture</text>
			<rect x="343" y="177.4" class="st0" width="18.9" height="12.4"/>
			<text transform="matrix(6.123234e-17 -1 1 6.123234e-17 356.7441 189.8711)" class="st10 st11">Q</text>
			<rect x="343" y="168.5" class="st0" width="18.9" height="8.9"/>
			<text transform="matrix(6.123234e-17 -1 1 6.123234e-17 356.748 177.4199)" class="st10 st11">u</text>
			<rect x="343" y="159.6" class="st0" width="18.9" height="8.9"/>
			<text transform="matrix(6.123234e-17 -1 1 6.123234e-17 356.748 168.5205)" class="st10 st11">o</text>
			<text transform="matrix(6.123234e-17 -1 1 6.123234e-17 356.75 159.6211)" class="st10 st11">t</text>
			<rect x="343" y="146.3" class="st0" width="18.9" height="8.9"/>
			<text transform="matrix(6.123234e-17 -1 1 6.123234e-17 356.748 155.1807)" class="st10 st11">a</text>
			<text transform="matrix(6.123234e-17 -1 1 6.123234e-17 356.75 142.2803)" class="st14 st15">(</text>
			<text transform="matrix(6.123234e-17 -1 1 6.123234e-17 356.75 135.6211)" class="st10 st11">f</text>
			<rect x="343" y="117.8" class="st0" width="18.9" height="13.3"/>
			<text transform="matrix(6.123234e-17 -1 1 6.123234e-17 356.748 131.1699)" class="st10 st11">m</text>
			<rect x="343" y="109" class="st0" width="18.9" height="8.9"/>
			<text transform="matrix(6.123234e-17 -1 1 6.123234e-17 356.748 117.8506)" class="st10 st11">o</text>
			<rect x="343" y="105.4" class="st0" width="19" height="3.6"/>
			<text transform="matrix(6.123234e-17 -1 1 6.123234e-17 356.7295 108.9512)" class="st10 st11">l</text>
			<rect x="343" y="93.4" class="st0" width="18.9" height="8"/>
			<text transform="matrix(6.123234e-17 -1 1 6.123234e-17 356.75 101.3906)" class="st10 st11">c</text>
			<rect x="343" y="84.5" class="st0" width="18.9" height="8.9"/>
			<text transform="matrix(6.123234e-17 -1 1 6.123234e-17 356.748 93.3906)" class="st10 st11">e</text>
			<rect x="343" y="80.9" class="st0" width="19" height="3.6"/>
			<text transform="matrix(6.123234e-17 -1 1 6.123234e-17 356.7295 84.4902)" class="st10 st11">l</text>
			<rect x="343" y="77.4" class="st0" width="19" height="3.6"/>
			<text transform="matrix(6.123234e-17 -1 1 6.123234e-17 356.7295 80.9307)" class="st10 st11">l</text>
			<text transform="matrix(6.123234e-17 -1 1 6.123234e-17 348.7999 77.3809)" class="st14 st13">−</text>
			<text transform="matrix(6.123234e-17 -1 1 6.123234e-17 348.7999 71.2305)" class="st10 st13">1</text>
			<text transform="matrix(6.123234e-17 -1 1 6.123234e-17 356.75 65.0107)" class="st14 st15">)</text>
			<text transform="matrix(1 0 0 1 345.21 16.7506)" class="st16 st17">C</text>
			<rect x="159.7" y="399.3" class="st4" width="190.9" height="33.2"/>
			<text transform="matrix(1 0 0 1 167.65 421.6306)" class="st10 st11">State</text>
			<rect x="213.7" y="408" class="st5" width="15.9" height="15.9"/>
			<rect x="285.5" y="408" class="st6" width="15.9" height="15.9"/>
			<text transform="matrix(1 0 0 1 238.23 420.4906)" class="st10 st24">Axenic</text>
			<text transform="matrix(1 0 0 1 310.07 420.4906)" class="st10 st24">Xenic</text>
			<text transform="matrix(0.9754 0 0 1 77.4751 200.4658)" class="st10 st25">*</text>
			<text transform="matrix(0.9754 0 0 1 159.7183 172.5752)" class="st10 st25">*</text>
			<text transform="matrix(0.9754 0 0 1 243.6748 59.271)" class="st10 st25">*</text>
			<text transform="matrix(0.9754 0 0 1 269.7314 77.376)" class="st10 st25">**</text>
		</g>
	</g>
	<g>
		<defs>
			<rect id="SVGID_00000093171194110223868240000010692562487616055715_" y="1.6" width="510.2" height="430.9"/>
		</defs>
		<clipPath id="SVGID_00000038395483734276795300000009303626558421396628_">
			<use xlink:href="#SVGID_00000093171194110223868240000010692562487616055715_"  style="overflow:visible;"/>
		</clipPath>
		<g style="clip-path:url(#SVGID_00000038395483734276795300000009303626558421396628_);">
			<text transform="matrix(1 0 0 1 242.2389 116.8341)" class="st27"><tspan x="0" y="0" class="st10 st17">A</tspan><tspan x="0" y="16.8" class="st10 st17">C</tspan></text>
		</g>
		<g style="clip-path:url(#SVGID_00000038395483734276795300000009303626558421396628_);">
		</g>
		<g style="clip-path:url(#SVGID_00000038395483734276795300000009303626558421396628_);">
		</g>
		<g style="clip-path:url(#SVGID_00000038395483734276795300000009303626558421396628_);">
			<text transform="matrix(1 0 0 1 76.0081 239.5255)" class="st10 st17">A</text>
			<g>
				<text transform="matrix(1 0 0 1 103.675 239.525)" class="st10 st17">A</text>
			</g>
			<g>
				<text transform="matrix(1 0 0 1 130.4976 239.5255)" class="st10 st17">A</text>
			</g>
			<g>
				<text transform="matrix(1 0 0 1 158.847 239.5248)" class="st10 st17">A</text>
			</g>
		</g>
	</g>
	<g>
		<defs>
			<rect id="SVGID_00000119834583112112582420000009676141611408611969_" y="1.6" width="510.2" height="430.9"/>
		</defs>
		<clipPath id="SVGID_00000046301970334368519400000002290088425551245702_">
			<use xlink:href="#SVGID_00000119834583112112582420000009676141611408611969_"  style="overflow:visible;"/>
		</clipPath>
		<g style="clip-path:url(#SVGID_00000046301970334368519400000002290088425551245702_);">
			<text transform="matrix(1 0 0 1 271.1825 116.8341)" class="st10 st17">A</text>
		</g>
	</g>
	<g>
		<defs>
			<rect id="SVGID_00000150104057498804151030000003615320613740535723_" y="1.6" width="510.2" height="430.9"/>
		</defs>
		<clipPath id="SVGID_00000092418244990904238620000015332690883816330907_">
			<use xlink:href="#SVGID_00000150104057498804151030000003615320613740535723_"  style="overflow:visible;"/>
		</clipPath>
		<g style="clip-path:url(#SVGID_00000092418244990904238620000015332690883816330907_);">
			<text transform="matrix(1 0 0 1 299.7742 116.8341)" class="st27"><tspan x="0" y="0" class="st10 st17">B</tspan><tspan x="0" y="16.8" class="st10 st17">C</tspan></text>
		</g>
	</g>
	<g>
		<defs>
			<rect id="SVGID_00000137834616959833705470000010550014294570088591_" y="1.6" width="510.2" height="430.9"/>
		</defs>
		<clipPath id="SVGID_00000032624256807125071860000003537520799245339056_">
			<use xlink:href="#SVGID_00000137834616959833705470000010550014294570088591_"  style="overflow:visible;"/>
		</clipPath>
		<g style="clip-path:url(#SVGID_00000032624256807125071860000003537520799245339056_);">
			<text transform="matrix(1 0 0 1 328.366 116.8342)" class="st27"><tspan x="0" y="0" class="st10 st17">A</tspan><tspan x="0" y="16.8" class="st10 st17">C</tspan></text>
		</g>
	</g>
	<g>
		<defs>
			<rect id="SVGID_00000077314267528374981480000015352962606415002763_" x="0.1" y="0" width="510.2" height="430.9"/>
		</defs>
		<clipPath id="SVGID_00000041999027107971952390000014917279370512182180_">
			<use xlink:href="#SVGID_00000077314267528374981480000015352962606415002763_"  style="overflow:visible;"/>
		</clipPath>
		<g style="clip-path:url(#SVGID_00000041999027107971952390000014917279370512182180_);">
			<text transform="matrix(1 0 0 1 230.8037 147.2665)" class="st4 st10 st17">a</text>
		</g>
		<g style="clip-path:url(#SVGID_00000041999027107971952390000014917279370512182180_);">
			<text transform="matrix(1 0 0 1 146.8991 187.9452)" class="st4 st10 st17">a</text>
		</g>
		<g style="clip-path:url(#SVGID_00000041999027107971952390000014917279370512182180_);">
			<text transform="matrix(1 0 0 1 119.5005 187.0789)" class="st4 st10 st17">a</text>
		</g>
		<g style="clip-path:url(#SVGID_00000041999027107971952390000014917279370512182180_);">
			<text transform="matrix(1 0 0 1 91.8749 187.6365)" class="st4 st10 st17">a</text>
		</g>
		<g style="clip-path:url(#SVGID_00000041999027107971952390000014917279370512182180_);">
			<text transform="matrix(1 0 0 1 64.8113 187.079)" class="st4 st10 st17">a</text>
		</g>
	</g>
</g>
<text transform="matrix(1 0 0 1 259.8494 147.4207)" class="st4 st10 st17">a</text>
<text transform="matrix(1 0 0 1 288.2389 146.957)" class="st4 st10 st17">a</text>
<text transform="matrix(1 0 0 1 317.1454 146.9571)" class="st4 st10 st17">a</text>
</svg>
