<?xml version="1.0" encoding="utf-8"?>
<!-- Generator: Adobe Illustrator 27.5.0, SVG Export Plug-In . SVG Version: 6.00 Build 0)  -->
<svg version="1.1" id="Layer_1" xmlns="http://www.w3.org/2000/svg" xmlns:xlink="http://www.w3.org/1999/xlink" x="0px" y="0px"
	 viewBox="0 0 510.2 850.4" style="enable-background:new 0 0 510.2 850.4;" xml:space="preserve">
<style type="text/css">
	.st0{fill:#FFFFFF;}
	.st1{clip-path:url(#SVGID_00000164487573177892696070000005969190907979438230_);}
	.st2{fill:#FFFFFF;stroke:#FFFFFF;stroke-width:1.55;stroke-linecap:round;stroke-linejoin:round;stroke-miterlimit:10;}
	.st3{fill:none;}
	.st4{clip-path:url(#SVGID_00000053531758642650506080000009857334124102253208_);}
	.st5{clip-path:url(#SVGID_00000063625643792558346780000007138314750727463096_);}
	.st6{fill:#C1FFC1;}
	.st7{fill:#228B22;}
	.st8{fill:none;stroke:#000000;stroke-width:1.07;stroke-linejoin:round;stroke-miterlimit:10;}
	.st9{fill:none;stroke:#000000;stroke-width:1.49;stroke-linecap:round;stroke-linejoin:round;stroke-miterlimit:10;}
	.st10{font-family:'ArialMT';}
	.st11{font-size:14px;}
	.st12{font-size:18px;}
	.st13{clip-path:url(#SVGID_00000027592649324074538390000000778742237422439821_);}
	.st14{font-size:16px;}
	.st15{fill:none;stroke:#333333;stroke-width:1.55;stroke-linejoin:round;stroke-miterlimit:10;}
	.st16{font-size:11.2px;}
	.st17{font-family:'Symbol';}
	.st18{font-size:20px;}
	.st19{font-family:'Arial-BoldMT';}
	.st20{clip-path:url(#SVGID_00000062188548828487228090000003431119321597483653_);}
	.st21{clip-path:url(#SVGID_00000182489258158564359830000005934194994607248569_);}
	.st22{clip-path:url(#SVGID_00000180350632782912452240000011805789360226500530_);}
	.st23{clip-path:url(#SVGID_00000127032259305738429120000015943546978656925581_);}
	.st24{clip-path:url(#SVGID_00000181771899991119705810000000993137238496144301_);}
	.st25{clip-path:url(#SVGID_00000004548129713569357950000009991659384324361609_);}
	.st26{clip-path:url(#SVGID_00000100362808723150493470000009291836771587033733_);}
	.st27{clip-path:url(#SVGID_00000114781820974099634690000013988393729378980754_);}
	.st28{clip-path:url(#SVGID_00000107584742593885491820000002050847302833328015_);}
	.st29{clip-path:url(#SVGID_00000093880160382954062950000015478122543775581607_);}
	.st30{clip-path:url(#SVGID_00000121266287947275562790000015733952298136823694_);}
	.st31{clip-path:url(#SVGID_00000134215821921524940030000013567304790810884250_);}
	.st32{clip-path:url(#SVGID_00000105387045175125600950000009677905953199190188_);}
	.st33{clip-path:url(#SVGID_00000177484199406993411310000010787010127536959666_);}
	.st34{font-size:12.8px;}
</style>
<g>
	<g>
		<g>
			<rect id="SVGID_1_" x="336.8" y="404.2" class="st0" width="172.6" height="408.6"/>
		</g>
		<g>
			<defs>
				<rect id="SVGID_00000143610527799681782690000016729248541325543560_" x="336.8" y="404.2" width="172.6" height="408.6"/>
			</defs>
			<clipPath id="SVGID_00000110440401301998911820000014123452438606514612_">
				<use xlink:href="#SVGID_00000143610527799681782690000016729248541325543560_"  style="overflow:visible;"/>
			</clipPath>
			<g style="clip-path:url(#SVGID_00000110440401301998911820000014123452438606514612_);">
				<rect x="340.3" y="404.2" class="st2" width="172.6" height="408.6"/>
			</g>
		</g>
	</g>
</g>
<rect y="0" class="st3" width="510.2" height="850.4"/>
<g>
	<g>
		<g>
			<defs>
				<rect id="SVGID_00000077305309655910284570000003929838660846196100_" y="0" width="170.1" height="408.6"/>
			</defs>
			<clipPath id="SVGID_00000164516193194404433920000014979847869320740256_">
				<use xlink:href="#SVGID_00000077305309655910284570000003929838660846196100_"  style="overflow:visible;"/>
			</clipPath>
			<g style="clip-path:url(#SVGID_00000164516193194404433920000014979847869320740256_);">
				<rect y="0" class="st2" width="170.1" height="408.6"/>
			</g>
		</g>
	</g>
</g>
<g>
	<g>
		<g>
			<defs>
				<rect id="SVGID_00000162335671107820119180000012489037486762320317_" x="61.9" y="1.4" width="107.3" height="272"/>
			</defs>
			<clipPath id="SVGID_00000140737212633947836820000016940748508694533257_">
				<use xlink:href="#SVGID_00000162335671107820119180000012489037486762320317_"  style="overflow:visible;"/>
			</clipPath>
			<g style="clip-path:url(#SVGID_00000140737212633947836820000016940748508694533257_);">
				<rect x="61.9" y="1.4" class="st0" width="107.3" height="272"/>
				<rect x="61.9" y="115" class="st6" width="12.4" height="158.4"/>
				<rect x="74.3" y="237.1" class="st7" width="12.4" height="36.4"/>
				<rect x="89.4" y="146.4" class="st6" width="12.4" height="127.1"/>
				<rect x="101.8" y="238.9" class="st7" width="12.4" height="34.5"/>
				<rect x="116.9" y="86.9" class="st6" width="12.4" height="186.5"/>
				<rect x="129.3" y="200.6" class="st7" width="12.4" height="72.9"/>
				<rect x="144.5" y="70.8" class="st6" width="12.4" height="202.7"/>
				<rect x="156.8" y="207.2" class="st7" width="12.4" height="66.2"/>
				<line class="st8" x1="65.3" y1="60.5" x2="70.9" y2="60.5"/>
				<line class="st8" x1="68.1" y1="60.5" x2="68.1" y2="169.6"/>
				<line class="st8" x1="65.3" y1="169.6" x2="70.9" y2="169.6"/>
				<line class="st8" x1="77.7" y1="223.3" x2="83.2" y2="223.3"/>
				<line class="st8" x1="80.5" y1="223.3" x2="80.5" y2="250.8"/>
				<line class="st8" x1="77.7" y1="250.8" x2="83.2" y2="250.8"/>
				<line class="st8" x1="92.9" y1="100.6" x2="98.4" y2="100.6"/>
				<line class="st8" x1="95.6" y1="100.6" x2="95.6" y2="192.1"/>
				<line class="st8" x1="92.9" y1="192.1" x2="98.4" y2="192.1"/>
				<line class="st8" x1="105.3" y1="223.8" x2="110.8" y2="223.8"/>
				<line class="st8" x1="108" y1="223.8" x2="108" y2="254.1"/>
				<line class="st8" x1="105.3" y1="254.1" x2="110.8" y2="254.1"/>
				<line class="st8" x1="120.4" y1="25.5" x2="125.9" y2="25.5"/>
				<line class="st8" x1="123.1" y1="25.5" x2="123.1" y2="148.4"/>
				<line class="st8" x1="120.4" y1="148.4" x2="125.9" y2="148.4"/>
				<line class="st8" x1="132.8" y1="179.2" x2="138.3" y2="179.2"/>
				<line class="st8" x1="135.5" y1="179.2" x2="135.5" y2="222"/>
				<line class="st8" x1="132.8" y1="222" x2="138.3" y2="222"/>
				<line class="st8" x1="147.9" y1="20.1" x2="153.4" y2="20.1"/>
				<line class="st8" x1="150.7" y1="20.1" x2="150.7" y2="121.4"/>
				<line class="st8" x1="147.9" y1="121.4" x2="153.4" y2="121.4"/>
				<line class="st8" x1="160.3" y1="191" x2="165.8" y2="191"/>
				<line class="st8" x1="163" y1="191" x2="163" y2="223.5"/>
				<line class="st8" x1="160.3" y1="223.5" x2="165.8" y2="223.5"/>
				<rect x="61.9" y="1.4" class="st9" width="107.3" height="272"/>
				<text transform="matrix(1 0 0 1 64.0631 217.4204)" class="st10 st11">a</text>
				<text transform="matrix(1 0 0 1 92.0186 217.5741)" class="st10 st11">a</text>
				<text transform="matrix(1 0 0 1 119.2856 217.8817)" class="st10 st11">a</text>
				<text transform="matrix(1 0 0 1 147.2063 217.5741)" class="st10 st11">a</text>
				<text transform="matrix(1 0 0 1 75.5814 267.6861)" class="st0 st10 st11">A</text>
				<text transform="matrix(1 0 0 1 103.6223 267.6861)" class="st0 st10 st11">A</text>
				<text transform="matrix(1 0 0 1 130.3922 267.6861)" class="st0 st10 st11">A</text>
				<text transform="matrix(1 0 0 1 158.0692 267.6862)" class="st0 st10 st11">A</text>
				<text transform="matrix(1 0 0 1 76.9776 224.6699)" class="st10 st12">*</text>
				<text transform="matrix(1 0 0 1 159.5278 192.12)" class="st10 st12">*</text>
			</g>
		</g>
	</g>
</g>
<g>
	<g>
		<g>
			<defs>
				<rect id="SVGID_00000050664667213869259370000014762420349441047976_" y="0" width="510.2" height="850.4"/>
			</defs>
			<clipPath id="SVGID_00000105386274615225176850000002720605021979987629_">
				<use xlink:href="#SVGID_00000050664667213869259370000014762420349441047976_"  style="overflow:visible;"/>
			</clipPath>
			<g style="clip-path:url(#SVGID_00000105386274615225176850000002720605021979987629_);">
				<rect x="45.8" y="265.5" class="st3" width="8.9" height="18.9"/>
				<text transform="matrix(1 0 0 1 45.8315 279.1901)" class="st10 st14">0</text>
				<rect x="28" y="210.9" class="st3" width="26.7" height="18.9"/>
				<text transform="matrix(1 0 0 1 28.0347 224.6701)" class="st10 st14">100</text>
				<rect x="28" y="156.4" class="st3" width="26.7" height="18.9"/>
				<text transform="matrix(1 0 0 1 28.0347 170.1599)" class="st10 st14">200</text>
				<rect x="28" y="101.9" class="st3" width="26.7" height="18.9"/>
				<text transform="matrix(1 0 0 1 28.0347 115.6398)" class="st10 st14">300</text>
				<rect x="28" y="47.4" class="st3" width="26.7" height="18.9"/>
				<text transform="matrix(1 0 0 1 28.0347 61.1301)" class="st10 st14">400</text>
				<line class="st15" x1="57.9" y1="273.5" x2="61.9" y2="273.5"/>
				<line class="st15" x1="57.9" y1="218.9" x2="61.9" y2="218.9"/>
				<line class="st15" x1="57.9" y1="164.4" x2="61.9" y2="164.4"/>
				<line class="st15" x1="57.9" y1="109.9" x2="61.9" y2="109.9"/>
				<line class="st15" x1="57.9" y1="55.4" x2="61.9" y2="55.4"/>
				<line class="st15" x1="74.3" y1="277.4" x2="74.3" y2="273.5"/>
				<line class="st15" x1="101.8" y1="277.4" x2="101.8" y2="273.5"/>
				<line class="st15" x1="129.3" y1="277.4" x2="129.3" y2="273.5"/>
				<line class="st15" x1="156.8" y1="277.4" x2="156.8" y2="273.5"/>
				<polygon class="st3" points="28.2,400.2 72.6,279.9 90.6,286.3 46.2,406.7 				"/>
				<text transform="matrix(0.342 -0.9397 0.9397 0.342 41.1118 404.8397)" class="st10 st14">PCC</text>
				<text transform="matrix(0.342 -0.9397 0.9397 0.342 52.6713 373.078)" class="st10 st14"> </text>
				<text transform="matrix(0.342 -0.9397 0.9397 0.342 54.0737 369.2255)" class="st10 st14">7806</text>
				<text transform="matrix(0.342 -0.9397 0.9397 0.342 66.2487 335.7714)" class="st10 st14"> </text>
				<text transform="matrix(0.342 -0.9397 0.9397 0.342 67.6169 332.0126)" class="st10 st14">ΔmcyB</text>
				<text transform="matrix(0.342 -0.9397 0.9397 0.342 87.342 353.9178)" class="st10 st14">PCC 7806</text>
				<text transform="matrix(0.342 -0.9397 0.9397 0.342 114.862 353.9178)" class="st10 st14">PCC 9701</text>
				<text transform="matrix(0.342 -0.9397 0.9397 0.342 143.9052 349.7333)" class="st10 st14">NIES-843</text>
				<text transform="matrix(6.123234e-17 -1 1 6.123234e-17 16.59 174.1896)" class="st10 st14">K</text>
				<text transform="matrix(6.123234e-17 -1 1 6.123234e-17 19.52 163.5197)" class="st10 st16">s</text>
				<text transform="matrix(6.123234e-17 -1 1 6.123234e-17 16.59 153.9201)" class="st17 st18">(</text>
				<rect x="2" y="138" class="st3" width="20.1" height="9.2"/>
				<text transform="matrix(6.123234e-17 -1 1 6.123234e-17 15.7695 147.2599)" class="st10 st14">μ</text>
				<rect x="2.9" y="128.6" class="st3" width="18.9" height="8.9"/>
				<text transform="matrix(6.123234e-17 -1 1 6.123234e-17 16.5879 137.4894)" class="st10 st14">gL</text>
				<rect x="1.9" y="120.3" class="st3" width="20.2" height="8.3"/>
				<text transform="matrix(6.123234e-17 -1 1 6.123234e-17 8.64 119.6896)" class="st17 st16">−</text>
				<text transform="matrix(6.123234e-17 -1 1 6.123234e-17 8.64 113.55)" class="st10 st16">1</text>
				<text transform="matrix(6.123234e-17 -1 1 6.123234e-17 16.59 91.468)" class="st17 st18">)</text>
				<rect x="5.1" y="3.1" class="st3" width="10.1" height="17.3"/>
				<text transform="matrix(1 0 0 1 5.0498 15.11)" class="st19 st11">A</text>
			</g>
		</g>
	</g>
</g>
<g>
	<g>
		<g>
			<defs>
				<rect id="SVGID_00000052785755095823156590000013555877655037172382_" x="170.1" y="0" width="170.1" height="408.6"/>
			</defs>
			<clipPath id="SVGID_00000134969907166751364160000007686853170160312738_">
				<use xlink:href="#SVGID_00000052785755095823156590000013555877655037172382_"  style="overflow:visible;"/>
			</clipPath>
			<g style="clip-path:url(#SVGID_00000134969907166751364160000007686853170160312738_);">
				<rect x="170.1" y="0" class="st2" width="170.1" height="408.6"/>
			</g>
		</g>
	</g>
</g>
<g>
	<g>
		<g>
			<defs>
				<rect id="SVGID_00000012472236809219226440000016236545212903897472_" x="227.5" y="1.4" width="111.8" height="272"/>
			</defs>
			<clipPath id="SVGID_00000111913987479994590560000011404111249853557662_">
				<use xlink:href="#SVGID_00000012472236809219226440000016236545212903897472_"  style="overflow:visible;"/>
			</clipPath>
			<g style="clip-path:url(#SVGID_00000111913987479994590560000011404111249853557662_);">
				<rect x="227.5" y="1.4" class="st0" width="111.8" height="272"/>
				<rect x="227.5" y="23" class="st6" width="12.9" height="250.5"/>
				<rect x="240.4" y="75.3" class="st7" width="12.9" height="198.2"/>
				<rect x="256.2" y="29.3" class="st6" width="12.9" height="244.1"/>
				<rect x="269.1" y="95.1" class="st7" width="12.9" height="178.3"/>
				<rect x="284.9" y="31.8" class="st6" width="12.9" height="241.7"/>
				<rect x="297.8" y="30.9" class="st7" width="12.9" height="242.5"/>
				<rect x="313.5" y="48.8" class="st6" width="12.9" height="224.7"/>
				<rect x="326.4" y="72.7" class="st7" width="12.9" height="200.7"/>
				<line class="st8" x1="231.1" y1="6.2" x2="236.8" y2="6.2"/>
				<line class="st8" x1="234" y1="6.2" x2="234" y2="39.7"/>
				<line class="st8" x1="231.1" y1="39.7" x2="236.8" y2="39.7"/>
				<line class="st8" x1="244" y1="62.7" x2="249.7" y2="62.7"/>
				<line class="st8" x1="246.9" y1="62.7" x2="246.9" y2="87.8"/>
				<line class="st8" x1="244" y1="87.8" x2="249.7" y2="87.8"/>
				<line class="st8" x1="259.8" y1="12.6" x2="265.5" y2="12.6"/>
				<line class="st8" x1="262.6" y1="12.6" x2="262.6" y2="46"/>
				<line class="st8" x1="259.8" y1="46" x2="265.5" y2="46"/>
				<line class="st8" x1="272.7" y1="82.6" x2="278.4" y2="82.6"/>
				<line class="st8" x1="275.5" y1="82.6" x2="275.5" y2="107.7"/>
				<line class="st8" x1="272.7" y1="107.7" x2="278.4" y2="107.7"/>
				<line class="st8" x1="288.4" y1="19.2" x2="294.2" y2="19.2"/>
				<line class="st8" x1="291.3" y1="19.2" x2="291.3" y2="44.3"/>
				<line class="st8" x1="288.4" y1="44.3" x2="294.2" y2="44.3"/>
				<line class="st8" x1="301.3" y1="18.4" x2="307.1" y2="18.4"/>
				<line class="st8" x1="304.2" y1="18.4" x2="304.2" y2="43.5"/>
				<line class="st8" x1="301.3" y1="43.5" x2="307.1" y2="43.5"/>
				<line class="st8" x1="317.1" y1="36.2" x2="322.8" y2="36.2"/>
				<line class="st8" x1="320" y1="36.2" x2="320" y2="61.3"/>
				<line class="st8" x1="317.1" y1="61.3" x2="322.8" y2="61.3"/>
				<line class="st8" x1="330" y1="64.3" x2="335.7" y2="64.3"/>
				<line class="st8" x1="332.9" y1="64.3" x2="332.9" y2="81.1"/>
				<line class="st8" x1="330" y1="81.1" x2="335.7" y2="81.1"/>
				<rect x="227.5" y="1.4" class="st9" width="111.8" height="272"/>
			</g>
		</g>
	</g>
</g>
<g>
	<g>
		<g>
			<defs>
				<rect id="SVGID_00000011711618564232391730000016835436347726884015_" y="0" width="510.2" height="850.4"/>
			</defs>
			<clipPath id="SVGID_00000160906955940667349760000017666383518818782640_">
				<use xlink:href="#SVGID_00000011711618564232391730000016835436347726884015_"  style="overflow:visible;"/>
			</clipPath>
			<g style="clip-path:url(#SVGID_00000160906955940667349760000017666383518818782640_);">
				<text transform="matrix(1 0 0 1 198.1078 279.19)" class="st10 st14">0.0</text>
				<text transform="matrix(1 0 0 1 198.1078 195.48)" class="st10 st14">0.2</text>
				<text transform="matrix(1 0 0 1 198.1078 111.78)" class="st10 st14">0.4</text>
				<text transform="matrix(1 0 0 1 198.1078 28.08)" class="st10 st14">0.6</text>
				<line class="st15" x1="223.5" y1="273.5" x2="227.5" y2="273.5"/>
				<line class="st15" x1="223.5" y1="189.8" x2="227.5" y2="189.8"/>
				<line class="st15" x1="223.5" y1="106" x2="227.5" y2="106"/>
				<line class="st15" x1="223.5" y1="22.3" x2="227.5" y2="22.3"/>
				<line class="st15" x1="240.4" y1="277.4" x2="240.4" y2="273.5"/>
				<line class="st15" x1="269.1" y1="277.4" x2="269.1" y2="273.5"/>
				<line class="st15" x1="297.8" y1="277.4" x2="297.8" y2="273.5"/>
				<line class="st15" x1="326.4" y1="277.4" x2="326.4" y2="273.5"/>
				<polygon class="st3" points="194.3,400.2 238.7,279.9 256.8,286.3 212.4,406.7 				"/>
				<text transform="matrix(0.342 -0.9397 0.9397 0.342 207.2514 404.8397)" class="st10 st14">PCC</text>
				<text transform="matrix(0.342 -0.9397 0.9397 0.342 218.811 373.078)" class="st10 st14"> </text>
				<text transform="matrix(0.342 -0.9397 0.9397 0.342 220.2133 369.2245)" class="st10 st14">7806</text>
				<text transform="matrix(0.342 -0.9397 0.9397 0.342 232.3884 335.7714)" class="st10 st14"> </text>
				<text transform="matrix(0.342 -0.9397 0.9397 0.342 233.7563 332.0126)" class="st10 st14">ΔmcyB</text>
				<text transform="matrix(0.342 -0.9397 0.9397 0.342 254.622 353.9178)" class="st10 st14">PCC 7806</text>
				<text transform="matrix(0.342 -0.9397 0.9397 0.342 283.2822 353.9178)" class="st10 st14">PCC 9701</text>
				<text transform="matrix(0.342 -0.9397 0.9397 0.342 313.465 349.7333)" class="st10 st14">NIES-843</text>
				<rect x="172.1" y="171.4" class="st3" width="20.1" height="9.2"/>
				<text transform="matrix(6.123234e-17 -1 1 6.123234e-17 185.8496 180.6203)" class="st10 st14">μ</text>
				<text transform="matrix(6.123234e-17 -1 1 6.123234e-17 189.6 170.8498)" class="st10 st16">m</text>
				<text transform="matrix(6.123234e-17 -1 1 6.123234e-17 189.6 161.5402)" class="st10 st16">a</text>
				<text transform="matrix(6.123234e-17 -1 1 6.123234e-17 189.6 155.3195)" class="st10 st16">x</text>
				<text transform="matrix(6.123234e-17 -1 1 6.123234e-17 186.67 145.7199)" class="st17 st18">(</text>
				<rect x="172.9" y="130.2" class="st3" width="18.9" height="8.9"/>
				<text transform="matrix(6.123234e-17 -1 1 6.123234e-17 186.668 139.0598)" class="st10 st14">d</text>
				<rect x="172.9" y="121.3" class="st3" width="18.9" height="8.9"/>
				<text transform="matrix(6.123234e-17 -1 1 6.123234e-17 186.668 130.1594)" class="st10 st14">a</text>
				<rect x="172.9" y="113.3" class="st3" width="18.9" height="8"/>
				<text transform="matrix(6.123234e-17 -1 1 6.123234e-17 186.67 121.2599)" class="st10 st14">y</text>
				<text transform="matrix(6.123234e-17 -1 1 6.123234e-17 178.72 113.2599)" class="st17 st16">−</text>
				<text transform="matrix(6.123234e-17 -1 1 6.123234e-17 178.72 107.1203)" class="st10 st16">1</text>
				<text transform="matrix(6.123234e-17 -1 1 6.123234e-17 186.67 100.8996)" class="st17 st18">)</text>
				<text transform="matrix(1 0 0 1 175.13 15.11)" class="st19 st11">B</text>
			</g>
		</g>
	</g>
</g>
<g>
	<g>
		<g>
			<defs>
				<rect id="SVGID_00000076569713110450005730000012300089383583040134_" x="340.2" y="0" width="169.2" height="408.6"/>
			</defs>
			<clipPath id="SVGID_00000141429900232842456090000011896298029080712635_">
				<use xlink:href="#SVGID_00000076569713110450005730000012300089383583040134_"  style="overflow:visible;"/>
			</clipPath>
			<g style="clip-path:url(#SVGID_00000141429900232842456090000011896298029080712635_);">
				<rect x="340.2" y="0" class="st2" width="169.2" height="408.6"/>
			</g>
		</g>
	</g>
</g>
<g>
	<g>
		<g>
			<defs>
				<rect id="SVGID_00000170258049669230235710000015199056964928576155_" x="402.1" y="1.4" width="107.3" height="272"/>
			</defs>
			<clipPath id="SVGID_00000053517877960522613690000006970570605867484607_">
				<use xlink:href="#SVGID_00000170258049669230235710000015199056964928576155_"  style="overflow:visible;"/>
			</clipPath>
			<g style="clip-path:url(#SVGID_00000053517877960522613690000006970570605867484607_);">
				<rect x="402.1" y="1.4" class="st0" width="107.3" height="272"/>
				<rect x="402.1" y="225.9" class="st6" width="12.4" height="47.6"/>
				<rect x="414.4" y="193.9" class="st7" width="12.4" height="79.5"/>
				<rect x="429.6" y="194.1" class="st6" width="12.4" height="79.3"/>
				<rect x="442" y="199.4" class="st7" width="12.4" height="74"/>
				<rect x="457.1" y="118.2" class="st6" width="12.4" height="155.2"/>
				<rect x="469.5" y="13.9" class="st7" width="12.4" height="259.6"/>
				<rect x="484.6" y="185.5" class="st6" width="12.4" height="87.9"/>
				<rect x="497" y="182.6" class="st7" width="12.4" height="90.9"/>
				<rect x="402.1" y="1.4" class="st9" width="107.3" height="272"/>
			</g>
		</g>
	</g>
</g>
<g>
	<g>
		<g>
			<defs>
				<rect id="SVGID_00000183208078674026613560000007390134362532369556_" y="0" width="510.2" height="850.4"/>
			</defs>
			<clipPath id="SVGID_00000072987110377850222110000007850979090473402279_">
				<use xlink:href="#SVGID_00000183208078674026613560000007390134362532369556_"  style="overflow:visible;"/>
			</clipPath>
			<g style="clip-path:url(#SVGID_00000072987110377850222110000007850979090473402279_);">
				<rect x="386" y="265.5" class="st3" width="8.9" height="18.9"/>
				<text transform="matrix(1 0 0 1 385.9912 279.1901)" class="st10 st14">0</text>
				<rect x="377.1" y="199.5" class="st3" width="17.8" height="18.9"/>
				<text transform="matrix(1 0 0 1 377.0928 213.2399)" class="st10 st14">40</text>
				<rect x="377.1" y="133.6" class="st3" width="17.8" height="18.9"/>
				<text transform="matrix(1 0 0 1 377.0928 147.2902)" class="st10 st14">80</text>
				<rect x="368.2" y="67.6" class="st3" width="26.7" height="18.9"/>
				<text transform="matrix(1 0 0 1 368.1943 81.3498)" class="st10 st14">120</text>
				<rect x="368.2" y="1.7" class="st3" width="26.7" height="18.9"/>
				<text transform="matrix(1 0 0 1 368.1943 15.4001)" class="st10 st14">160</text>
				<line class="st15" x1="398.1" y1="273.5" x2="402.1" y2="273.5"/>
				<line class="st15" x1="398.1" y1="207.5" x2="402.1" y2="207.5"/>
				<line class="st15" x1="398.1" y1="141.6" x2="402.1" y2="141.6"/>
				<line class="st15" x1="398.1" y1="75.6" x2="402.1" y2="75.6"/>
				<line class="st15" x1="398.1" y1="9.7" x2="402.1" y2="9.7"/>
				<line class="st15" x1="414.4" y1="277.4" x2="414.4" y2="273.5"/>
				<line class="st15" x1="442" y1="277.4" x2="442" y2="273.5"/>
				<line class="st15" x1="469.5" y1="277.4" x2="469.5" y2="273.5"/>
				<line class="st15" x1="497" y1="277.4" x2="497" y2="273.5"/>
				<polygon class="st3" points="368.3,400.2 412.7,279.9 430.8,286.3 386.4,406.7 				"/>
				<text transform="matrix(0.342 -0.9397 0.9397 0.342 381.2712 404.8407)" class="st10 st14">PCC</text>
				<text transform="matrix(0.342 -0.9397 0.9397 0.342 392.8307 373.078)" class="st10 st14"> </text>
				<text transform="matrix(0.342 -0.9397 0.9397 0.342 394.2331 369.2255)" class="st10 st14">7806</text>
				<text transform="matrix(0.342 -0.9397 0.9397 0.342 406.4081 335.7723)" class="st10 st14"> </text>
				<text transform="matrix(0.342 -0.9397 0.9397 0.342 407.7763 332.0135)" class="st10 st14">ΔmcyB</text>
				<text transform="matrix(0.342 -0.9397 0.9397 0.342 427.5021 353.9178)" class="st10 st14">PCC 7806</text>
				<text transform="matrix(0.342 -0.9397 0.9397 0.342 455.0222 353.9178)" class="st10 st14">PCC 9701</text>
				<text transform="matrix(0.342 -0.9397 0.9397 0.342 484.0651 349.7333)" class="st10 st14">NIES-843</text>
				<rect x="343" y="190.7" class="st3" width="18.9" height="12.4"/>
				<text transform="matrix(6.123234e-17 -1 1 6.123234e-17 356.7451 203.1906)" class="st10 st14">Q</text>
				<rect x="343" y="181.8" class="st3" width="18.9" height="8.9"/>
				<text transform="matrix(6.123234e-17 -1 1 6.123234e-17 356.748 190.7394)" class="st10 st14">u</text>
				<rect x="343" y="172.9" class="st3" width="18.9" height="8.9"/>
				<text transform="matrix(6.123234e-17 -1 1 6.123234e-17 356.748 181.84)" class="st10 st14">o</text>
				<text transform="matrix(6.123234e-17 -1 1 6.123234e-17 356.75 172.9396)" class="st10 st14">t</text>
				<rect x="343" y="159.6" class="st3" width="18.9" height="8.9"/>
				<text transform="matrix(6.123234e-17 -1 1 6.123234e-17 356.748 168.5002)" class="st10 st14">a</text>
				<text transform="matrix(6.123234e-17 -1 1 6.123234e-17 356.75 155.5998)" class="st17 st18">(</text>
				<text transform="matrix(6.123234e-17 -1 1 6.123234e-17 356.75 148.9396)" class="st10 st14">f</text>
				<rect x="343" y="131.2" class="st3" width="18.9" height="13.3"/>
				<text transform="matrix(6.123234e-17 -1 1 6.123234e-17 356.748 144.5002)" class="st10 st14">m</text>
				<rect x="343" y="122.3" class="st3" width="18.9" height="8.9"/>
				<text transform="matrix(6.123234e-17 -1 1 6.123234e-17 356.748 131.1701)" class="st10 st14">o</text>
				<rect x="343" y="118.7" class="st3" width="19" height="3.6"/>
				<text transform="matrix(6.123234e-17 -1 1 6.123234e-17 356.7295 122.2707)" class="st10 st14">l</text>
				<rect x="343" y="91.9" class="st3" width="18.9" height="8"/>
				<text transform="matrix(6.123234e-17 -1 1 6.123234e-17 356.75 99.8762)" class="st10 st14">c</text>
				<rect x="343" y="83" class="st3" width="18.9" height="8.9"/>
				<text transform="matrix(6.123234e-17 -1 1 6.123234e-17 356.748 91.8762)" class="st10 st14">e</text>
				<rect x="343" y="79.4" class="st3" width="19" height="3.6"/>
				<text transform="matrix(6.123234e-17 -1 1 6.123234e-17 356.7295 82.9758)" class="st10 st14">l</text>
				<rect x="343" y="75.9" class="st3" width="19" height="3.6"/>
				<text transform="matrix(6.123234e-17 -1 1 6.123234e-17 356.7295 79.4162)" class="st10 st14">l</text>
				<text transform="matrix(6.123234e-17 -1 1 6.123234e-17 348.8 75.8664)" class="st17 st16">−</text>
				<text transform="matrix(6.123234e-17 -1 1 6.123234e-17 348.8 69.7258)" class="st10 st16">1</text>
				<text transform="matrix(6.123234e-17 -1 1 6.123234e-17 356.75 63.4963)" class="st17 st18">)</text>
				<text transform="matrix(1 0 0 1 345.21 15.11)" class="st19 st11">C</text>
				<text transform="matrix(6.123234e-17 -1 1 6.123234e-17 356.7295 114.4611)" class="st10 st14">N</text>
				<rect x="347.3" y="601.3" class="st3" width="18.9" height="12.4"/>
				<text transform="matrix(6.123234e-17 -1 1 6.123234e-17 360.9985 613.7492)" class="st10 st14">Q</text>
				<rect x="347.3" y="592.4" class="st3" width="18.9" height="8.9"/>
				<text transform="matrix(6.123234e-17 -1 1 6.123234e-17 361.0015 601.298)" class="st10 st14">u</text>
				<rect x="347.3" y="583.5" class="st3" width="18.9" height="8.9"/>
				<text transform="matrix(6.123234e-17 -1 1 6.123234e-17 361.0015 592.3986)" class="st10 st14">o</text>
				<text transform="matrix(6.123234e-17 -1 1 6.123234e-17 361.0034 583.4963)" class="st10 st14">t</text>
				<rect x="347.3" y="570.2" class="st3" width="18.9" height="8.9"/>
				<text transform="matrix(6.123234e-17 -1 1 6.123234e-17 361.0015 579.0588)" class="st10 st14">a</text>
				<text transform="matrix(6.123234e-17 -1 1 6.123234e-17 361.0034 566.1564)" class="st17 st18">(</text>
				<text transform="matrix(6.123234e-17 -1 1 6.123234e-17 361.0034 559.4963)" class="st10 st14">f</text>
				<rect x="347.3" y="541.7" class="st3" width="18.9" height="13.3"/>
				<text transform="matrix(6.123234e-17 -1 1 6.123234e-17 361.0015 555.0588)" class="st10 st14">m</text>
				<rect x="347.3" y="532.8" class="st3" width="18.9" height="8.9"/>
				<text transform="matrix(6.123234e-17 -1 1 6.123234e-17 361.0015 541.7287)" class="st10 st14">o</text>
				<rect x="347.3" y="529.3" class="st3" width="19" height="3.6"/>
				<text transform="matrix(6.123234e-17 -1 1 6.123234e-17 360.9829 532.8293)" class="st10 st14">l</text>
				<rect x="347.3" y="502.4" class="st3" width="18.9" height="8"/>
				<text transform="matrix(6.123234e-17 -1 1 6.123234e-17 361.0034 510.4328)" class="st10 st14">c</text>
				<rect x="347.3" y="493.5" class="st3" width="18.9" height="8.9"/>
				<text transform="matrix(6.123234e-17 -1 1 6.123234e-17 361.0015 502.4348)" class="st10 st14">e</text>
				<rect x="347.3" y="490" class="st3" width="19" height="3.6"/>
				<text transform="matrix(6.123234e-17 -1 1 6.123234e-17 360.9829 493.5344)" class="st10 st14">l</text>
				<rect x="347.3" y="486.4" class="st3" width="19" height="3.6"/>
				<text transform="matrix(6.123234e-17 -1 1 6.123234e-17 360.9829 489.9748)" class="st10 st14">l</text>
				<text transform="matrix(6.123234e-17 -1 1 6.123234e-17 353.0534 486.423)" class="st17 st16">−</text>
				<text transform="matrix(6.123234e-17 -1 1 6.123234e-17 353.0534 480.2824)" class="st10 st16">1</text>
				<text transform="matrix(6.123234e-17 -1 1 6.123234e-17 361.0034 474.0529)" class="st17 st18">)</text>
				<text transform="matrix(6.123234e-17 -1 1 6.123234e-17 360.9829 525.0187)" class="st10 st14">P</text>
			</g>
		</g>
	</g>
</g>
<g>
	<g>
		<g>
			<defs>
				<rect id="SVGID_00000089549547378350456440000007632101899806269591_" y="408.6" width="170.1" height="408.6"/>
			</defs>
			<clipPath id="SVGID_00000058570849001350847050000001575016166463169970_">
				<use xlink:href="#SVGID_00000089549547378350456440000007632101899806269591_"  style="overflow:visible;"/>
			</clipPath>
			<g style="clip-path:url(#SVGID_00000058570849001350847050000001575016166463169970_);">
				<rect y="408.6" class="st2" width="170.1" height="408.6"/>
			</g>
		</g>
	</g>
</g>
<g>
	<g>
		<g>
			<defs>
				<rect id="SVGID_00000039101777444580849320000010098468031768333226_" x="57.5" y="410" width="111.8" height="253"/>
			</defs>
			<clipPath id="SVGID_00000125582499625904906670000015392098541877986720_">
				<use xlink:href="#SVGID_00000039101777444580849320000010098468031768333226_"  style="overflow:visible;"/>
			</clipPath>
			<g style="clip-path:url(#SVGID_00000125582499625904906670000015392098541877986720_);">
				<rect x="57.5" y="410" class="st0" width="111.8" height="253"/>
				<rect x="57.5" y="562.2" class="st6" width="12.9" height="100.8"/>
				<rect x="70.3" y="614.8" class="st7" width="12.9" height="48.2"/>
				<rect x="86.1" y="637.2" class="st6" width="12.9" height="25.8"/>
				<rect x="99" y="645.4" class="st7" width="12.9" height="17.6"/>
				<rect x="114.8" y="512.6" class="st6" width="12.9" height="150.5"/>
				<rect x="127.7" y="463.2" class="st7" width="12.9" height="199.8"/>
				<rect x="143.4" y="550.3" class="st6" width="12.9" height="112.7"/>
				<rect x="156.3" y="552.3" class="st7" width="12.9" height="110.7"/>
				<line class="st8" x1="61" y1="541.2" x2="66.8" y2="541.2"/>
				<line class="st8" x1="63.9" y1="541.2" x2="63.9" y2="583.3"/>
				<line class="st8" x1="61" y1="583.3" x2="66.8" y2="583.3"/>
				<line class="st8" x1="73.9" y1="603" x2="79.7" y2="603"/>
				<line class="st8" x1="76.8" y1="603" x2="76.8" y2="626.6"/>
				<line class="st8" x1="73.9" y1="626.6" x2="79.7" y2="626.6"/>
				<line class="st8" x1="89.7" y1="632.7" x2="95.4" y2="632.7"/>
				<line class="st8" x1="92.6" y1="632.7" x2="92.6" y2="641.7"/>
				<line class="st8" x1="89.7" y1="641.7" x2="95.4" y2="641.7"/>
				<line class="st8" x1="102.6" y1="642" x2="108.3" y2="642"/>
				<line class="st8" x1="105.5" y1="642" x2="105.5" y2="648.8"/>
				<line class="st8" x1="102.6" y1="648.8" x2="108.3" y2="648.8"/>
				<line class="st8" x1="118.4" y1="474.9" x2="124.1" y2="474.9"/>
				<line class="st8" x1="121.2" y1="474.9" x2="121.2" y2="550.3"/>
				<line class="st8" x1="118.4" y1="550.3" x2="124.1" y2="550.3"/>
				<line class="st8" x1="131.3" y1="421" x2="137" y2="421"/>
				<line class="st8" x1="134.1" y1="421" x2="134.1" y2="505.4"/>
				<line class="st8" x1="131.3" y1="505.4" x2="137" y2="505.4"/>
				<line class="st8" x1="147" y1="525" x2="152.8" y2="525"/>
				<line class="st8" x1="149.9" y1="525" x2="149.9" y2="575.6"/>
				<line class="st8" x1="147" y1="575.6" x2="152.8" y2="575.6"/>
				<line class="st8" x1="159.9" y1="527.9" x2="165.7" y2="527.9"/>
				<line class="st8" x1="162.8" y1="527.9" x2="162.8" y2="576.8"/>
				<line class="st8" x1="159.9" y1="576.8" x2="165.7" y2="576.8"/>
				<rect x="57.5" y="410" class="st9" width="111.8" height="253"/>
			</g>
		</g>
	</g>
</g>
<g>
	<g>
		<g>
			<defs>
				<rect id="SVGID_00000144322407554385772130000010036734560459624854_" y="0" width="510.2" height="850.4"/>
			</defs>
			<clipPath id="SVGID_00000029733895763601465450000005360785987532906670_">
				<use xlink:href="#SVGID_00000144322407554385772130000010036734560459624854_"  style="overflow:visible;"/>
			</clipPath>
			<g style="clip-path:url(#SVGID_00000029733895763601465450000005360785987532906670_);">
				<text transform="matrix(1 0 0 1 28.0278 668.79)" class="st10 st14">0.0</text>
				<text transform="matrix(1 0 0 1 28.0278 598.5)" class="st10 st14">2.5</text>
				<text transform="matrix(1 0 0 1 28.0278 528.21)" class="st10 st14">5.0</text>
				<text transform="matrix(1 0 0 1 28.0278 457.92)" class="st10 st14">7.5</text>
				<line class="st15" x1="53.5" y1="663" x2="57.5" y2="663"/>
				<line class="st15" x1="53.5" y1="592.8" x2="57.5" y2="592.8"/>
				<line class="st15" x1="53.5" y1="522.5" x2="57.5" y2="522.5"/>
				<line class="st15" x1="53.5" y1="452.2" x2="57.5" y2="452.2"/>
				<line class="st15" x1="70.3" y1="667" x2="70.3" y2="663"/>
				<line class="st15" x1="99" y1="667" x2="99" y2="663"/>
				<line class="st15" x1="127.7" y1="667" x2="127.7" y2="663"/>
				<line class="st15" x1="156.3" y1="667" x2="156.3" y2="663"/>
				<polygon class="st3" points="24.2,789.8 68.6,669.5 86.7,675.9 42.3,796.3 				"/>
				<text transform="matrix(0.342 -0.9397 0.9397 0.342 37.1718 794.4403)" class="st10 st14">PCC</text>
				<text transform="matrix(0.342 -0.9397 0.9397 0.342 48.7314 762.6786)" class="st10 st14"> </text>
				<text transform="matrix(0.342 -0.9397 0.9397 0.342 50.1335 758.8251)" class="st10 st14">7806</text>
				<text transform="matrix(0.342 -0.9397 0.9397 0.342 62.3088 725.3719)" class="st10 st14"> </text>
				<text transform="matrix(0.342 -0.9397 0.9397 0.342 63.6767 721.6132)" class="st10 st14">ΔmcyB</text>
				<text transform="matrix(0.342 -0.9397 0.9397 0.342 84.5419 743.5184)" class="st10 st14">PCC 7806</text>
				<text transform="matrix(0.342 -0.9397 0.9397 0.342 113.2021 743.5184)" class="st10 st14">PCC 9701</text>
				<text transform="matrix(0.342 -0.9397 0.9397 0.342 143.3952 739.3339)" class="st10 st14">NIES-843</text>
				<rect x="87.6" y="799.1" class="st3" width="51.6" height="18.9"/>
				<text transform="matrix(1 0 0 1 87.5508 812.8)" class="st10 st14">Culture</text>
				<text transform="matrix(6.123234e-17 -1 1 6.123234e-17 16.59 573.2902)" class="st10 st14">K</text>
				<text transform="matrix(6.123234e-17 -1 1 6.123234e-17 19.52 562.6203)" class="st10 st16">s</text>
				<text transform="matrix(6.123234e-17 -1 1 6.123234e-17 16.59 553.0197)" class="st17 st18">(</text>
				<rect x="2" y="537.1" class="st3" width="20.1" height="9.2"/>
				<text transform="matrix(6.123234e-17 -1 1 6.123234e-17 15.7695 546.3596)" class="st10 st14">μ</text>
				<rect x="2.9" y="527.7" class="st3" width="18.9" height="8.9"/>
				<text transform="matrix(6.123234e-17 -1 1 6.123234e-17 16.5879 536.59)" class="st10 st14">gL</text>
				<rect x="1.9" y="519.4" class="st3" width="20.2" height="8.3"/>
				<text transform="matrix(6.123234e-17 -1 1 6.123234e-17 8.64 518.7902)" class="st17 st16">−</text>
				<text transform="matrix(6.123234e-17 -1 1 6.123234e-17 8.64 512.6496)" class="st10 st16">1</text>
				<text transform="matrix(6.123234e-17 -1 1 6.123234e-17 16.5878 492.0695)" class="st17 st18">)</text>
				<text transform="matrix(1 0 0 1 5.05 423.7)" class="st19 st11">D</text>
				<text transform="matrix(6.123234e-17 -1 1 6.123234e-17 15.6328 502.0539)" class="st10 st14">P</text>
			</g>
		</g>
	</g>
</g>
<g>
	<g>
		<g>
			<defs>
				<rect id="SVGID_00000039846360515059157620000010064891112277869712_" x="170.1" y="408.6" width="170.1" height="408.6"/>
			</defs>
			<clipPath id="SVGID_00000122702778348588922890000003696718394288647307_">
				<use xlink:href="#SVGID_00000039846360515059157620000010064891112277869712_"  style="overflow:visible;"/>
			</clipPath>
			<g style="clip-path:url(#SVGID_00000122702778348588922890000003696718394288647307_);">
				<rect x="170.1" y="408.6" class="st2" width="170.1" height="408.6"/>
			</g>
		</g>
	</g>
</g>
<g>
	<g>
		<g>
			<defs>
				<rect id="SVGID_00000137126306573931463470000015519290534570443431_" x="227.5" y="410" width="111.8" height="253"/>
			</defs>
			<clipPath id="SVGID_00000166634179620761334540000006244068448320580523_">
				<use xlink:href="#SVGID_00000137126306573931463470000015519290534570443431_"  style="overflow:visible;"/>
			</clipPath>
			<g style="clip-path:url(#SVGID_00000166634179620761334540000006244068448320580523_);">
				<rect x="227.5" y="410" class="st0" width="111.8" height="253"/>
				<rect x="227.5" y="447.9" class="st6" width="12.9" height="215.1"/>
				<rect x="240.4" y="470.9" class="st7" width="12.9" height="192.1"/>
				<rect x="256.2" y="476.4" class="st6" width="12.9" height="186.6"/>
				<rect x="269.1" y="481.1" class="st7" width="12.9" height="182"/>
				<rect x="284.9" y="454.1" class="st6" width="12.9" height="208.9"/>
				<rect x="297.8" y="435.4" class="st7" width="12.9" height="227.7"/>
				<rect x="313.5" y="453" class="st6" width="12.9" height="210.1"/>
				<rect x="326.4" y="449.8" class="st7" width="12.9" height="213.2"/>
				<line class="st8" x1="231.1" y1="444" x2="236.8" y2="444"/>
				<line class="st8" x1="234" y1="444" x2="234" y2="451.8"/>
				<line class="st8" x1="231.1" y1="451.8" x2="236.8" y2="451.8"/>
				<line class="st8" x1="244" y1="467" x2="249.7" y2="467"/>
				<line class="st8" x1="246.9" y1="467" x2="246.9" y2="474.8"/>
				<line class="st8" x1="244" y1="474.8" x2="249.7" y2="474.8"/>
				<line class="st8" x1="259.8" y1="472.5" x2="265.5" y2="472.5"/>
				<line class="st8" x1="262.6" y1="472.5" x2="262.6" y2="480.3"/>
				<line class="st8" x1="259.8" y1="480.3" x2="265.5" y2="480.3"/>
				<line class="st8" x1="272.7" y1="477.2" x2="278.4" y2="477.2"/>
				<line class="st8" x1="275.5" y1="477.2" x2="275.5" y2="485"/>
				<line class="st8" x1="272.7" y1="485" x2="278.4" y2="485"/>
				<line class="st8" x1="288.4" y1="446.3" x2="294.2" y2="446.3"/>
				<line class="st8" x1="291.3" y1="446.3" x2="291.3" y2="461.9"/>
				<line class="st8" x1="288.4" y1="461.9" x2="294.2" y2="461.9"/>
				<line class="st8" x1="301.3" y1="427.6" x2="307.1" y2="427.6"/>
				<line class="st8" x1="304.2" y1="427.6" x2="304.2" y2="443.2"/>
				<line class="st8" x1="301.3" y1="443.2" x2="307.1" y2="443.2"/>
				<line class="st8" x1="317.1" y1="449.1" x2="322.8" y2="449.1"/>
				<line class="st8" x1="320" y1="449.1" x2="320" y2="456.9"/>
				<line class="st8" x1="317.1" y1="456.9" x2="322.8" y2="456.9"/>
				<line class="st8" x1="330" y1="445.9" x2="335.7" y2="445.9"/>
				<line class="st8" x1="332.9" y1="445.9" x2="332.9" y2="453.7"/>
				<line class="st8" x1="330" y1="453.7" x2="335.7" y2="453.7"/>
				<rect x="227.5" y="410" class="st9" width="111.8" height="253"/>
			</g>
		</g>
	</g>
</g>
<g>
	<g>
		<g>
			<defs>
				<rect id="SVGID_00000042000513457041969780000003713661948119018882_" y="0" width="510.2" height="850.4"/>
			</defs>
			<clipPath id="SVGID_00000130642305300671044290000010214698225405906620_">
				<use xlink:href="#SVGID_00000042000513457041969780000003713661948119018882_"  style="overflow:visible;"/>
			</clipPath>
			<g style="clip-path:url(#SVGID_00000130642305300671044290000010214698225405906620_);">
				<text transform="matrix(1 0 0 1 198.1078 668.79)" class="st10 st14">0.0</text>
				<text transform="matrix(1 0 0 1 198.1078 590.93)" class="st10 st14">0.2</text>
				<text transform="matrix(1 0 0 1 198.1078 513.07)" class="st10 st14">0.4</text>
				<text transform="matrix(1 0 0 1 198.1078 435.21)" class="st10 st14">0.6</text>
				<line class="st15" x1="223.5" y1="663" x2="227.5" y2="663"/>
				<line class="st15" x1="223.5" y1="585.2" x2="227.5" y2="585.2"/>
				<line class="st15" x1="223.5" y1="507.3" x2="227.5" y2="507.3"/>
				<line class="st15" x1="223.5" y1="429.5" x2="227.5" y2="429.5"/>
				<line class="st15" x1="240.4" y1="667" x2="240.4" y2="663"/>
				<line class="st15" x1="269.1" y1="667" x2="269.1" y2="663"/>
				<line class="st15" x1="297.8" y1="667" x2="297.8" y2="663"/>
				<line class="st15" x1="326.4" y1="667" x2="326.4" y2="663"/>
				<polygon class="st3" points="194.3,789.8 238.7,669.5 256.8,675.9 212.4,796.3 				"/>
				<text transform="matrix(0.342 -0.9397 0.9397 0.342 207.2521 794.4403)" class="st10 st14">PCC</text>
				<text transform="matrix(0.342 -0.9397 0.9397 0.342 218.8117 762.6786)" class="st10 st14"> </text>
				<text transform="matrix(0.342 -0.9397 0.9397 0.342 220.2141 758.8251)" class="st10 st14">7806</text>
				<text transform="matrix(0.342 -0.9397 0.9397 0.342 232.3891 725.3719)" class="st10 st14"> </text>
				<text transform="matrix(0.342 -0.9397 0.9397 0.342 233.7573 721.6132)" class="st10 st14">ΔmcyB</text>
				<text transform="matrix(0.342 -0.9397 0.9397 0.342 254.622 743.5184)" class="st10 st14">PCC 7806</text>
				<text transform="matrix(0.342 -0.9397 0.9397 0.342 283.2822 743.5184)" class="st10 st14">PCC 9701</text>
				<text transform="matrix(0.342 -0.9397 0.9397 0.342 313.465 739.3339)" class="st10 st14">NIES-843</text>
				<rect x="257.6" y="799.1" class="st3" width="51.6" height="18.9"/>
				<text transform="matrix(1 0 0 1 257.6309 812.8)" class="st10 st14">Culture</text>
				<rect x="172.1" y="570.5" class="st3" width="20.1" height="9.2"/>
				<text transform="matrix(6.123234e-17 -1 1 6.123234e-17 185.8496 579.7199)" class="st10 st14">μ</text>
				<text transform="matrix(6.123234e-17 -1 1 6.123234e-17 189.6 569.9504)" class="st10 st16">m</text>
				<text transform="matrix(6.123234e-17 -1 1 6.123234e-17 189.6 560.6301)" class="st10 st16">a</text>
				<text transform="matrix(6.123234e-17 -1 1 6.123234e-17 189.6 554.4103)" class="st10 st16">x</text>
				<text transform="matrix(6.123234e-17 -1 1 6.123234e-17 186.67 544.8195)" class="st17 st18">(</text>
				<rect x="172.9" y="529.3" class="st3" width="18.9" height="8.9"/>
				<text transform="matrix(6.123234e-17 -1 1 6.123234e-17 186.668 538.1603)" class="st10 st14">d</text>
				<rect x="172.9" y="520.4" class="st3" width="18.9" height="8.9"/>
				<text transform="matrix(6.123234e-17 -1 1 6.123234e-17 186.668 529.2599)" class="st10 st14">a</text>
				<rect x="172.9" y="512.4" class="st3" width="18.9" height="8"/>
				<text transform="matrix(6.123234e-17 -1 1 6.123234e-17 186.67 520.3596)" class="st10 st14">y</text>
				<text transform="matrix(6.123234e-17 -1 1 6.123234e-17 178.72 512.3596)" class="st17 st16">−</text>
				<text transform="matrix(6.123234e-17 -1 1 6.123234e-17 178.72 506.2199)" class="st10 st16">1</text>
				<text transform="matrix(6.123234e-17 -1 1 6.123234e-17 186.67 500.0002)" class="st17 st18">)</text>
				<rect x="174.8" y="411.7" class="st3" width="9.3" height="17.3"/>
				<text transform="matrix(1 0 0 1 174.75 423.7004)" class="st19 st11">E</text>
			</g>
		</g>
	</g>
</g>
<g>
	<g>
		<g>
			<defs>
				<rect id="SVGID_00000013874784070404332770000007084905637171563703_" x="384.3" y="410" width="125.1" height="253"/>
			</defs>
			<clipPath id="SVGID_00000160906341782512472700000015030343512711640737_">
				<use xlink:href="#SVGID_00000013874784070404332770000007084905637171563703_"  style="overflow:visible;"/>
			</clipPath>
			<g style="clip-path:url(#SVGID_00000160906341782512472700000015030343512711640737_);">
				<rect x="384.3" y="410" class="st0" width="125.1" height="253"/>
				<rect x="384.3" y="571.2" class="st6" width="14.4" height="91.8"/>
				<rect x="398.7" y="601.6" class="st7" width="14.4" height="61.5"/>
				<rect x="416.4" y="599.8" class="st6" width="14.4" height="63.3"/>
				<rect x="430.8" y="611.3" class="st7" width="14.4" height="51.7"/>
				<rect x="448.4" y="526.4" class="st6" width="14.4" height="136.7"/>
				<rect x="462.9" y="416.2" class="st7" width="14.4" height="246.8"/>
				<rect x="480.5" y="429" class="st6" width="14.4" height="234.1"/>
				<rect x="495" y="474.3" class="st7" width="14.4" height="188.8"/>
				<rect x="384.3" y="410" class="st9" width="125.1" height="253"/>
			</g>
		</g>
	</g>
</g>
<g>
	<g>
		<g>
			<defs>
				<rect id="SVGID_00000068649802002513520330000003055113338863614085_" y="0" width="510.2" height="850.4"/>
			</defs>
			<clipPath id="SVGID_00000119084505000275008250000012220784674873412540_">
				<use xlink:href="#SVGID_00000068649802002513520330000003055113338863614085_"  style="overflow:visible;"/>
			</clipPath>
			<g style="clip-path:url(#SVGID_00000119084505000275008250000012220784674873412540_);">
				<rect x="368.2" y="655.1" class="st3" width="8.9" height="18.9"/>
				<text transform="matrix(1 0 0 1 368.1914 668.7902)" class="st10 st14">0</text>
				<rect x="368.2" y="582.8" class="st3" width="8.9" height="18.9"/>
				<text transform="matrix(1 0 0 1 368.1914 596.4904)" class="st10 st14">1</text>
				<rect x="368.2" y="510.5" class="st3" width="8.9" height="18.9"/>
				<text transform="matrix(1 0 0 1 368.1914 524.1896)" class="st10 st14">2</text>
				<rect x="368.2" y="438.2" class="st3" width="8.9" height="18.9"/>
				<text transform="matrix(1 0 0 1 368.1914 451.8898)" class="st10 st14">3</text>
				<line class="st15" x1="380.3" y1="663" x2="384.3" y2="663"/>
				<line class="st15" x1="380.3" y1="590.8" x2="384.3" y2="590.8"/>
				<line class="st15" x1="380.3" y1="518.5" x2="384.3" y2="518.5"/>
				<line class="st15" x1="380.3" y1="446.1" x2="384.3" y2="446.1"/>
				<line class="st15" x1="398.7" y1="667" x2="398.7" y2="663"/>
				<line class="st15" x1="430.8" y1="667" x2="430.8" y2="663"/>
				<line class="st15" x1="462.9" y1="667" x2="462.9" y2="663"/>
				<line class="st15" x1="495" y1="667" x2="495" y2="663"/>
				<polygon class="st3" points="352.6,789.8 397,669.5 415,675.9 370.6,796.3 				"/>
				<text transform="matrix(0.342 -0.9397 0.9397 0.342 365.5217 794.4393)" class="st10 st14">PCC</text>
				<text transform="matrix(0.342 -0.9397 0.9397 0.342 377.0815 762.6776)" class="st10 st14"> </text>
				<text transform="matrix(0.342 -0.9397 0.9397 0.342 378.4836 758.8251)" class="st10 st14">7806</text>
				<text transform="matrix(0.342 -0.9397 0.9397 0.342 390.6589 725.3719)" class="st10 st14"> </text>
				<text transform="matrix(0.342 -0.9397 0.9397 0.342 392.0268 721.6132)" class="st10 st14">ΔmcyB</text>
				<text transform="matrix(0.342 -0.9397 0.9397 0.342 416.322 743.5184)" class="st10 st14">PCC 7806</text>
				<text transform="matrix(0.342 -0.9397 0.9397 0.342 448.402 743.5184)" class="st10 st14">PCC 9701</text>
				<text transform="matrix(0.342 -0.9397 0.9397 0.342 482.0051 739.3339)" class="st10 st14">NIES-843</text>
				<rect x="421" y="799.1" class="st3" width="51.6" height="18.9"/>
				<text transform="matrix(1 0 0 1 421.0312 812.8)" class="st10 st14">Culture</text>
				<text transform="matrix(1 0 0 1 344.43 423.7)" class="st19 st11">F</text>
				<rect x="159.7" y="817.2" class="st0" width="190.9" height="33.2"/>
				<text transform="matrix(1 0 0 1 167.65 839.52)" class="st10 st14">State</text>
				<rect x="213.7" y="825.8" class="st6" width="15.9" height="15.9"/>
				<rect x="285.5" y="825.8" class="st7" width="15.9" height="15.9"/>
				<text transform="matrix(1 0 0 1 238.23 838.37)" class="st10 st34">Axenic</text>
				<text transform="matrix(1 0 0 1 310.07 838.37)" class="st10 st34">Xenic</text>
			</g>
		</g>
	</g>
</g>
<text transform="matrix(1 0 0 1 230.3477 217.574)" class="st10 st11">a</text>
<text transform="matrix(1 0 0 1 316.9795 217.8812)" class="st10 st11">a</text>
<text transform="matrix(1 0 0 1 287.9401 217.8812)" class="st10 st11">a</text>
<text transform="matrix(1 0 0 1 258.994 217.7276)" class="st10 st11">a</text>
<text transform="matrix(1 0 0 1 242.0068 181.3113)" class="st0 st10 st11">A</text>
<text transform="matrix(1 0 0 1 241.6068 198.1113)" class="st0 st10 st11">C</text>
<text transform="matrix(1 0 0 1 270.75 181.3111)" class="st0 st10 st11">A</text>
<text transform="matrix(1 0 0 1 299.8078 181.3113)" class="st0 st10 st11">B</text>
<text transform="matrix(1 0 0 1 299.4078 198.1113)" class="st0 st10 st11">C</text>
<text transform="matrix(1 0 0 1 327.8011 181.3113)" class="st0 st10 st11">A</text>
<text transform="matrix(1 0 0 1 327.4011 198.1113)" class="st0 st10 st11">C</text>
<text transform="matrix(1 0 0 1 243.173 62.0444)" class="st10 st12">*</text>
<text transform="matrix(1 0 0 1 269.1955 81.6857)" class="st10 st12">**</text>
<text transform="matrix(1 0 0 1 60.3629 625.4509)" class="st10 st11">a</text>
<text transform="matrix(1 0 0 1 88.419 657.2864)" class="st10 st11">b</text>
<text transform="matrix(1 0 0 1 117.3059 625.6049)" class="st10 st11">a</text>
<text transform="matrix(1 0 0 1 146.3918 625.4508)" class="st10 st11">a</text>
<text transform="matrix(1 0 0 1 71.9156 660.7894)" class="st0 st10 st11">A</text>
<text transform="matrix(1 0 0 1 100.957 660.7894)" class="st0 st10 st11">B</text>
<text transform="matrix(1 0 0 1 128.1848 660.7889)" class="st0 st10 st11">C</text>
<text transform="matrix(1 0 0 1 156.9545 660.7889)" class="st0 st10 st11">D</text>
<text transform="matrix(1 0 0 1 242.0066 583.3314)" class="st0 st10 st11">A</text>
<text transform="matrix(1 0 0 1 270.75 583.3309)" class="st0 st10 st11">A</text>
<text transform="matrix(1 0 0 1 299.8083 583.3311)" class="st0 st10 st11">B</text>
<text transform="matrix(1 0 0 1 327.8008 583.3313)" class="st0 st10 st11">B</text>
<text transform="matrix(1 0 0 1 230.4501 601.6026)" class="st10 st11">a</text>
<text transform="matrix(1 0 0 1 259.3437 601.6026)" class="st10 st11">b</text>
<text transform="matrix(1 0 0 1 287.7665 601.6026)" class="st10 st11">a</text>
<text transform="matrix(1 0 0 1 316.1198 601.7569)" class="st10 st11">a</text>
<text transform="matrix(1 0 0 1 239.6708 471.6901)" class="st10 st12">**</text>
<text transform="matrix(6.123234e-17 -1 1 6.123234e-17 16.59 104.1359)" class="st10 st14">N</text>
</svg>
