<?xml version="1.0" encoding="utf-8"?>
<!-- Generator: Adobe Illustrator 27.5.0, SVG Export Plug-In . SVG Version: 6.00 Build 0)  -->
<svg version="1.1" id="Layer_1" xmlns="http://www.w3.org/2000/svg" xmlns:xlink="http://www.w3.org/1999/xlink" x="0px" y="0px"
	 viewBox="0 0 510.2 430.9" style="enable-background:new 0 0 510.2 430.9;" xml:space="preserve">
<style type="text/css">
	.st0{fill:none;}
	.st1{clip-path:url(#SVGID_00000007430782506966685170000012543935297965871773_);}
	.st2{fill:#FFFFFF;stroke:#FFFFFF;stroke-width:1.55;stroke-linecap:round;stroke-linejoin:round;stroke-miterlimit:10;}
	.st3{clip-path:url(#SVGID_00000052798932148444651100000001466671651536109187_);}
	.st4{fill:#FFFFFF;}
	.st5{fill:#737373;}
	.st6{fill:#D9D9D9;}
	.st7{fill:none;stroke:#000000;stroke-width:1.07;stroke-linejoin:round;stroke-miterlimit:10;}
	.st8{fill:none;stroke:#000000;stroke-width:1.49;stroke-linecap:round;stroke-linejoin:round;stroke-miterlimit:10;}
	.st9{clip-path:url(#SVGID_00000123420267322678975840000003890183641818038207_);}
	.st10{font-family:'ArialMT';}
	.st11{font-size:16px;}
	.st12{fill:none;stroke:#333333;stroke-width:1.55;stroke-linejoin:round;stroke-miterlimit:10;}
	.st13{enable-background:new    ;}
	.st14{font-size:11.2px;}
	.st15{font-family:'Symbol';}
	.st16{font-size:20px;}
	.st17{font-family:'Arial-BoldMT';}
	.st18{font-size:14px;}
	.st19{clip-path:url(#SVGID_00000118390630929879478520000001355028863254748326_);}
	.st20{clip-path:url(#SVGID_00000142868141501759745380000008345569638044245384_);}
	.st21{clip-path:url(#SVGID_00000115500550611203383810000008828583171488110769_);}
	.st22{clip-path:url(#SVGID_00000134238779401195190580000011238541525769451177_);}
	.st23{clip-path:url(#SVGID_00000144308676631084194500000005747300513721644715_);}
	.st24{clip-path:url(#SVGID_00000116197377844934859520000007114967844983679412_);}
	.st25{font-size:12.8px;}
</style>
<rect x="0" y="0" class="st0" width="510.2" height="430.9"/>
<g>
	<defs>
		<rect id="SVGID_1_" x="0" y="0" width="510.2" height="430.9"/>
	</defs>
	<clipPath id="SVGID_00000183952677880187057950000001861878743065340335_">
		<use xlink:href="#SVGID_1_"  style="overflow:visible;"/>
	</clipPath>
</g>
<g>
	<defs>
		<rect id="SVGID_00000080165254330968957120000008161509646096462984_" x="0" y="0" width="510.2" height="397.6"/>
	</defs>
	<clipPath id="SVGID_00000070091737863412624990000014837195934841616818_">
		<use xlink:href="#SVGID_00000080165254330968957120000008161509646096462984_"  style="overflow:visible;"/>
	</clipPath>
</g>
<g>
	<defs>
		<rect id="SVGID_00000062152672679906638130000013978116807339273390_" x="0" y="0" width="510.2" height="430.9"/>
	</defs>
	<clipPath id="SVGID_00000015329024715619691120000015846203045603991942_">
		<use xlink:href="#SVGID_00000062152672679906638130000013978116807339273390_"  style="overflow:visible;"/>
	</clipPath>
</g>
<g>
	<defs>
		<rect id="SVGID_00000075133131172289095710000018194176219891946930_" x="0" y="0" width="170.1" height="397.6"/>
	</defs>
	<clipPath id="SVGID_00000168074783003143953830000015268128169505627304_">
		<use xlink:href="#SVGID_00000075133131172289095710000018194176219891946930_"  style="overflow:visible;"/>
	</clipPath>
	<g style="clip-path:url(#SVGID_00000168074783003143953830000015268128169505627304_);">
		<rect x="0" y="0" class="st2" width="170.1" height="397.6"/>
	</g>
</g>
<g>
	<defs>
		<rect id="SVGID_00000069356954532127401160000014810461497217661340_" x="0" y="0" width="510.2" height="430.9"/>
	</defs>
	<clipPath id="SVGID_00000013186768812251660970000009360267886767369097_">
		<use xlink:href="#SVGID_00000069356954532127401160000014810461497217661340_"  style="overflow:visible;"/>
	</clipPath>
</g>
<g>
	<defs>
		<rect id="SVGID_00000125581613897252047750000009840976609223337660_" x="57.4" y="1.4" width="111.8" height="242.1"/>
	</defs>
	<clipPath id="SVGID_00000078013467740842814450000007001090805638656388_">
		<use xlink:href="#SVGID_00000125581613897252047750000009840976609223337660_"  style="overflow:visible;"/>
	</clipPath>
	<g style="clip-path:url(#SVGID_00000078013467740842814450000007001090805638656388_);">
		<rect x="57.4" y="1.4" class="st4" width="111.8" height="242.1"/>
		<rect x="57.4" y="147.1" class="st5" width="12.9" height="96.4"/>
		<rect x="70.3" y="197.4" class="st6" width="12.9" height="46.1"/>
		<rect x="86.1" y="218.8" class="st5" width="12.9" height="24.7"/>
		<rect x="99" y="226.6" class="st6" width="12.9" height="16.9"/>
		<rect x="114.8" y="99.6" class="st5" width="12.9" height="143.9"/>
		<rect x="127.7" y="52.3" class="st6" width="12.9" height="191.2"/>
		<rect x="143.4" y="135.7" class="st5" width="12.9" height="107.9"/>
		<rect x="156.3" y="137.6" class="st6" width="12.9" height="105.9"/>
		<line class="st7" x1="61" y1="126.9" x2="66.8" y2="126.9"/>
		<line class="st7" x1="63.9" y1="126.9" x2="63.9" y2="167.3"/>
		<line class="st7" x1="61" y1="167.3" x2="66.8" y2="167.3"/>
		<line class="st7" x1="73.9" y1="186.1" x2="79.7" y2="186.1"/>
		<line class="st7" x1="76.8" y1="186.1" x2="76.8" y2="208.7"/>
		<line class="st7" x1="73.9" y1="208.7" x2="79.7" y2="208.7"/>
		<line class="st7" x1="89.7" y1="214.5" x2="95.4" y2="214.5"/>
		<line class="st7" x1="92.6" y1="214.5" x2="92.6" y2="223.1"/>
		<line class="st7" x1="89.7" y1="223.1" x2="95.4" y2="223.1"/>
		<line class="st7" x1="102.6" y1="223.4" x2="108.3" y2="223.4"/>
		<line class="st7" x1="105.5" y1="223.4" x2="105.5" y2="229.9"/>
		<line class="st7" x1="102.6" y1="229.9" x2="108.3" y2="229.9"/>
		<line class="st7" x1="118.3" y1="63.5" x2="124.1" y2="63.5"/>
		<line class="st7" x1="121.2" y1="63.5" x2="121.2" y2="135.6"/>
		<line class="st7" x1="118.3" y1="135.6" x2="124.1" y2="135.6"/>
		<line class="st7" x1="131.2" y1="12" x2="137" y2="12"/>
		<line class="st7" x1="134.1" y1="12" x2="134.1" y2="92.7"/>
		<line class="st7" x1="131.2" y1="92.7" x2="137" y2="92.7"/>
		<line class="st7" x1="147" y1="111.4" x2="152.7" y2="111.4"/>
		<line class="st7" x1="149.9" y1="111.4" x2="149.9" y2="159.9"/>
		<line class="st7" x1="147" y1="159.9" x2="152.7" y2="159.9"/>
		<line class="st7" x1="159.9" y1="114.2" x2="165.6" y2="114.2"/>
		<line class="st7" x1="162.8" y1="114.2" x2="162.8" y2="161"/>
		<line class="st7" x1="159.9" y1="161" x2="165.6" y2="161"/>
		<rect x="57.4" y="1.4" class="st8" width="111.8" height="242.1"/>
	</g>
</g>
<g>
	<defs>
		<rect id="SVGID_00000136374778980973189460000009859281169481747603_" x="0" y="0" width="510.2" height="430.9"/>
	</defs>
	<clipPath id="SVGID_00000102542101744435566710000017355291169456451745_">
		<use xlink:href="#SVGID_00000136374778980973189460000009859281169481747603_"  style="overflow:visible;"/>
	</clipPath>
	<g style="clip-path:url(#SVGID_00000102542101744435566710000017355291169456451745_);">
		<text transform="matrix(1 0 0 1 28.0278 249.26)" class="st10 st11">0.0</text>
		<text transform="matrix(1 0 0 1 28.0278 182.01)" class="st10 st11">2.5</text>
		<text transform="matrix(1 0 0 1 28.0278 114.76)" class="st10 st11">5.0</text>
		<text transform="matrix(1 0 0 1 28.0278 47.51)" class="st10 st11">7.5</text>
		<line class="st12" x1="53.5" y1="243.5" x2="57.4" y2="243.5"/>
		<line class="st12" x1="53.5" y1="176.3" x2="57.4" y2="176.3"/>
		<line class="st12" x1="53.5" y1="109" x2="57.4" y2="109"/>
		<line class="st12" x1="53.5" y1="41.8" x2="57.4" y2="41.8"/>
		<line class="st12" x1="70.3" y1="247.5" x2="70.3" y2="243.5"/>
		<line class="st12" x1="99" y1="247.5" x2="99" y2="243.5"/>
		<line class="st12" x1="127.7" y1="247.5" x2="127.7" y2="243.5"/>
		<line class="st12" x1="156.3" y1="247.5" x2="156.3" y2="243.5"/>
		<polygon class="st0" points="24.2,370.3 68.6,249.9 86.7,256.4 42.3,376.7 		"/>
		<text transform="matrix(0.342 -0.9397 0.9397 0.342 37.1707 374.9107)" class="st13"><tspan x="0" y="0" class="st10 st11">PCC</tspan><tspan x="33.8" y="0" class="st10 st11"> </tspan><tspan x="37.9" y="0" class="st10 st11">7806</tspan><tspan x="73.5" y="0" class="st10 st11"> </tspan><tspan x="77.5" y="0" class="st10 st11">ΔmcyB</tspan></text>
		<text transform="matrix(0.342 -0.9397 0.9397 0.342 84.5419 323.9882)" class="st10 st11">PCC 7806</text>
		<text transform="matrix(0.342 -0.9397 0.9397 0.342 113.2018 323.9882)" class="st10 st11">PCC 9701</text>
		<text transform="matrix(0.342 -0.9397 0.9397 0.342 143.395 319.8036)" class="st10 st11">NIES-843</text>
		<rect x="87.6" y="379.5" class="st0" width="51.6" height="18.9"/>
		<text transform="matrix(1 0 0 1 87.5508 393.2798)" class="st10 st11">Culture</text>
		<text transform="matrix(6.123234e-17 -1 1 6.123234e-17 16.59 159.2305)" class="st10 st11">K</text>
		<text transform="matrix(6.123234e-17 -1 1 6.123234e-17 19.52 148.5596)" class="st10 st14">s</text>
		<text transform="matrix(6.123234e-17 -1 1 6.123234e-17 16.59 138.96)" class="st15 st16">(</text>
		<rect x="2" y="123.1" class="st0" width="20.1" height="9.2"/>
		<text transform="matrix(6.123234e-17 -1 1 6.123234e-17 15.7695 132.2998)" class="st10 st11">μ</text>
		<rect x="2.9" y="113.6" class="st0" width="18.9" height="8.9"/>
		<text transform="matrix(6.123234e-17 -1 1 6.123234e-17 16.5879 122.5298)" class="st10 st11">g</text>
		<rect x="1.9" y="105.3" class="st0" width="20.2" height="8.3"/>
		<text transform="matrix(6.123234e-17 -1 1 6.123234e-17 8.64 104.7305)" class="st15 st14">−</text>
		<text transform="matrix(6.123234e-17 -1 1 6.123234e-17 8.64 98.5898)" class="st10 st14">1</text>
		<text transform="matrix(6.123234e-17 -1 1 6.123234e-17 16.59 92.3701)" class="st15 st16">)</text>
		<rect x="5" y="3.1" class="st0" width="10.1" height="17.3"/>
		<text transform="matrix(1 0 0 1 5.0498 15.1099)" class="st17 st18">A</text>
	</g>
</g>
<g>
	<defs>
		<rect id="SVGID_00000052786819080560238120000007670760965010774692_" x="170.1" y="0" width="170.1" height="397.6"/>
	</defs>
	<clipPath id="SVGID_00000013912359151735992060000015037976964161072571_">
		<use xlink:href="#SVGID_00000052786819080560238120000007670760965010774692_"  style="overflow:visible;"/>
	</clipPath>
	<g style="clip-path:url(#SVGID_00000013912359151735992060000015037976964161072571_);">
		<rect x="170.1" y="0" class="st2" width="170.1" height="397.6"/>
	</g>
</g>
<g>
	<defs>
		<rect id="SVGID_00000031928145526379676410000009947141623901877417_" x="0" y="0" width="510.2" height="430.9"/>
	</defs>
	<clipPath id="SVGID_00000028323659190989039520000010751944902303099021_">
		<use xlink:href="#SVGID_00000031928145526379676410000009947141623901877417_"  style="overflow:visible;"/>
	</clipPath>
</g>
<g>
	<defs>
		<rect id="SVGID_00000091717068678675146110000010101514837345694610_" x="227.5" y="1.4" width="111.8" height="242.1"/>
	</defs>
	<clipPath id="SVGID_00000107583710778539639140000014935403230414150550_">
		<use xlink:href="#SVGID_00000091717068678675146110000010101514837345694610_"  style="overflow:visible;"/>
	</clipPath>
	<g style="clip-path:url(#SVGID_00000107583710778539639140000014935403230414150550_);">
		<rect x="227.5" y="1.4" class="st4" width="111.8" height="242.1"/>
		<rect x="227.5" y="37.7" class="st5" width="12.9" height="205.8"/>
		<rect x="240.4" y="59.7" class="st6" width="12.9" height="183.8"/>
		<rect x="256.2" y="65" class="st5" width="12.9" height="178.6"/>
		<rect x="269.1" y="69.4" class="st6" width="12.9" height="174.1"/>
		<rect x="284.8" y="43.6" class="st5" width="12.9" height="199.9"/>
		<rect x="297.8" y="25.7" class="st6" width="12.9" height="217.8"/>
		<rect x="313.5" y="42.5" class="st5" width="12.9" height="201"/>
		<rect x="326.4" y="39.5" class="st6" width="12.9" height="204"/>
		<line class="st7" x1="231.1" y1="34" x2="236.8" y2="34"/>
		<line class="st7" x1="234" y1="34" x2="234" y2="41.4"/>
		<line class="st7" x1="231.1" y1="41.4" x2="236.8" y2="41.4"/>
		<line class="st7" x1="244" y1="56" x2="249.7" y2="56"/>
		<line class="st7" x1="246.9" y1="56" x2="246.9" y2="63.4"/>
		<line class="st7" x1="244" y1="63.4" x2="249.7" y2="63.4"/>
		<line class="st7" x1="259.8" y1="61.2" x2="265.5" y2="61.2"/>
		<line class="st7" x1="262.6" y1="61.2" x2="262.6" y2="68.7"/>
		<line class="st7" x1="259.8" y1="68.7" x2="265.5" y2="68.7"/>
		<line class="st7" x1="272.7" y1="65.7" x2="278.4" y2="65.7"/>
		<line class="st7" x1="275.5" y1="65.7" x2="275.5" y2="73.1"/>
		<line class="st7" x1="272.7" y1="73.1" x2="278.4" y2="73.1"/>
		<line class="st7" x1="288.4" y1="36.2" x2="294.2" y2="36.2"/>
		<line class="st7" x1="291.3" y1="36.2" x2="291.3" y2="51.1"/>
		<line class="st7" x1="288.4" y1="51.1" x2="294.2" y2="51.1"/>
		<line class="st7" x1="301.3" y1="18.2" x2="307.1" y2="18.2"/>
		<line class="st7" x1="304.2" y1="18.2" x2="304.2" y2="33.1"/>
		<line class="st7" x1="301.3" y1="33.1" x2="307.1" y2="33.1"/>
		<line class="st7" x1="317.1" y1="38.8" x2="322.8" y2="38.8"/>
		<line class="st7" x1="320" y1="38.8" x2="320" y2="46.2"/>
		<line class="st7" x1="317.1" y1="46.2" x2="322.8" y2="46.2"/>
		<line class="st7" x1="330" y1="35.8" x2="335.7" y2="35.8"/>
		<line class="st7" x1="332.9" y1="35.8" x2="332.9" y2="43.2"/>
		<line class="st7" x1="330" y1="43.2" x2="335.7" y2="43.2"/>
		<rect x="227.5" y="1.4" class="st8" width="111.8" height="242.1"/>
	</g>
</g>
<g>
	<defs>
		<rect id="SVGID_00000160188874749689535130000013684893670006696376_" x="0" y="0" width="510.2" height="430.9"/>
	</defs>
	<clipPath id="SVGID_00000174564148576520830170000000657772042856609690_">
		<use xlink:href="#SVGID_00000160188874749689535130000013684893670006696376_"  style="overflow:visible;"/>
	</clipPath>
	<g style="clip-path:url(#SVGID_00000174564148576520830170000000657772042856609690_);">
		<text transform="matrix(1 0 0 1 198.1078 249.26)" class="st10 st11">0.0</text>
		<text transform="matrix(1 0 0 1 198.1078 174.77)" class="st10 st11">0.2</text>
		<text transform="matrix(1 0 0 1 198.1078 100.27)" class="st10 st11">0.4</text>
		<text transform="matrix(1 0 0 1 198.1078 25.78)" class="st10 st11">0.6</text>
		<line class="st12" x1="223.5" y1="243.5" x2="227.5" y2="243.5"/>
		<line class="st12" x1="223.5" y1="169" x2="227.5" y2="169"/>
		<line class="st12" x1="223.5" y1="94.5" x2="227.5" y2="94.5"/>
		<line class="st12" x1="223.5" y1="20" x2="227.5" y2="20"/>
		<line class="st12" x1="240.4" y1="247.5" x2="240.4" y2="243.5"/>
		<line class="st12" x1="269.1" y1="247.5" x2="269.1" y2="243.5"/>
		<line class="st12" x1="297.8" y1="247.5" x2="297.8" y2="243.5"/>
		<line class="st12" x1="326.4" y1="247.5" x2="326.4" y2="243.5"/>
		<polygon class="st0" points="194.3,370.3 238.7,249.9 256.8,256.4 212.4,376.7 		"/>
		<text transform="matrix(0.342 -0.9397 0.9397 0.342 207.2511 374.9107)" class="st13"><tspan x="0" y="0" class="st10 st11">PCC</tspan><tspan x="33.8" y="0" class="st10 st11"> </tspan><tspan x="37.9" y="0" class="st10 st11">7806</tspan><tspan x="73.5" y="0" class="st10 st11"> </tspan><tspan x="77.5" y="0" class="st10 st11">ΔmcyB</tspan></text>
		<text transform="matrix(0.342 -0.9397 0.9397 0.342 254.622 323.9882)" class="st10 st11">PCC 7806</text>
		<text transform="matrix(0.342 -0.9397 0.9397 0.342 283.2819 323.9882)" class="st10 st11">PCC 9701</text>
		<text transform="matrix(0.342 -0.9397 0.9397 0.342 313.465 319.8036)" class="st10 st11">NIES-843</text>
		<rect x="257.6" y="379.5" class="st0" width="51.6" height="18.9"/>
		<text transform="matrix(1 0 0 1 257.6309 393.2798)" class="st10 st11">Culture</text>
		<rect x="172.1" y="156.4" class="st0" width="20.1" height="9.2"/>
		<text transform="matrix(6.123234e-17 -1 1 6.123234e-17 185.8496 165.6602)" class="st10 st11">μ</text>
		<text transform="matrix(6.123234e-17 -1 1 6.123234e-17 189.6 155.8896)" class="st10 st14">m</text>
		<text transform="matrix(6.123234e-17 -1 1 6.123234e-17 189.6 146.5801)" class="st10 st14">a</text>
		<text transform="matrix(6.123234e-17 -1 1 6.123234e-17 189.6 140.3604)" class="st10 st14">x</text>
		<text transform="matrix(6.123234e-17 -1 1 6.123234e-17 186.6699 130.7598)" class="st15 st16">(</text>
		<rect x="172.9" y="115.2" class="st0" width="18.9" height="8.9"/>
		<text transform="matrix(6.123234e-17 -1 1 6.123234e-17 186.668 124.1001)" class="st10 st11">d</text>
		<rect x="172.9" y="106.3" class="st0" width="18.9" height="8.9"/>
		<text transform="matrix(6.123234e-17 -1 1 6.123234e-17 186.668 115.2002)" class="st10 st11">a</text>
		<rect x="172.9" y="98.3" class="st0" width="18.9" height="8"/>
		<text transform="matrix(6.123234e-17 -1 1 6.123234e-17 186.6699 106.2998)" class="st10 st11">y</text>
		<text transform="matrix(6.123234e-17 -1 1 6.123234e-17 178.72 98.2998)" class="st15 st14">−</text>
		<text transform="matrix(6.123234e-17 -1 1 6.123234e-17 178.72 92.1602)" class="st10 st14">1</text>
		<text transform="matrix(6.123234e-17 -1 1 6.123234e-17 186.6699 85.9404)" class="st15 st16">)</text>
		<text transform="matrix(1 0 0 1 175.13 15.11)" class="st17 st18">B</text>
	</g>
</g>
<g>
	<defs>
		<rect id="SVGID_00000181046750137609837090000003607392896755253892_" x="340.2" y="0" width="170.1" height="397.6"/>
	</defs>
	<clipPath id="SVGID_00000129207953571466625900000000560106607752039095_">
		<use xlink:href="#SVGID_00000181046750137609837090000003607392896755253892_"  style="overflow:visible;"/>
	</clipPath>
	<g style="clip-path:url(#SVGID_00000129207953571466625900000000560106607752039095_);">
		<rect x="340.2" y="0" class="st2" width="170.1" height="397.6"/>
	</g>
</g>
<g>
	<defs>
		<rect id="SVGID_00000078016448891263839900000014445936263323082903_" x="0" y="0" width="510.2" height="430.9"/>
	</defs>
	<clipPath id="SVGID_00000178887448674656649460000012715255905590929048_">
		<use xlink:href="#SVGID_00000078016448891263839900000014445936263323082903_"  style="overflow:visible;"/>
	</clipPath>
</g>
<g>
	<defs>
		<rect id="SVGID_00000036228765697896320630000006846064434685140924_" x="384.3" y="1.4" width="125.1" height="242.1"/>
	</defs>
	<clipPath id="SVGID_00000119118570445113885120000012967972354705683075_">
		<use xlink:href="#SVGID_00000036228765697896320630000006846064434685140924_"  style="overflow:visible;"/>
	</clipPath>
	<g style="clip-path:url(#SVGID_00000119118570445113885120000012967972354705683075_);">
		<rect x="384.3" y="1.4" class="st4" width="125.1" height="242.1"/>
		<rect x="384.3" y="155.7" class="st5" width="14.4" height="87.8"/>
		<rect x="398.7" y="184.7" class="st6" width="14.4" height="58.8"/>
		<rect x="416.3" y="183" class="st5" width="14.4" height="60.5"/>
		<rect x="430.8" y="194" class="st6" width="14.4" height="49.5"/>
		<rect x="448.4" y="112.8" class="st5" width="14.4" height="130.8"/>
		<rect x="462.9" y="7.4" class="st6" width="14.4" height="236.1"/>
		<rect x="480.5" y="19.6" class="st5" width="14.4" height="223.9"/>
		<rect x="495" y="62.9" class="st6" width="14.4" height="180.6"/>
		<rect x="384.3" y="1.4" class="st8" width="125.1" height="242.1"/>
	</g>
</g>
<g>
	<defs>
		<rect id="SVGID_00000038376987665392478330000005410713862694372748_" x="0" y="0" width="510.2" height="430.9"/>
	</defs>
	<clipPath id="SVGID_00000071550861118329376420000015632561670136163243_">
		<use xlink:href="#SVGID_00000038376987665392478330000005410713862694372748_"  style="overflow:visible;"/>
	</clipPath>
	<g style="clip-path:url(#SVGID_00000071550861118329376420000015632561670136163243_);">
		<rect x="368.2" y="235.5" class="st0" width="8.9" height="18.9"/>
		<text transform="matrix(1 0 0 1 368.1914 249.2598)" class="st10 st11">0</text>
		<rect x="368.2" y="166.4" class="st0" width="8.9" height="18.9"/>
		<text transform="matrix(1 0 0 1 368.1914 180.0898)" class="st10 st11">1</text>
		<rect x="368.2" y="97.2" class="st0" width="8.9" height="18.9"/>
		<text transform="matrix(1 0 0 1 368.1914 110.9199)" class="st10 st11">2</text>
		<rect x="368.2" y="28" class="st0" width="8.9" height="18.9"/>
		<text transform="matrix(1 0 0 1 368.1914 41.7397)" class="st10 st11">3</text>
		<line class="st12" x1="380.3" y1="243.5" x2="384.3" y2="243.5"/>
		<line class="st12" x1="380.3" y1="174.3" x2="384.3" y2="174.3"/>
		<line class="st12" x1="380.3" y1="105.2" x2="384.3" y2="105.2"/>
		<line class="st12" x1="380.3" y1="36" x2="384.3" y2="36"/>
		<line class="st12" x1="398.7" y1="247.5" x2="398.7" y2="243.5"/>
		<line class="st12" x1="430.8" y1="247.5" x2="430.8" y2="243.5"/>
		<line class="st12" x1="462.9" y1="247.5" x2="462.9" y2="243.5"/>
		<line class="st12" x1="495" y1="247.5" x2="495" y2="243.5"/>
		<polygon class="st0" points="352.6,370.3 397,249.9 415,256.4 370.6,376.7 		"/>
		<text transform="matrix(0.342 -0.9397 0.9397 0.342 365.5216 374.9106)" class="st13"><tspan x="0" y="0" class="st10 st11">PCC</tspan><tspan x="33.8" y="0" class="st10 st11"> </tspan><tspan x="37.9" y="0" class="st10 st11">7806</tspan><tspan x="73.5" y="0" class="st10 st11"> </tspan><tspan x="77.5" y="0" class="st10 st11">ΔmcyB</tspan></text>
		<text transform="matrix(0.342 -0.9397 0.9397 0.342 416.322 323.9882)" class="st10 st11">PCC 7806</text>
		<text transform="matrix(0.342 -0.9397 0.9397 0.342 448.402 323.9882)" class="st10 st11">PCC 9701</text>
		<text transform="matrix(0.342 -0.9397 0.9397 0.342 482.0051 319.8036)" class="st10 st11">NIES-843</text>
		<rect x="421" y="379.5" class="st0" width="51.6" height="18.9"/>
		<text transform="matrix(1 0 0 1 421.0308 393.2798)" class="st10 st11">Culture</text>
		<rect x="343" y="175.8" class="st0" width="18.9" height="12.4"/>
		<text transform="matrix(6.123234e-17 -1 1 6.123234e-17 356.7441 188.23)" class="st10 st11">Q</text>
		<rect x="343" y="166.9" class="st0" width="18.9" height="8.9"/>
		<text transform="matrix(6.123234e-17 -1 1 6.123234e-17 356.748 175.7798)" class="st10 st11">u</text>
		<rect x="343" y="158" class="st0" width="18.9" height="8.9"/>
		<text transform="matrix(6.123234e-17 -1 1 6.123234e-17 356.748 166.8799)" class="st10 st11">o</text>
		<text transform="matrix(6.123234e-17 -1 1 6.123234e-17 356.75 157.9805)" class="st10 st11">t</text>
		<rect x="343" y="144.6" class="st0" width="18.9" height="8.9"/>
		<text transform="matrix(6.123234e-17 -1 1 6.123234e-17 356.748 153.54)" class="st10 st11">a</text>
		<text transform="matrix(6.123234e-17 -1 1 6.123234e-17 356.75 140.6396)" class="st15 st16">(</text>
		<text transform="matrix(6.123234e-17 -1 1 6.123234e-17 356.75 133.9805)" class="st10 st11">f</text>
		<rect x="343" y="116.2" class="st0" width="18.9" height="13.3"/>
		<text transform="matrix(6.123234e-17 -1 1 6.123234e-17 356.748 129.5298)" class="st10 st11">m</text>
		<rect x="343" y="107.3" class="st0" width="18.9" height="8.9"/>
		<text transform="matrix(6.123234e-17 -1 1 6.123234e-17 356.748 116.21)" class="st10 st11">o</text>
		<rect x="343" y="103.8" class="st0" width="19" height="3.6"/>
		<text transform="matrix(6.123234e-17 -1 1 6.123234e-17 356.7295 107.3105)" class="st10 st11">l</text>
		<rect x="343" y="91.7" class="st0" width="18.9" height="8"/>
		<text transform="matrix(6.123234e-17 -1 1 6.123234e-17 356.75 99.75)" class="st10 st11">c</text>
		<rect x="343" y="82.9" class="st0" width="18.9" height="8.9"/>
		<text transform="matrix(6.123234e-17 -1 1 6.123234e-17 356.748 91.75)" class="st10 st11">e</text>
		<rect x="343" y="79.3" class="st0" width="19" height="3.6"/>
		<text transform="matrix(6.123234e-17 -1 1 6.123234e-17 356.7295 82.8496)" class="st10 st11">l</text>
		<rect x="343" y="75.7" class="st0" width="19" height="3.6"/>
		<text transform="matrix(6.123234e-17 -1 1 6.123234e-17 356.7295 79.29)" class="st10 st11">l</text>
		<text transform="matrix(6.123234e-17 -1 1 6.123234e-17 348.7999 75.7402)" class="st15 st14">−</text>
		<text transform="matrix(6.123234e-17 -1 1 6.123234e-17 348.7999 69.5898)" class="st10 st14">1</text>
		<text transform="matrix(6.123234e-17 -1 1 6.123234e-17 356.75 63.3701)" class="st15 st16">)</text>
		<text transform="matrix(1 0 0 1 345.21 15.11)" class="st17 st18">C</text>
		<rect x="159.7" y="397.6" class="st4" width="190.9" height="33.2"/>
		<text transform="matrix(1 0 0 1 167.65 419.99)" class="st10 st11">State</text>
		<rect x="213.7" y="406.3" class="st5" width="15.9" height="15.9"/>
		<rect x="285.5" y="406.3" class="st6" width="15.9" height="15.9"/>
		<text transform="matrix(1 0 0 1 238.23 418.85)" class="st10 st25">Axenic</text>
		<text transform="matrix(1 0 0 1 310.07 418.85)" class="st10 st25">Xenic</text>
	</g>
</g>
<text transform="matrix(1 0 0 1 241.142 58.9489)" class="st10 st11">**</text>
<text transform="matrix(1 0 0 1 71.4177 241.0797)" class="st10 st18">A</text>
<text transform="matrix(1 0 0 1 100.256 241.0803)" class="st10 st18">B</text>
<text transform="matrix(1 0 0 1 129.0168 241.0793)" class="st10 st18">C</text>
<text transform="matrix(1 0 0 1 157.8661 241.2474)" class="st10 st18">D</text>
<text transform="matrix(1 0 0 1 60.4188 215.5892)" class="st4 st10 st18">a</text>
<text transform="matrix(1 0 0 1 89.0327 237.7559)" class="st4 st10 st18">b</text>
<text transform="matrix(1 0 0 1 117.5451 215.7435)" class="st4 st10 st18">a</text>
<text transform="matrix(1 0 0 1 147.0558 215.435)" class="st4 st10 st18">a</text>
<text transform="matrix(1 0 0 1 230.4626 92.6329)" class="st4 st10 st18">a</text>
<text transform="matrix(1 0 0 1 259.1019 92.7869)" class="st4 st10 st18">b</text>
<text transform="matrix(1 0 0 1 287.3511 92.941)" class="st4 st10 st18">a</text>
<text transform="matrix(1 0 0 1 316.7567 92.6326)" class="st4 st10 st18">a</text>
<text transform="matrix(1 0 0 1 242.487 110.9198)" class="st10 st18">A</text>
<text transform="matrix(1 0 0 1 271.1746 110.92)" class="st10 st18">A</text>
<text transform="matrix(1 0 0 1 300.1156 110.9197)" class="st10 st18">B</text>
<text transform="matrix(1 0 0 1 328.0271 110.9195)" class="st10 st18">B</text>
</svg>
